<svg width="26" height="26" viewBox="0 0 26 26" fill="none" xmlns="http://www.w3.org/2000/svg">
<g clip-path="url(#clip0_1827_33)">
<path d="M0 14.487C0.14511 15.5971 0.410785 16.4515 0.630256 17.031C0.79919 17.4764 0.970291 17.8366 1.06703 18.0388C1.19409 18.3053 1.51897 18.9637 2.03227 19.7562C2.5138 20.4984 2.97007 21.0623 3.28845 21.431C3.45883 21.6278 4.07537 22.3304 5.00812 23.1198C5.40518 23.456 5.93292 23.8991 6.70107 24.3686C7.02594 24.5669 7.64681 24.9434 8.42074 25.2346C9.09287 25.488 10.2537 25.8164 11.8066 25.7242C10.7151 25.3787 9.88628 24.9 9.33327 24.525C9.27768 24.4871 7.93198 23.559 6.8404 22.1089C6.49459 21.6495 6.19138 21.1599 6.1459 21.0871C5.97119 20.8036 5.72139 20.3961 5.45789 19.8345C5.27812 19.4502 5.06443 18.9351 4.876 18.3014C5.04493 18.4997 5.26368 18.7437 5.5308 19.011C5.74522 19.2256 6.14084 19.6052 6.68158 20.0219C7.29523 20.4953 7.79842 20.7888 8.12979 20.9802C8.52686 21.2095 9.09503 21.5348 9.88556 21.8424C10.9483 22.2561 11.8182 22.4071 12.1575 22.4598C12.7163 22.5458 13.4382 22.6101 14.28 22.5659C13.8707 22.3754 13.3422 22.1065 12.7473 21.7409C12.26 21.4411 11.5684 21.0112 10.7786 20.2985C9.96642 19.5664 9.44878 18.894 9.05605 18.3789C8.42362 17.55 8.00995 16.845 7.82586 16.5197C7.33638 15.6544 7.03533 14.9355 6.91332 14.6318C6.76027 14.2522 6.6462 13.9246 6.51625 13.5535C6.31483 12.9756 6.16034 12.4876 6.05349 12.1343C6.3105 12.2707 6.68519 12.4682 7.14073 12.7021C8.10958 13.201 8.86112 13.5876 9.71735 13.9796C10.3447 14.267 11.0306 14.5396 12.4022 15.0866C13.6707 15.5924 13.683 15.5785 14.4923 15.91C15.9809 16.5189 16.726 16.8241 17.336 17.1874C18.6853 17.9915 19.5141 18.8576 19.73 19.0892C20.3487 19.7523 20.7811 20.3899 21.0656 20.8632C21.0656 20.5898 21.0461 20.1955 20.9515 19.7353C20.6483 18.258 19.8217 17.316 19.4253 16.8753C18.8636 16.2509 18.3186 15.9007 17.2299 15.2004C16.339 14.628 15.6142 14.2623 15.0641 13.9873C14.2237 13.5667 14.2122 13.6116 12.4152 12.7951C10.7476 12.0367 10.2797 11.7811 9.93537 11.582C9.46972 11.3132 9.07915 11.0614 8.46694 10.6663C7.85546 10.272 7.4194 9.99083 6.84979 9.58026C6.47943 9.313 6.0672 8.98686 5.24275 8.3346C4.37858 7.65057 4.13312 7.43754 3.87394 7.19042C3.48698 6.82091 3.18882 6.49013 2.99101 6.25928C2.84806 6.46611 2.6618 6.77675 2.51453 7.185C2.32032 7.72571 2.29361 8.1665 2.26185 8.76531C2.22358 9.48342 2.27051 10.0234 2.31671 10.5587C2.36869 11.1637 2.44594 11.6718 2.51525 12.0592C2.58311 12.438 2.65458 12.8315 2.80258 13.3474C2.85817 13.5411 2.98523 13.9617 3.18954 14.4653C3.31805 14.7821 3.4581 15.0835 3.5368 15.2531C3.61982 15.4321 3.69201 15.5808 3.74544 15.6892C3.5007 15.6637 3.17222 15.6172 2.78814 15.5297C2.34343 15.4282 2.01422 15.3143 1.74854 15.2213C1.47782 15.1268 1.13489 14.9951 0.743601 14.817" fill="#7948FF"/>
<path d="M22.586 26C22.8971 24.9767 22.965 24.1145 22.9693 23.5304C22.9744 22.8789 22.9029 22.3622 22.8372 21.8842C22.7982 21.6014 22.6849 20.8415 22.4141 19.8724C22.2517 19.2914 22.0849 18.6934 21.7492 17.9776C21.3724 17.1727 20.9789 16.6382 20.628 16.168C19.7422 14.9789 18.8723 14.2158 18.2868 13.7092C17.6197 13.1313 17.6681 13.2537 16.5671 12.3326C15.3766 11.3364 15.0077 10.932 14.7283 10.5873C14.1566 9.8808 13.8411 9.27734 13.7494 9.09684C13.5516 8.70796 13.2924 8.18971 13.1278 7.45069C12.891 6.38862 12.9957 5.52642 13.0354 5.25064C13.0823 4.92374 13.2231 4.14442 13.6837 3.2923C14.0309 2.64933 14.4114 2.24185 14.7421 1.88706C14.9507 1.66318 15.2806 1.31303 15.7867 0.950491C16.0177 0.785488 16.3939 0.519004 16.9108 0.312169C17.7461 -0.022485 18.4601 -0.00776642 18.9019 0.00540284C19.2188 0.0146988 20.07 0.0673759 21.0713 0.504286C21.3868 0.641401 21.9535 0.894715 22.5657 1.42691C22.7643 1.59888 23.6277 2.37432 24.1663 3.71216C24.5121 4.57049 24.6124 5.38389 24.6623 5.8053C24.7024 6.14291 24.8143 6.46941 25.0061 6.75013C25.3322 7.22727 25.8312 7.98957 26 8.42056L21.9125 6.85377C21.6945 6.7702 21.5577 6.55675 21.5464 6.32355C21.5298 5.98967 21.4965 5.44586 21.2042 4.86873C20.971 4.40936 20.6699 4.11964 20.4967 3.97477C20.4143 3.90583 20.0758 3.63005 19.5509 3.4635C19.3091 3.3868 18.7835 3.228 18.1424 3.39223C18.0558 3.41469 17.6782 3.51695 17.2696 3.81829C17.1786 3.88569 16.91 4.09175 16.648 4.44964C16.5881 4.53098 16.4162 4.77423 16.2646 5.13832C16.1621 5.38466 15.9686 5.84791 15.9802 6.43665C15.9946 7.15321 16.3051 7.66914 16.4928 7.97281C16.6509 8.22845 16.8263 8.44148 17.5677 9.11156C18.281 9.75686 18.8427 10.2139 18.9134 10.272C19.8974 11.0738 20.4006 11.4836 20.9074 11.9329C21.7803 12.706 22.4567 13.3056 23.1888 14.2855C23.7295 15.0091 24.0963 15.6668 24.3193 16.106C24.5511 16.5615 24.8897 17.2362 25.1525 18.1922C25.281 18.6577 25.4441 19.2666 25.4795 20.0978C25.5221 21.1002 25.3546 21.8656 25.281 22.1631C25.0889 22.9416 24.8153 23.4761 24.7453 23.6109C24.6984 23.7008 24.4818 24.109 24.1006 24.5901C23.8226 24.941 23.3859 25.4213 22.7513 25.8784L22.586 26.0023V26Z" fill="#7948FF"/>
</g>
<defs>
<clipPath id="clip0_1827_33">
<rect width="26" height="26" fill="white"/>
</clipPath>
</defs>
</svg>
