<svg xmlns="http://www.w3.org/2000/svg" viewBox="0 0 400 300">
  <!-- Background -->
  <rect width="400" height="300" fill="#2c3e50"/>
  
  <!-- Confetti pieces -->
  <rect x="50" y="50" width="10" height="5" fill="#e74c3c" transform="rotate(45 50 50)"/>
  <rect x="100" y="80" width="10" height="5" fill="#3498db" transform="rotate(30 100 80)"/>
  <rect x="150" y="40" width="10" height="5" fill="#2ecc71" transform="rotate(60 150 40)"/>
  <rect x="200" y="70" width="10" height="5" fill="#f1c40f" transform="rotate(15 200 70)"/>
  <rect x="250" y="60" width="10" height="5" fill="#e74c3c" transform="rotate(75 250 60)"/>
  <rect x="300" y="90" width="10" height="5" fill="#9b59b6" transform="rotate(20 300 90)"/>
  <rect x="75" y="120" width="10" height="5" fill="#1abc9c" transform="rotate(40 75 120)"/>
  <rect x="125" y="100" width="10" height="5" fill="#f39c12" transform="rotate(55 125 100)"/>
  <rect x="225" y="110" width="10" height="5" fill="#3498db" transform="rotate(25 225 110)"/>
  <rect x="275" y="130" width="10" height="5" fill="#2ecc71" transform="rotate(70 275 130)"/>
  <rect x="325" y="140" width="10" height="5" fill="#e74c3c" transform="rotate(35 325 140)"/>
  
  <!-- Envelope -->
  <path d="M150 150 L250 150 L250 220 L150 220 Z" fill="#ecf0f1"/>
  <path d="M150 150 L200 180 L250 150" fill="#bdc3c7"/>
  <path d="M150 220 L180 190 L220 190 L250 220" fill="#bdc3c7"/>
  
  <!-- Heart seal -->
  <circle cx="200" cy="190" r="15" fill="#e74c3c"/>
  <path d="M193 185 C193 180 197 180 200 185 C203 180 207 180 207 185 C207 190 200 195 200 195 S193 190 193 185 Z" fill="#ffffff"/>
  
  <!-- Calendar or event symbol -->
  <rect x="170" y="160" width="60" height="10" fill="#3498db"/>
  <rect x="180" y="170" width="40" height="5" fill="#3498db"/>
  
  <!-- Decorative lines -->
  <line x1="120" y1="250" x2="280" y2="250" stroke="#e74c3c" stroke-width="3"/>
  <line x1="140" y1="260" x2="260" y2="260" stroke="#3498db" stroke-width="3"/>
  <line x1="160" y1="270" x2="240" y2="270" stroke="#2ecc71" stroke-width="3"/>
</svg>
