<svg width="141" height="180" viewBox="0 0 141 180" fill="none" xmlns="http://www.w3.org/2000/svg">
<mask id="path-1-outside-1_1478_12" maskUnits="userSpaceOnUse" x="-1.30192" y="-1.22214" width="144.297" height="182.013" fill="black">
<rect fill="white" x="-1.30192" y="-1.22214" width="144.297" height="182.013"/>
<path d="M84.0596 24.1426C84.9546 21.946 85.496 19.9509 86.4858 18.1352C87.9278 15.4856 89.8098 14.666 92.8219 15.098C94.8199 15.3842 96.7156 16.0114 98.6689 16.4296C102.724 17.2977 106.802 18.0307 110.891 18.73C115.023 19.4356 118.478 21.3231 121.02 24.7878C122.851 27.2851 124.381 29.9852 126.254 32.4448C127.179 33.6593 128.154 34.8407 129.196 35.9566C131.709 38.6484 132.128 41.7212 131.365 45.2251C130.25 50.3452 129.325 55.5034 128.059 60.5957C127.164 64.1967 126.46 67.8529 125.647 71.4802C124.859 74.9998 123.765 78.4603 123.16 82.0012C122.498 85.8758 121.353 89.6226 120.597 93.4554C119.462 99.2185 118.109 104.924 116.787 110.643C115.657 115.525 114.513 120.404 113.415 125.294C112.709 128.431 111.758 131.515 111.184 134.669C110.623 137.768 109.62 140.743 108.979 143.809C107.567 150.562 105.857 157.243 104.204 163.938C103.818 165.503 103.589 167.159 103.283 168.76C102.45 173.109 99.7457 175.442 95.0587 175.304C92.3955 175.225 89.7988 174.598 87.1922 174.027C83.03 173.114 78.808 172.482 74.6373 171.6C71.072 170.849 67.4297 170.436 63.9547 169.296C61.6933 168.556 60.2994 166.925 59.3946 164.719C58.3974 162.288 57.4376 159.855 56.762 157.317C56.6822 157.018 56.5705 156.701 56.3805 156.468C56.257 156.316 55.9698 156.247 55.7489 156.233C55.413 156.21 55.461 156.491 55.4259 156.725C54.915 159.974 50.7036 163.826 46.4343 162.596C43.7016 161.809 40.8989 161.12 38.0906 160.564C33.4416 159.644 28.8059 158.664 24.1789 157.642C22.1594 157.197 20.112 156.839 18.0706 156.495C14.4137 155.878 12.4818 153.372 11.1185 150.284C8.90066 145.261 8.32256 139.875 7.71285 134.497C7.36947 131.459 7.93846 128.508 8.61511 125.603C9.64681 121.168 11.0051 116.809 12.0368 112.374C13.1938 107.409 14.6181 102.504 15.6813 97.5241C16.6819 92.837 18.1659 88.2799 19.1406 83.5981C20.0944 79.023 21.529 74.57 22.461 70.0037C23.2096 66.3447 24.2139 62.7629 25.1542 59.1642C28.6543 45.7586 31.9181 32.2955 35.4479 18.8977C36.3962 15.306 37.3121 11.6887 38.1314 8.05805C38.376 6.9744 38.7961 5.95659 39.257 4.9788C40.173 3.02655 41.8884 2.15326 43.9939 2.00458C45.4103 1.90316 46.816 2.06461 48.1846 2.39424C50.4781 2.94856 52.76 3.5559 55.0295 4.20137C56.1308 4.51651 57.2624 4.61535 58.3765 4.8266C61.1263 5.34537 63.5252 6.66617 65.8663 8.11313C69.2343 10.1944 72.3178 12.715 75.8096 14.6047C76.7351 15.105 77.6726 15.6426 78.6735 15.9312C81.571 16.7694 82.649 19.014 83.3478 21.612C83.5491 22.3574 83.7665 23.0974 84.0636 24.1461L84.0596 24.1426ZM84.1339 42.8069C83.5617 42.5876 83.6615 42.0337 83.5621 41.6053C82.0096 34.8862 79.676 28.3876 77.8619 21.7433C77.7476 21.3255 77.5562 20.6534 76.9999 20.8088C76.3958 20.9784 76.5386 21.6402 76.6796 22.1235C77.3031 24.2579 77.9237 26.394 78.5971 28.5148C80.2193 33.6286 81.7708 38.7603 82.8666 44.0179C82.9519 44.4256 82.9411 44.9104 83.47 45.0719C83.0695 46.8385 82.5607 48.5715 81.9161 50.2639C81.8477 50.2361 81.7752 50.2145 81.7027 50.2027C81.1465 47.2767 80.653 44.3355 80.0217 41.4263C78.4624 34.2423 76.0233 27.3014 74.0268 20.2384C73.8788 19.7166 73.525 19.4745 73.1279 19.221C68.7958 16.4439 64.463 13.6691 60.1356 10.8834C59.6306 10.5575 59.1058 10.3434 58.5146 10.2239C53.934 9.28517 49.3517 8.34357 44.7797 7.36322C44.0469 7.20632 43.7411 7.33768 43.5634 8.11234C42.9827 10.6358 42.3231 13.1433 41.6802 15.6527C39.3358 24.8193 36.9937 33.9865 34.6402 43.1507C29.6495 62.5816 24.6861 82.0198 20.0002 101.526C17.8649 110.419 15.6697 119.298 13.5504 128.195C13.1734 129.78 12.6925 131.343 12.9015 133.058C13.454 137.58 14.1431 142.074 14.9807 146.552C15.1394 147.403 15.5274 147.701 16.3184 147.868C25.6622 149.85 35.0011 151.85 44.3362 153.873C47.189 154.492 47.2051 154.533 47.946 151.708C50.1425 143.314 52.3162 134.914 54.5082 126.519C54.569 126.289 54.4651 125.942 54.9578 125.843C55.2244 127.303 55.8324 128.673 55.9554 130.168C55.5081 130.355 55.5253 130.798 55.4371 131.16C54.7025 134.165 53.9029 137.147 53.2339 140.171C52.168 144.995 50.7601 149.745 49.5 154.527C49.3797 154.983 49.1951 155.405 48.9921 155.831C48.7302 156.379 48.4166 156.457 47.8754 156.314C46.59 155.975 45.2698 155.758 43.9792 155.466C39.0156 154.341 34.022 153.356 29.0557 152.26C26.4943 151.693 23.9083 151.22 21.3605 150.574C20.1977 150.279 18.9814 150.131 17.8032 149.83C17.4926 149.748 17.1621 149.668 17.0188 150.081C16.8785 150.483 17.0277 150.778 17.4181 150.928C17.6728 151.027 17.9445 151.145 18.2102 151.147C20.1561 151.158 21.9887 151.84 23.846 152.242C28.8189 153.323 33.8257 154.248 38.7757 155.416C41.7534 156.117 44.7907 156.555 47.7152 157.476C48.0038 157.567 48.3503 157.476 48.6431 157.56C49.5452 157.825 49.7702 157.334 49.963 156.585C51.2152 151.74 52.5063 146.905 53.7842 142.065C54.5357 139.218 55.2804 136.37 56.0381 133.527C56.1344 133.163 56.1205 132.725 56.5441 132.518C56.6556 132.891 56.7935 133.256 56.8769 133.634C58.7712 142.26 60.6838 150.88 62.5189 159.517C62.7501 160.612 63.2124 161.099 64.2767 161.305C66.1667 161.667 68.029 162.171 69.9126 162.576C77.7551 164.259 85.7017 165.362 93.5577 166.966C94.4523 167.148 94.7816 167.011 94.9953 166.099C96.1989 160.939 97.471 155.797 98.7094 150.644C101.216 140.226 103.71 129.807 106.216 119.388C110.026 103.553 113.669 87.6817 117.102 71.7622C119.394 61.1385 121.552 50.4868 123.814 39.8575C124.021 38.8763 123.85 38.1364 123.298 37.3518C120.589 33.4943 117.905 29.6189 115.23 25.7362C114.955 25.3367 114.613 25.1954 114.171 25.1031C111.095 24.4615 108.02 23.8034 104.945 23.1476C100.564 22.2127 96.1836 21.2733 91.8011 20.3429C91.2739 20.2306 90.8121 20.0648 90.5901 20.9057C89.8466 23.7129 89.0077 26.4924 88.1826 29.2755C86.8446 33.7883 85.489 38.2939 84.1397 42.8036L84.1339 42.8069ZM113.282 103.635C114.174 99.5876 115.068 95.5377 115.956 91.4889C116.341 89.733 116.787 87.9905 117.164 86.2299C118.049 82.0999 119.029 77.99 119.898 73.8557C120.614 70.4513 121.445 67.0724 122.107 63.6564C122.933 59.4009 123.912 55.1737 124.756 50.9208C125.357 47.8956 125.957 44.8652 126.619 41.8489C126.716 41.4087 126.819 40.9167 126.218 40.8165C125.633 40.7182 125.518 41.2267 125.465 41.6611C125.1 44.6071 124.372 47.4917 123.803 50.3961C122.894 55.0341 121.815 59.6396 120.881 64.2761C120.165 67.839 119.347 71.3844 118.565 74.9349C117.744 78.677 116.923 82.422 116.092 86.1616C115.22 90.0952 114.396 94.0413 113.448 97.9527C112.582 101.532 111.91 105.16 110.885 108.697C110.526 109.936 110.33 111.208 110.085 112.45C109.523 115.293 108.586 118.037 108.123 120.908C107.618 124.032 106.647 127.074 105.899 130.155C104.644 135.336 103.452 140.533 102.128 145.696C101.701 147.36 101.36 149.052 100.969 150.724C99.6004 156.603 97.8436 162.388 96.639 168.311C96.4716 169.129 96.0349 169.294 95.2725 169.074C94.145 168.747 92.9894 168.554 91.8258 168.364C87.1598 167.61 82.499 166.808 77.8607 165.903C73.98 165.144 70.1331 164.202 66.2641 163.37C65.7073 163.25 64.849 162.643 64.6088 163.433C64.3637 164.241 65.3686 164.348 65.9698 164.494C68.7444 165.178 71.564 165.664 74.3493 166.28C78.4772 167.194 82.6567 167.783 86.8082 168.553C89.9981 169.144 93.1881 169.735 96.3736 170.352C97.0009 170.473 97.3029 170.282 97.5166 169.686C97.7999 168.89 97.7023 168.057 97.8969 167.255C99.2425 161.733 100.991 156.314 102.051 150.717C102.693 147.332 103.847 144.07 104.484 140.667C105.202 136.819 106.414 133.08 107.264 129.248C108.434 123.977 109.742 118.734 110.936 113.464C111.678 110.182 112.408 106.891 113.279 103.637L113.282 103.635Z"/>
</mask>
<path d="M84.0596 24.1426C84.9546 21.946 85.496 19.9509 86.4858 18.1352C87.9278 15.4856 89.8098 14.666 92.8219 15.098C94.8199 15.3842 96.7156 16.0114 98.6689 16.4296C102.724 17.2977 106.802 18.0307 110.891 18.73C115.023 19.4356 118.478 21.3231 121.02 24.7878C122.851 27.2851 124.381 29.9852 126.254 32.4448C127.179 33.6593 128.154 34.8407 129.196 35.9566C131.709 38.6484 132.128 41.7212 131.365 45.2251C130.25 50.3452 129.325 55.5034 128.059 60.5957C127.164 64.1967 126.46 67.8529 125.647 71.4802C124.859 74.9998 123.765 78.4603 123.16 82.0012C122.498 85.8758 121.353 89.6226 120.597 93.4554C119.462 99.2185 118.109 104.924 116.787 110.643C115.657 115.525 114.513 120.404 113.415 125.294C112.709 128.431 111.758 131.515 111.184 134.669C110.623 137.768 109.62 140.743 108.979 143.809C107.567 150.562 105.857 157.243 104.204 163.938C103.818 165.503 103.589 167.159 103.283 168.76C102.45 173.109 99.7457 175.442 95.0587 175.304C92.3955 175.225 89.7988 174.598 87.1922 174.027C83.03 173.114 78.808 172.482 74.6373 171.6C71.072 170.849 67.4297 170.436 63.9547 169.296C61.6933 168.556 60.2994 166.925 59.3946 164.719C58.3974 162.288 57.4376 159.855 56.762 157.317C56.6822 157.018 56.5705 156.701 56.3805 156.468C56.257 156.316 55.9698 156.247 55.7489 156.233C55.413 156.21 55.461 156.491 55.4259 156.725C54.915 159.974 50.7036 163.826 46.4343 162.596C43.7016 161.809 40.8989 161.12 38.0906 160.564C33.4416 159.644 28.8059 158.664 24.1789 157.642C22.1594 157.197 20.112 156.839 18.0706 156.495C14.4137 155.878 12.4818 153.372 11.1185 150.284C8.90066 145.261 8.32256 139.875 7.71285 134.497C7.36947 131.459 7.93846 128.508 8.61511 125.603C9.64681 121.168 11.0051 116.809 12.0368 112.374C13.1938 107.409 14.6181 102.504 15.6813 97.5241C16.6819 92.837 18.1659 88.2799 19.1406 83.5981C20.0944 79.023 21.529 74.57 22.461 70.0037C23.2096 66.3447 24.2139 62.7629 25.1542 59.1642C28.6543 45.7586 31.9181 32.2955 35.4479 18.8977C36.3962 15.306 37.3121 11.6887 38.1314 8.05805C38.376 6.9744 38.7961 5.95659 39.257 4.9788C40.173 3.02655 41.8884 2.15326 43.9939 2.00458C45.4103 1.90316 46.816 2.06461 48.1846 2.39424C50.4781 2.94856 52.76 3.5559 55.0295 4.20137C56.1308 4.51651 57.2624 4.61535 58.3765 4.8266C61.1263 5.34537 63.5252 6.66617 65.8663 8.11313C69.2343 10.1944 72.3178 12.715 75.8096 14.6047C76.7351 15.105 77.6726 15.6426 78.6735 15.9312C81.571 16.7694 82.649 19.014 83.3478 21.612C83.5491 22.3574 83.7665 23.0974 84.0636 24.1461L84.0596 24.1426ZM84.1339 42.8069C83.5617 42.5876 83.6615 42.0337 83.5621 41.6053C82.0096 34.8862 79.676 28.3876 77.8619 21.7433C77.7476 21.3255 77.5562 20.6534 76.9999 20.8088C76.3958 20.9784 76.5386 21.6402 76.6796 22.1235C77.3031 24.2579 77.9237 26.394 78.5971 28.5148C80.2193 33.6286 81.7708 38.7603 82.8666 44.0179C82.9519 44.4256 82.9411 44.9104 83.47 45.0719C83.0695 46.8385 82.5607 48.5715 81.9161 50.2639C81.8477 50.2361 81.7752 50.2145 81.7027 50.2027C81.1465 47.2767 80.653 44.3355 80.0217 41.4263C78.4624 34.2423 76.0233 27.3014 74.0268 20.2384C73.8788 19.7166 73.525 19.4745 73.1279 19.221C68.7958 16.4439 64.463 13.6691 60.1356 10.8834C59.6306 10.5575 59.1058 10.3434 58.5146 10.2239C53.934 9.28517 49.3517 8.34357 44.7797 7.36322C44.0469 7.20632 43.7411 7.33768 43.5634 8.11234C42.9827 10.6358 42.3231 13.1433 41.6802 15.6527C39.3358 24.8193 36.9937 33.9865 34.6402 43.1507C29.6495 62.5816 24.6861 82.0198 20.0002 101.526C17.8649 110.419 15.6697 119.298 13.5504 128.195C13.1734 129.78 12.6925 131.343 12.9015 133.058C13.454 137.58 14.1431 142.074 14.9807 146.552C15.1394 147.403 15.5274 147.701 16.3184 147.868C25.6622 149.85 35.0011 151.85 44.3362 153.873C47.189 154.492 47.2051 154.533 47.946 151.708C50.1425 143.314 52.3162 134.914 54.5082 126.519C54.569 126.289 54.4651 125.942 54.9578 125.843C55.2244 127.303 55.8324 128.673 55.9554 130.168C55.5081 130.355 55.5253 130.798 55.4371 131.16C54.7025 134.165 53.9029 137.147 53.2339 140.171C52.168 144.995 50.7601 149.745 49.5 154.527C49.3797 154.983 49.1951 155.405 48.9921 155.831C48.7302 156.379 48.4166 156.457 47.8754 156.314C46.59 155.975 45.2698 155.758 43.9792 155.466C39.0156 154.341 34.022 153.356 29.0557 152.26C26.4943 151.693 23.9083 151.22 21.3605 150.574C20.1977 150.279 18.9814 150.131 17.8032 149.83C17.4926 149.748 17.1621 149.668 17.0188 150.081C16.8785 150.483 17.0277 150.778 17.4181 150.928C17.6728 151.027 17.9445 151.145 18.2102 151.147C20.1561 151.158 21.9887 151.84 23.846 152.242C28.8189 153.323 33.8257 154.248 38.7757 155.416C41.7534 156.117 44.7907 156.555 47.7152 157.476C48.0038 157.567 48.3503 157.476 48.6431 157.56C49.5452 157.825 49.7702 157.334 49.963 156.585C51.2152 151.74 52.5063 146.905 53.7842 142.065C54.5357 139.218 55.2804 136.37 56.0381 133.527C56.1344 133.163 56.1205 132.725 56.5441 132.518C56.6556 132.891 56.7935 133.256 56.8769 133.634C58.7712 142.26 60.6838 150.88 62.5189 159.517C62.7501 160.612 63.2124 161.099 64.2767 161.305C66.1667 161.667 68.029 162.171 69.9126 162.576C77.7551 164.259 85.7017 165.362 93.5577 166.966C94.4523 167.148 94.7816 167.011 94.9953 166.099C96.1989 160.939 97.471 155.797 98.7094 150.644C101.216 140.226 103.71 129.807 106.216 119.388C110.026 103.553 113.669 87.6817 117.102 71.7622C119.394 61.1385 121.552 50.4868 123.814 39.8575C124.021 38.8763 123.85 38.1364 123.298 37.3518C120.589 33.4943 117.905 29.6189 115.23 25.7362C114.955 25.3367 114.613 25.1954 114.171 25.1031C111.095 24.4615 108.02 23.8034 104.945 23.1476C100.564 22.2127 96.1836 21.2733 91.8011 20.3429C91.2739 20.2306 90.8121 20.0648 90.5901 20.9057C89.8466 23.7129 89.0077 26.4924 88.1826 29.2755C86.8446 33.7883 85.489 38.2939 84.1397 42.8036L84.1339 42.8069ZM113.282 103.635C114.174 99.5876 115.068 95.5377 115.956 91.4889C116.341 89.733 116.787 87.9905 117.164 86.2299C118.049 82.0999 119.029 77.99 119.898 73.8557C120.614 70.4513 121.445 67.0724 122.107 63.6564C122.933 59.4009 123.912 55.1737 124.756 50.9208C125.357 47.8956 125.957 44.8652 126.619 41.8489C126.716 41.4087 126.819 40.9167 126.218 40.8165C125.633 40.7182 125.518 41.2267 125.465 41.6611C125.1 44.6071 124.372 47.4917 123.803 50.3961C122.894 55.0341 121.815 59.6396 120.881 64.2761C120.165 67.839 119.347 71.3844 118.565 74.9349C117.744 78.677 116.923 82.422 116.092 86.1616C115.22 90.0952 114.396 94.0413 113.448 97.9527C112.582 101.532 111.91 105.16 110.885 108.697C110.526 109.936 110.33 111.208 110.085 112.45C109.523 115.293 108.586 118.037 108.123 120.908C107.618 124.032 106.647 127.074 105.899 130.155C104.644 135.336 103.452 140.533 102.128 145.696C101.701 147.36 101.36 149.052 100.969 150.724C99.6004 156.603 97.8436 162.388 96.639 168.311C96.4716 169.129 96.0349 169.294 95.2725 169.074C94.145 168.747 92.9894 168.554 91.8258 168.364C87.1598 167.61 82.499 166.808 77.8607 165.903C73.98 165.144 70.1331 164.202 66.2641 163.37C65.7073 163.25 64.849 162.643 64.6088 163.433C64.3637 164.241 65.3686 164.348 65.9698 164.494C68.7444 165.178 71.564 165.664 74.3493 166.28C78.4772 167.194 82.6567 167.783 86.8082 168.553C89.9981 169.144 93.1881 169.735 96.3736 170.352C97.0009 170.473 97.3029 170.282 97.5166 169.686C97.7999 168.89 97.7023 168.057 97.8969 167.255C99.2425 161.733 100.991 156.314 102.051 150.717C102.693 147.332 103.847 144.07 104.484 140.667C105.202 136.819 106.414 133.08 107.264 129.248C108.434 123.977 109.742 118.734 110.936 113.464C111.678 110.182 112.408 106.891 113.279 103.637L113.282 103.635Z" fill="#FCFCFC"/>
<path d="M84.0596 24.1426C84.9546 21.946 85.496 19.9509 86.4858 18.1352C87.9278 15.4856 89.8098 14.666 92.8219 15.098C94.8199 15.3842 96.7156 16.0114 98.6689 16.4296C102.724 17.2977 106.802 18.0307 110.891 18.73C115.023 19.4356 118.478 21.3231 121.02 24.7878C122.851 27.2851 124.381 29.9852 126.254 32.4448C127.179 33.6593 128.154 34.8407 129.196 35.9566C131.709 38.6484 132.128 41.7212 131.365 45.2251C130.25 50.3452 129.325 55.5034 128.059 60.5957C127.164 64.1967 126.46 67.8529 125.647 71.4802C124.859 74.9998 123.765 78.4603 123.16 82.0012C122.498 85.8758 121.353 89.6226 120.597 93.4554C119.462 99.2185 118.109 104.924 116.787 110.643C115.657 115.525 114.513 120.404 113.415 125.294C112.709 128.431 111.758 131.515 111.184 134.669C110.623 137.768 109.62 140.743 108.979 143.809C107.567 150.562 105.857 157.243 104.204 163.938C103.818 165.503 103.589 167.159 103.283 168.76C102.45 173.109 99.7457 175.442 95.0587 175.304C92.3955 175.225 89.7988 174.598 87.1922 174.027C83.03 173.114 78.808 172.482 74.6373 171.6C71.072 170.849 67.4297 170.436 63.9547 169.296C61.6933 168.556 60.2994 166.925 59.3946 164.719C58.3974 162.288 57.4376 159.855 56.762 157.317C56.6822 157.018 56.5705 156.701 56.3805 156.468C56.257 156.316 55.9698 156.247 55.7489 156.233C55.413 156.21 55.461 156.491 55.4259 156.725C54.915 159.974 50.7036 163.826 46.4343 162.596C43.7016 161.809 40.8989 161.12 38.0906 160.564C33.4416 159.644 28.8059 158.664 24.1789 157.642C22.1594 157.197 20.112 156.839 18.0706 156.495C14.4137 155.878 12.4818 153.372 11.1185 150.284C8.90066 145.261 8.32256 139.875 7.71285 134.497C7.36947 131.459 7.93846 128.508 8.61511 125.603C9.64681 121.168 11.0051 116.809 12.0368 112.374C13.1938 107.409 14.6181 102.504 15.6813 97.5241C16.6819 92.837 18.1659 88.2799 19.1406 83.5981C20.0944 79.023 21.529 74.57 22.461 70.0037C23.2096 66.3447 24.2139 62.7629 25.1542 59.1642C28.6543 45.7586 31.9181 32.2955 35.4479 18.8977C36.3962 15.306 37.3121 11.6887 38.1314 8.05805C38.376 6.9744 38.7961 5.95659 39.257 4.9788C40.173 3.02655 41.8884 2.15326 43.9939 2.00458C45.4103 1.90316 46.816 2.06461 48.1846 2.39424C50.4781 2.94856 52.76 3.5559 55.0295 4.20137C56.1308 4.51651 57.2624 4.61535 58.3765 4.8266C61.1263 5.34537 63.5252 6.66617 65.8663 8.11313C69.2343 10.1944 72.3178 12.715 75.8096 14.6047C76.7351 15.105 77.6726 15.6426 78.6735 15.9312C81.571 16.7694 82.649 19.014 83.3478 21.612C83.5491 22.3574 83.7665 23.0974 84.0636 24.1461L84.0596 24.1426ZM84.1339 42.8069C83.5617 42.5876 83.6615 42.0337 83.5621 41.6053C82.0096 34.8862 79.676 28.3876 77.8619 21.7433C77.7476 21.3255 77.5562 20.6534 76.9999 20.8088C76.3958 20.9784 76.5386 21.6402 76.6796 22.1235C77.3031 24.2579 77.9237 26.394 78.5971 28.5148C80.2193 33.6286 81.7708 38.7603 82.8666 44.0179C82.9519 44.4256 82.9411 44.9104 83.47 45.0719C83.0695 46.8385 82.5607 48.5715 81.9161 50.2639C81.8477 50.2361 81.7752 50.2145 81.7027 50.2027C81.1465 47.2767 80.653 44.3355 80.0217 41.4263C78.4624 34.2423 76.0233 27.3014 74.0268 20.2384C73.8788 19.7166 73.525 19.4745 73.1279 19.221C68.7958 16.4439 64.463 13.6691 60.1356 10.8834C59.6306 10.5575 59.1058 10.3434 58.5146 10.2239C53.934 9.28517 49.3517 8.34357 44.7797 7.36322C44.0469 7.20632 43.7411 7.33768 43.5634 8.11234C42.9827 10.6358 42.3231 13.1433 41.6802 15.6527C39.3358 24.8193 36.9937 33.9865 34.6402 43.1507C29.6495 62.5816 24.6861 82.0198 20.0002 101.526C17.8649 110.419 15.6697 119.298 13.5504 128.195C13.1734 129.78 12.6925 131.343 12.9015 133.058C13.454 137.58 14.1431 142.074 14.9807 146.552C15.1394 147.403 15.5274 147.701 16.3184 147.868C25.6622 149.85 35.0011 151.85 44.3362 153.873C47.189 154.492 47.2051 154.533 47.946 151.708C50.1425 143.314 52.3162 134.914 54.5082 126.519C54.569 126.289 54.4651 125.942 54.9578 125.843C55.2244 127.303 55.8324 128.673 55.9554 130.168C55.5081 130.355 55.5253 130.798 55.4371 131.16C54.7025 134.165 53.9029 137.147 53.2339 140.171C52.168 144.995 50.7601 149.745 49.5 154.527C49.3797 154.983 49.1951 155.405 48.9921 155.831C48.7302 156.379 48.4166 156.457 47.8754 156.314C46.59 155.975 45.2698 155.758 43.9792 155.466C39.0156 154.341 34.022 153.356 29.0557 152.26C26.4943 151.693 23.9083 151.22 21.3605 150.574C20.1977 150.279 18.9814 150.131 17.8032 149.83C17.4926 149.748 17.1621 149.668 17.0188 150.081C16.8785 150.483 17.0277 150.778 17.4181 150.928C17.6728 151.027 17.9445 151.145 18.2102 151.147C20.1561 151.158 21.9887 151.84 23.846 152.242C28.8189 153.323 33.8257 154.248 38.7757 155.416C41.7534 156.117 44.7907 156.555 47.7152 157.476C48.0038 157.567 48.3503 157.476 48.6431 157.56C49.5452 157.825 49.7702 157.334 49.963 156.585C51.2152 151.74 52.5063 146.905 53.7842 142.065C54.5357 139.218 55.2804 136.37 56.0381 133.527C56.1344 133.163 56.1205 132.725 56.5441 132.518C56.6556 132.891 56.7935 133.256 56.8769 133.634C58.7712 142.26 60.6838 150.88 62.5189 159.517C62.7501 160.612 63.2124 161.099 64.2767 161.305C66.1667 161.667 68.029 162.171 69.9126 162.576C77.7551 164.259 85.7017 165.362 93.5577 166.966C94.4523 167.148 94.7816 167.011 94.9953 166.099C96.1989 160.939 97.471 155.797 98.7094 150.644C101.216 140.226 103.71 129.807 106.216 119.388C110.026 103.553 113.669 87.6817 117.102 71.7622C119.394 61.1385 121.552 50.4868 123.814 39.8575C124.021 38.8763 123.85 38.1364 123.298 37.3518C120.589 33.4943 117.905 29.6189 115.23 25.7362C114.955 25.3367 114.613 25.1954 114.171 25.1031C111.095 24.4615 108.02 23.8034 104.945 23.1476C100.564 22.2127 96.1836 21.2733 91.8011 20.3429C91.2739 20.2306 90.8121 20.0648 90.5901 20.9057C89.8466 23.7129 89.0077 26.4924 88.1826 29.2755C86.8446 33.7883 85.489 38.2939 84.1397 42.8036L84.1339 42.8069ZM113.282 103.635C114.174 99.5876 115.068 95.5377 115.956 91.4889C116.341 89.733 116.787 87.9905 117.164 86.2299C118.049 82.0999 119.029 77.99 119.898 73.8557C120.614 70.4513 121.445 67.0724 122.107 63.6564C122.933 59.4009 123.912 55.1737 124.756 50.9208C125.357 47.8956 125.957 44.8652 126.619 41.8489C126.716 41.4087 126.819 40.9167 126.218 40.8165C125.633 40.7182 125.518 41.2267 125.465 41.6611C125.1 44.6071 124.372 47.4917 123.803 50.3961C122.894 55.0341 121.815 59.6396 120.881 64.2761C120.165 67.839 119.347 71.3844 118.565 74.9349C117.744 78.677 116.923 82.422 116.092 86.1616C115.22 90.0952 114.396 94.0413 113.448 97.9527C112.582 101.532 111.91 105.16 110.885 108.697C110.526 109.936 110.33 111.208 110.085 112.45C109.523 115.293 108.586 118.037 108.123 120.908C107.618 124.032 106.647 127.074 105.899 130.155C104.644 135.336 103.452 140.533 102.128 145.696C101.701 147.36 101.36 149.052 100.969 150.724C99.6004 156.603 97.8436 162.388 96.639 168.311C96.4716 169.129 96.0349 169.294 95.2725 169.074C94.145 168.747 92.9894 168.554 91.8258 168.364C87.1598 167.61 82.499 166.808 77.8607 165.903C73.98 165.144 70.1331 164.202 66.2641 163.37C65.7073 163.25 64.849 162.643 64.6088 163.433C64.3637 164.241 65.3686 164.348 65.9698 164.494C68.7444 165.178 71.564 165.664 74.3493 166.28C78.4772 167.194 82.6567 167.783 86.8082 168.553C89.9981 169.144 93.1881 169.735 96.3736 170.352C97.0009 170.473 97.3029 170.282 97.5166 169.686C97.7999 168.89 97.7023 168.057 97.8969 167.255C99.2425 161.733 100.991 156.314 102.051 150.717C102.693 147.332 103.847 144.07 104.484 140.667C105.202 136.819 106.414 133.08 107.264 129.248C108.434 123.977 109.742 118.734 110.936 113.464C111.678 110.182 112.408 106.891 113.279 103.637L113.282 103.635Z" stroke="#7B34F4" stroke-width="2" mask="url(#path-1-outside-1_1478_12)"/>
<path d="M56.5 130C56.3764 128.507 55.2666 126.96 55 125.5C54.5074 125.599 54.5621 126.287 54.5036 126.518C52.3116 134.913 50.138 143.313 47.9414 151.707C47.2028 154.532 47.1873 154.489 44.3316 153.872C34.9965 151.849 25.6576 149.849 16.3139 147.867C15.5228 147.7 15.1348 147.402 14.9761 146.551C14.1385 142.073 13.4494 137.579 12.897 133.057C12.6874 131.344 13.1689 129.779 13.5458 128.194C15.6651 119.297 17.8603 110.418 19.9956 101.525C24.6815 82.0186 29.6449 62.5805 34.6356 43.1495C36.9891 33.9853 39.3335 24.8188 41.6756 15.6516C42.3163 13.1415 42.9781 10.6346 43.5589 8.11117C43.7365 7.33651 44.0423 7.20515 44.7751 7.36204C49.3477 8.34011 53.9294 9.284 58.51 10.2227C59.1006 10.3445 59.6254 10.5586 60.131 10.8823C64.4584 13.6679 68.7912 16.4427 73.1234 19.2198C73.5221 19.4762 73.8742 19.7154 74.0222 20.2372C76.0188 27.3002 78.4579 34.2411 80.0171 41.4251C80.6484 44.3344 81.1419 47.2755 81.6981 50.2015C81.6594 50.3571 81.5376 50.5687 81.8019 50.5946C81.926 50.6054 82.0046 50.4189 81.9115 50.2627C82.5561 48.5704 83.0649 46.8373 83.4654 45.0708C83.6869 44.315 83.9078 43.5615 84.1293 42.8058C85.4787 38.2961 86.8343 33.7904 88.1722 29.2777C88.9974 26.4946 89.8368 23.7128 90.5798 20.9079C90.8018 20.067 91.263 20.235 91.7907 20.3451C96.1733 21.2754 100.553 22.2149 104.935 23.1498C108.01 23.8056 111.082 24.4631 114.161 25.1053C114.603 25.1976 114.944 25.3389 115.22 25.7383C117.895 29.6211 120.58 33.4942 123.288 37.354C123.84 38.1386 124.013 38.8791 123.803 39.8597C121.539 50.4883 119.384 61.1407 117.092 71.7644C113.659 87.6839 110.015 103.558 106.206 119.39C103.7 129.809 101.205 140.228 98.699 150.646C97.4612 155.797 96.1886 160.941 94.985 166.102C94.7712 167.013 94.4442 167.151 93.5474 166.968C85.6913 165.364 77.7424 164.26 69.9023 162.578C68.0186 162.173 66.1563 161.669 64.2664 161.307C63.2021 161.102 62.7398 160.614 62.5086 159.519C60.6735 150.883 58.7608 142.262 56.8666 133.637C56.7832 133.259 56.6458 132.891 56.5337 132.52C56.4421 131.711 56.8347 130.749 56.5 130ZM71.9489 98.3593C71.8717 98.3462 71.7952 98.3309 71.718 98.3178C71.6513 97.9784 71.5772 97.6395 71.5208 97.2979C69.0738 82.1906 66.6091 67.0858 64.1902 51.9737C62.2286 39.7273 60.1562 27.5029 57.9053 15.3069C57.767 14.5634 57.535 14.1657 56.7052 14.0247C53.6443 13.5091 50.5924 12.9228 47.5481 12.3165C46.8101 12.1704 46.507 12.3561 46.3407 13.0972C45.814 15.4716 45.2586 17.8433 44.6491 20.1982C40.1411 37.6064 35.6393 55.0187 31.0902 72.416C26.2352 90.9905 21.5989 109.615 17.5797 128.391C17.3745 129.354 17.6102 129.599 18.4861 129.759C22.7012 130.528 26.9101 131.33 31.1123 132.166C31.755 132.295 32.0001 132.208 32.1398 131.531C32.5223 129.647 32.9562 127.772 33.4289 125.908C37.2412 110.876 41.0718 95.8486 44.8841 80.8165C46.2069 75.6025 47.488 70.38 48.8017 65.1637C48.8783 64.8645 48.7966 64.4431 49.2975 64.2755C49.4651 65.1023 49.6393 65.904 49.7906 66.7095C53.1562 84.6093 55.6386 102.654 58.7235 120.599C59.999 128.025 61.3922 135.431 62.9427 142.805C63.034 143.237 63.0199 143.716 63.6576 143.872C67.0163 144.702 70.3706 145.559 73.7149 146.444C74.5094 146.654 74.7954 146.412 75.0165 145.639C76.4349 140.656 77.9235 135.693 79.3647 130.715C83.6627 115.86 88.0538 101.031 92.5829 86.2446C95.5835 76.4516 98.5864 66.6593 101.644 56.8837C104.479 47.8198 107.372 38.7762 110.279 29.7361C110.542 28.9158 110.392 28.6496 109.577 28.4807C104.611 27.455 99.6491 26.4081 94.6964 25.3248C93.9596 25.1645 93.6389 25.2968 93.4411 26.0368C92.9859 27.7426 92.4507 29.4273 91.9498 31.121C89.1978 40.4164 86.4526 49.7137 83.6914 59.0067C81.1432 67.5856 78.5796 76.158 76.0205 84.7316C74.665 89.2738 73.3067 93.8177 71.9489 98.3593Z" fill="#7B34F4"/>
<path d="M110.448 113.352C109.906 115.748 109.336 118.155 108.766 120.563C108.671 120.962 108.577 121.36 108.483 121.758C108.53 121.501 108.575 121.243 108.617 120.986C108.845 119.575 109.19 118.191 109.553 116.792C109.593 116.634 109.635 116.476 109.676 116.318C109.998 115.078 110.324 113.821 110.576 112.544C110.637 112.232 110.695 111.923 110.753 111.615C110.929 110.671 111.102 109.746 111.366 108.834L111.366 108.834C112.03 106.542 112.55 104.195 113.067 101.866C113.35 100.59 113.631 99.3206 113.935 98.068C114.618 95.2465 115.238 92.4043 115.857 89.5682C116.097 88.4665 116.337 87.3657 116.581 86.2675C117.277 83.1344 117.966 79.9975 118.654 76.8625C118.787 76.2548 118.921 75.6472 119.054 75.0397L119.054 75.0396C119.274 74.0361 119.498 73.0318 119.722 72.0264C120.288 69.4813 120.856 66.93 121.372 64.3725L121.372 64.3721C121.806 62.2087 122.274 60.052 122.742 57.8914C122.774 57.7409 122.807 57.5904 122.84 57.4398C123.34 55.1295 123.839 52.8143 124.294 50.4899L124.294 50.4898C124.463 49.6283 124.648 48.7613 124.834 47.8895C125.267 45.8568 125.705 43.7978 125.961 41.7197L125.961 41.7195C125.974 41.6191 125.988 41.531 126.007 41.4548C126.027 41.3771 126.048 41.3317 126.063 41.3082C126.064 41.3061 126.065 41.3043 126.066 41.3029C126.078 41.3017 126.1 41.3014 126.136 41.3073C126.162 41.3115 126.18 41.3162 126.193 41.3202C126.194 41.3461 126.194 41.3878 126.186 41.4508C126.175 41.5344 126.156 41.6261 126.131 41.7392L126.131 41.7392C125.492 44.6532 124.911 47.5774 124.331 50.4958L124.267 50.8207C123.88 52.764 123.46 54.7263 123.04 56.6922C122.55 58.9842 122.059 61.2811 121.617 63.5587C121.224 65.5837 120.775 67.5805 120.325 69.5847C120.015 70.9658 119.703 72.3505 119.409 73.7505C118.939 75.9863 118.441 78.194 117.943 80.405C117.515 82.3019 117.087 84.2011 116.675 86.1227L116.675 86.1228C116.488 86.9974 116.283 87.8684 116.077 88.7438L116.033 88.9308C115.841 89.743 115.648 90.5594 115.468 91.379C115.025 93.3951 114.58 95.4117 114.136 97.4283L114.131 97.452C113.689 99.4559 113.248 101.46 112.807 103.463L112.796 103.505C111.997 106.489 111.317 109.501 110.641 112.497C110.577 112.782 110.513 113.067 110.448 113.352ZM110.448 113.352L110.936 113.462M110.448 113.352C110.448 113.352 110.448 113.352 110.448 113.352L110.936 113.462M110.936 113.462C111 113.178 111.065 112.893 111.129 112.608C111.805 109.611 112.483 106.608 113.279 103.634M110.936 113.462C110.39 115.874 109.82 118.281 109.25 120.687C108.575 123.538 107.9 126.388 107.265 129.246C106.904 130.872 106.477 132.483 106.051 134.093C105.474 136.273 104.898 138.451 104.485 140.664C104.164 142.385 103.709 144.07 103.255 145.753C102.812 147.398 102.368 149.042 102.051 150.714C101.381 154.245 100.439 157.705 99.4967 161.165C98.9454 163.189 98.394 165.214 97.8973 167.253C97.8127 167.601 97.7833 167.955 97.7539 168.31C97.7156 168.771 97.6773 169.233 97.517 169.683M113.279 103.634L77.8611 165.9C75.441 165.429 73.0363 164.884 70.6314 164.34C69.177 164.01 67.7225 163.681 66.2645 163.368M113.279 103.634L113.282 103.633L113.279 103.634ZM97.517 169.683L97.0463 169.515C97.0462 169.515 97.0461 169.515 97.046 169.515M97.517 169.683L97.046 169.515M97.517 169.683C97.3032 170.28 97.0036 170.472 96.374 170.349C93.1885 169.732 89.9986 169.141 86.8088 168.55C85.3285 168.276 83.8448 168.025 82.3611 167.773C79.6834 167.32 77.0058 166.866 74.3496 166.278C73.239 166.032 72.1236 165.807 71.008 165.582C69.3238 165.243 67.6393 164.903 65.9702 164.492M97.046 169.515C97.1643 169.183 97.2072 168.832 97.2422 168.427C97.2466 168.377 97.2509 168.325 97.2552 168.272C97.2842 167.921 97.3169 167.524 97.4114 167.135L97.4115 167.135C97.9153 165.067 98.47 163.031 99.0226 161.002C99.9605 157.559 100.893 154.137 101.56 150.621C101.881 148.93 102.328 147.271 102.77 145.631L102.788 145.567C103.237 143.9 103.68 142.252 103.993 140.573C104.356 138.629 104.842 136.717 105.342 134.821C105.417 134.534 105.493 134.248 105.569 133.963C105.995 132.353 106.418 130.753 106.777 129.137L106.777 129.137C106.983 128.21 107.194 127.282 107.407 126.353C107.321 126.678 107.235 127.002 107.148 127.325C106.884 128.314 106.622 129.296 106.385 130.271C105.978 131.951 105.577 133.635 105.176 135.321C104.343 138.822 103.508 142.329 102.613 145.818C102.343 146.869 102.11 147.921 101.875 148.981C101.739 149.596 101.602 150.213 101.457 150.835C100.885 153.29 100.252 155.706 99.6216 158.115C98.7269 161.531 97.8363 164.932 97.1293 168.408L97.1292 168.408C97.0327 168.88 96.8297 169.307 96.4069 169.524C96.0053 169.73 95.5463 169.671 95.1338 169.551L95.1337 169.551C94.0392 169.234 92.9123 169.043 91.7465 168.855L91.8262 168.361L91.7465 168.855C89.9632 168.567 88.1802 168.272 86.3986 167.967C86.5655 167.997 86.7326 168.028 86.8997 168.059L86.9029 168.059C90.0914 168.65 93.2822 169.241 96.469 169.858L96.4694 169.858C96.7327 169.91 96.819 169.872 96.8459 169.856C96.8775 169.837 96.9537 169.773 97.046 169.515ZM65.9702 164.492L66.0904 164.007C66.0902 164.007 66.09 164.007 66.0898 164.006M65.9702 164.492L66.0898 164.006M65.9702 164.492C65.8992 164.474 65.8224 164.457 65.7427 164.44C65.1504 164.308 64.3937 164.141 64.6092 163.431C64.7902 162.836 65.3245 163.037 65.8153 163.221C65.974 163.281 66.1283 163.339 66.2645 163.368M66.0898 164.006C67.7538 164.417 69.4145 164.751 71.0869 165.088C72.2037 165.313 73.3258 165.539 74.4576 165.789L74.4578 165.789C77.1035 166.375 79.7573 166.825 82.4255 167.277C82.728 167.328 83.0306 167.379 83.3334 167.431C81.4748 167.099 79.6183 166.754 77.7654 166.391C75.3401 165.918 72.9202 165.371 70.5086 164.825C69.0556 164.496 67.6057 164.167 66.1595 163.857L66.2645 163.368M66.0898 164.006C66.0121 163.987 65.9292 163.969 65.8508 163.952L65.8381 163.949C65.7534 163.93 65.6718 163.912 65.5915 163.892C65.4271 163.851 65.2942 163.809 65.1949 163.759C65.0988 163.712 65.075 163.678 65.0725 163.674C65.0723 163.673 65.072 163.672 65.0718 163.668C65.0712 163.659 65.0713 163.63 65.0876 163.576C65.0933 163.557 65.0985 163.543 65.1028 163.534C65.1229 163.534 65.1577 163.537 65.2119 163.548C65.3267 163.573 65.4589 163.621 65.6283 163.685L65.653 163.694C65.8 163.75 65.9864 163.82 66.161 163.857L66.2645 163.368M65.1148 163.512C65.1148 163.512 65.1141 163.513 65.1123 163.515C65.1139 163.513 65.1147 163.512 65.1148 163.512ZM126.057 41.3045C126.057 41.3045 126.057 41.3043 126.058 41.3041L126.057 41.3045Z" fill="#F0F0F0" stroke="#C0C0C0"/>
<path d="M55.8636 131.5C55.8816 131.427 55.8997 131.353 55.9177 131.28L55.9177 131.279C55.9385 131.194 55.9553 131.101 55.9687 131.026C55.9723 131.006 55.9757 130.988 55.9788 130.971C55.9958 130.88 56.0103 130.816 56.0285 130.764C56.0456 130.715 56.0615 130.69 56.0733 130.676C56.0824 130.666 56.0983 130.65 56.1348 130.634C56.3471 131.243 56.4661 131.875 56.5389 132.518C56.2057 132.683 56.1447 132.991 56.085 133.293C56.0693 133.373 56.0536 133.452 56.033 133.528C55.5274 135.425 55.0279 137.323 54.5285 139.221C54.2789 140.169 54.0293 141.117 53.7791 142.065C53.4459 143.327 53.1117 144.589 52.7775 145.852C51.8305 149.428 50.8834 153.004 49.9578 156.586C49.765 157.334 49.54 157.826 48.6379 157.561M55.8636 131.5C55.8443 131.417 55.8237 131.334 55.8016 131.251C55.8016 131.251 55.8015 131.251 55.8015 131.251C55.7382 131.014 55.6627 130.783 55.5724 130.556C55.5232 130.679 55.4988 130.814 55.4748 130.948C55.4617 131.02 55.4488 131.092 55.432 131.161C55.1872 132.162 54.9351 133.161 54.683 134.16C54.1789 136.158 53.6747 138.156 53.2287 140.172M55.8636 131.5C55.9228 131.758 55.9692 132.02 56.0062 132.288C55.8456 132.445 55.7508 132.63 55.6915 132.804C55.6495 132.928 55.6236 133.051 55.6041 133.148C55.6004 133.167 55.5969 133.184 55.5936 133.201C55.5779 133.28 55.5661 133.34 55.5504 133.398L55.5499 133.399C55.0441 135.297 54.5442 137.196 54.0447 139.094C53.9066 139.619 53.7686 140.144 53.6304 140.668C53.6595 140.539 53.6884 140.409 53.717 140.28M55.8636 131.5C55.6341 132.435 55.3995 133.364 55.1654 134.292C54.6624 136.285 54.1614 138.271 53.717 140.28M53.2287 140.172C52.4787 143.566 51.5611 146.922 50.6434 150.278C50.2564 151.694 49.8694 153.109 49.4949 154.528C49.3751 154.981 49.1928 155.404 48.9869 155.832M53.2287 140.172L53.717 140.28M53.2287 140.172L53.7169 140.28C53.7169 140.28 53.7169 140.28 53.717 140.28M48.9869 155.832C48.7245 156.382 48.4137 156.458 47.8703 156.315C47.0797 156.106 46.276 155.944 45.4741 155.782C44.9721 155.68 44.4709 155.579 43.9741 155.467C41.2197 154.842 38.4561 154.261 35.6931 153.68C33.4769 153.214 31.2611 152.749 29.0506 152.26C28.1465 152.06 27.2394 151.872 26.332 151.684C24.6685 151.338 23.0039 150.993 21.3554 150.575C20.7803 150.429 20.1915 150.319 19.6011 150.209C18.9976 150.096 18.3924 149.983 17.798 149.831C17.4869 149.751 17.1592 149.669 17.0136 150.082M48.9869 155.832L49.4376 156.049C49.4377 156.048 49.4378 156.048 49.4379 156.048M48.9869 155.832L49.4382 156.047C49.4381 156.047 49.438 156.048 49.4379 156.048M17.0136 150.082C16.8734 150.484 17.0225 150.779 17.4129 150.929C17.4464 150.941 17.4801 150.954 17.5141 150.967C17.7392 151.055 17.9742 151.146 18.2051 151.147M17.0136 150.082L17.4709 150.243L17.4852 150.248C17.4852 150.248 17.4853 150.248 17.4854 150.248C17.4933 150.225 17.4988 150.217 17.4988 150.217C17.4988 150.217 17.4944 150.224 17.4834 150.234C17.4798 150.237 17.4761 150.24 17.4725 150.242L17.0136 150.082ZM18.2051 151.147C19.5926 151.154 20.9223 151.502 22.244 151.848C22.7765 151.988 23.3077 152.127 23.8409 152.243M18.2051 151.147L18.2074 150.647C18.2076 150.647 18.2078 150.647 18.208 150.647M18.2051 151.147L18.2086 150.647C18.2084 150.647 18.2082 150.647 18.208 150.647M23.8409 152.243C25.7904 152.667 27.745 153.067 29.6994 153.467C32.7304 154.088 35.7607 154.708 38.7705 155.417M23.8409 152.243L23.9471 151.754C23.9472 151.754 23.9473 151.754 23.9474 151.754M23.8409 152.243L23.9474 151.754M38.7705 155.417C39.8172 155.663 40.8714 155.877 41.9259 156.091C43.8691 156.485 45.8127 156.88 47.7101 157.477M38.7705 155.417L38.8851 154.93C38.8851 154.93 38.8851 154.93 38.8851 154.93L38.7705 155.417ZM47.7101 157.477C47.8573 157.523 48.0184 157.522 48.1795 157.521C48.3366 157.519 48.4937 157.518 48.6379 157.561M47.7101 157.477L47.8602 157C47.8601 157 47.86 157 47.86 157L47.7101 157.477ZM48.6379 157.561L48.7804 157.082C48.7803 157.082 48.7801 157.082 48.78 157.081M48.6379 157.561L48.7788 157.081C48.7792 157.081 48.7796 157.081 48.78 157.081M48.78 157.081C49.1274 157.183 49.2022 157.108 49.218 157.092C49.2186 157.092 49.2191 157.091 49.2196 157.091C49.2939 157.02 49.3728 156.853 49.4736 156.461L49.4737 156.46C49.579 156.053 49.6845 155.646 49.7903 155.239C49.6849 155.519 49.5636 155.786 49.4379 156.048M48.78 157.081L23.9474 151.754M49.4379 156.048C49.2811 156.376 49.0633 156.663 48.7164 156.799C48.3848 156.929 48.0407 156.877 47.7427 156.798C46.9612 156.592 46.1883 156.436 45.4008 156.277C44.8964 156.175 44.386 156.072 43.8637 155.954L43.8635 155.954C41.1063 155.329 38.3548 154.751 35.5994 154.172C33.3847 153.706 31.1675 153.24 28.9428 152.749L28.9426 152.749C28.0523 152.552 27.1515 152.365 26.2467 152.177C24.5753 151.83 22.8903 151.48 21.2325 151.06C20.6729 150.918 20.0974 150.81 19.5016 150.699L19.4897 150.697C18.8951 150.585 18.2805 150.47 17.6741 150.315L17.6739 150.315C17.5927 150.294 17.5356 150.28 17.4848 150.272C17.4824 150.272 17.4801 150.271 17.4779 150.271C17.4647 150.315 17.4619 150.344 17.4619 150.361C17.462 150.37 17.463 150.376 17.4636 150.379C17.4642 150.382 17.4647 150.383 17.465 150.383C17.4653 150.384 17.4661 150.386 17.4684 150.389C17.4709 150.392 17.4756 150.397 17.4841 150.404C17.5016 150.418 17.5344 150.44 17.591 150.461C17.6283 150.476 17.6635 150.489 17.6968 150.502C17.935 150.593 18.0753 150.646 18.208 150.647M18.208 150.647C19.2369 150.652 20.2243 150.835 21.1724 151.06C21.5976 151.162 21.9982 151.267 22.3917 151.37C22.9091 151.506 23.4143 151.638 23.9474 151.754" stroke="#C0C0C0"/>
<path d="M76.9976 20.8079L77.1312 21.2898C77.135 21.2887 77.1383 21.2879 77.141 21.2873C77.1491 21.2954 77.1617 21.3101 77.178 21.3348C77.2584 21.4576 77.3172 21.6502 77.3768 21.8722L77.3768 21.8722L77.3774 21.8742C78.1037 24.5346 78.9136 27.1726 79.7209 29.8021C79.9245 30.4653 80.1279 31.128 80.3298 31.7903C81.3336 35.0834 82.3009 38.374 83.0727 41.7169L83.0728 41.7174C83.0892 41.7881 83.0985 41.8675 83.1123 41.9857L83.114 42.0004C83.1272 42.1137 83.1452 42.2643 83.1853 42.414C83.2267 42.5684 83.2965 42.7424 83.4268 42.9025C83.4632 42.9473 83.5028 42.9891 83.5456 43.0279L83.3254 43.7792C82.2258 38.5427 80.6805 33.435 79.0716 28.363C78.4024 26.2491 77.7805 24.1201 77.1574 21.9828L77.1574 21.9826C77.0856 21.7368 77.0427 21.5339 77.0553 21.3916C77.0579 21.3616 77.0627 21.3417 77.0667 21.3297C77.0687 21.3239 77.0704 21.3201 77.0715 21.318C77.0725 21.316 77.0731 21.3151 77.0732 21.315L77.0735 21.3147C77.0737 21.3145 77.075 21.3133 77.078 21.3114C77.0837 21.3077 77.0995 21.2986 77.1319 21.2896L76.9976 20.8079ZM76.9976 20.8079C77.5563 20.6531 77.7476 21.3253 77.8597 21.7425L76.6774 22.1227C76.5363 21.6393 76.3913 20.977 76.9976 20.8079Z" stroke="#C0C0C0"/>
<path d="M81.9166 50.2615C82.0091 50.42 81.9328 50.6071 81.807 50.5933C81.5405 50.5669 81.6652 50.3536 81.7032 50.2003C81.7758 50.2121 81.8482 50.2337 81.9166 50.2615Z" fill="#F0F0F0"/>
<path d="M71.9489 98.3591C73.3067 93.8175 74.6651 89.2736 76.0206 84.7314C78.5796 76.1578 81.1438 67.5831 83.6914 59.0065C86.4526 49.7135 89.1978 40.4163 91.9499 31.1208C92.4508 29.4271 92.9859 27.7425 93.4411 26.0367C93.6367 25.296 93.9574 25.1637 94.6964 25.3247C99.6485 26.4103 104.612 27.4548 109.577 28.4805C110.39 28.6488 110.542 28.9156 110.279 29.736C107.369 38.7754 104.476 47.8191 101.644 56.8835C98.5865 66.6591 95.5836 76.4515 92.5829 86.2444C88.0538 101.031 83.6628 115.859 79.3648 130.715C77.9235 135.692 76.4373 140.656 75.0166 145.639C74.7954 146.412 74.5095 146.654 73.7149 146.444C70.3701 145.561 67.0169 144.7 63.6577 143.872C63.0205 143.713 63.034 143.236 62.9427 142.805C61.39 135.43 59.9991 128.025 58.7236 120.599C55.6409 102.654 53.1562 84.6092 49.7906 66.7093C49.6394 65.9039 49.4652 65.1022 49.2976 64.2754C48.796 64.4453 48.8754 64.866 48.8018 65.1635C47.4858 70.3792 46.2047 75.6018 44.8842 80.8163C41.0718 95.8484 37.2413 110.876 33.4289 125.908C32.9562 127.772 32.5223 129.647 32.1399 131.531C32.0024 132.209 31.7579 132.293 31.1124 132.166C26.9096 131.332 22.7012 130.528 18.4862 129.759C17.6102 129.598 17.3745 129.353 17.5798 128.391C21.5989 109.615 26.2329 90.9898 31.0902 72.4159C35.6371 55.0179 40.1388 37.6056 44.6492 20.1981C45.2587 17.8431 45.814 15.4714 46.3407 13.0971C46.5042 12.3577 46.8078 12.1697 47.5482 12.3164C50.5947 12.9232 53.6444 13.509 56.7052 14.0245C57.5356 14.1633 57.7693 14.5639 57.9054 15.3067C60.1562 27.5027 62.2303 39.7301 64.1903 51.9736C66.6091 67.0857 69.0739 82.1904 71.5209 97.2978C71.5772 97.6393 71.652 97.976 71.7181 98.3177C71.7952 98.3307 71.8718 98.3461 71.9489 98.3591Z" fill="#FCFCFC"/>
</svg>
