<svg width="17" height="17" viewBox="0 0 17 17" fill="none" xmlns="http://www.w3.org/2000/svg">
<path d="M0.75 8.5C0.75 10.2328 0.843827 11.5741 1.07592 12.6184C1.30612 13.6543 1.66226 14.3514 2.15542 14.8446C2.64859 15.3377 3.34575 15.6939 4.38157 15.9241C5.4259 16.1562 6.76718 16.25 8.5 16.25C10.2328 16.25 11.5741 16.1562 12.6184 15.9241C13.6543 15.6939 14.3514 15.3377 14.8446 14.8446C15.3377 14.3514 15.6939 13.6543 15.9241 12.6184C16.1562 11.5741 16.25 10.2328 16.25 8.5C16.25 6.76718 16.1562 5.4259 15.9241 4.38157C15.6939 3.34575 15.3377 2.64859 14.8446 2.15542C14.3514 1.66226 13.6543 1.30612 12.6184 1.07592C11.5741 0.843828 10.2328 0.75 8.5 0.75C6.76718 0.75 5.4259 0.843828 4.38157 1.07592C3.34575 1.30612 2.64859 1.66226 2.15542 2.15542C1.66226 2.64859 1.30612 3.34575 1.07592 4.38157C0.843827 5.4259 0.75 6.76718 0.75 8.5Z" stroke="#FF1414" stroke-width="1.5" stroke-linecap="round" stroke-linejoin="round"/>
<path fill-rule="evenodd" clip-rule="evenodd" d="M9.25 5.66675C9.25 5.25253 8.91421 4.91675 8.5 4.91675C8.08579 4.91675 7.75 5.25253 7.75 5.66675V9.91675C7.75 10.331 8.08579 10.6667 8.5 10.6667C8.91421 10.6667 9.25 10.331 9.25 9.91675V5.66675ZM8.54167 11.3334C8.12745 11.3334 7.79167 11.6692 7.79167 12.0834C7.79167 12.4976 8.12745 12.8334 8.54167 12.8334C8.95588 12.8334 9.29167 12.4976 9.29167 12.0834C9.29167 11.6692 8.95588 11.3334 8.54167 11.3334Z" fill="#FF1414"/>
</svg>
