<svg width="327" height="98" viewBox="0 0 327 98" fill="none" xmlns="http://www.w3.org/2000/svg">
<path d="M324.665 40.7356C323.129 42.6076 321.539 44.4246 319.911 46.2176C314.861 51.6565 309.26 56.564 303.519 61.2656C280.266 80.7279 250.39 90.7153 220.5 94.1792C197.369 96.4822 169.776 96.4367 150.217 82.3175C159 75.9689 166.698 67.4251 170.265 57.0907C173.887 47.867 169.976 35.7515 158.304 37.2046C147.749 38.7654 140.247 48.6737 138.056 58.5581C136.076 67.0875 139.479 76.1221 145.817 82.0183C133.34 89.8535 117.449 92.4891 103.303 87.9072C91.101 83.852 79.5707 76.6488 71.932 66.197C83.785 58.6036 95.3129 49.6026 103.055 37.7217C111.315 24.639 101.047 18.3144 89.6634 26.7505C93.2997 20.7825 97.0059 13.9264 95.862 6.72555C94.9084 0.218954 87.5129 -1.77276 82.4172 1.65768C76.6544 5.24134 73.1336 11.3577 69.7285 17.0217C60.8279 31.4066 59.1036 50.5841 68.1102 65.3256C51.1591 75.5212 25.5746 80.2204 6.19601 75.8516C4.47658 75.8276 1.06179 73.326 0.0840662 75.3728C-0.1712 76.0383 0.173169 76.869 0.869131 77.106C21.5602 83.9932 51.1687 78.7003 69.6033 67.5759C77.4082 78.4178 89.2708 85.9371 101.825 90.2532C117.126 95.4647 134.446 92.5586 147.9 83.8975C161.531 94.6436 179.758 97.2075 196.654 97.9903C231.37 98.3231 267.218 90.1072 296.032 70.3001C303.873 64.8229 311.184 58.594 318.064 51.9677C321.123 49.0137 323.947 45.8322 326.647 42.5549C327.146 42.0187 327.112 41.1497 326.572 40.6566C326.057 40.1826 325.127 40.161 324.663 40.7308L324.665 40.7356ZM71.6623 19.078C75.3636 13.1388 81.9668 0.175864 90.5496 3.20653C90.5231 3.20653 90.6531 3.28074 90.7856 3.35256C91.0192 3.50337 91.2407 3.66855 91.4502 3.84809C91.927 4.32209 92.2907 4.78889 92.635 5.48312C95.5899 14.6398 88.3485 23.399 83.8332 30.8344C81.7356 33.6544 78.1956 35.4475 76.6953 38.7463C76.2715 39.7469 77.2637 40.6805 78.2462 40.6518C79.8717 40.3286 80.9963 38.8157 82.1089 37.6905C84.2666 34.8322 86.4099 32.0984 89.4924 30.1522C92.7073 27.7439 102.181 21.7616 103.349 28.8044C102.094 41.7051 80.9578 57.287 70.4485 63.942C62.0681 50.3064 63.6021 32.503 71.6598 19.0756L71.6623 19.078ZM140.505 60.1477C142.118 51.3477 148.172 42.5238 157.186 40.1227C167.346 37.76 170.771 47.5917 167.874 55.6998C164.502 65.9361 156.825 74.3267 148.131 80.4981C142.494 75.4303 139.139 67.7171 140.505 60.1477Z" fill="black"/>
</svg>
