<?xml version="1.0" encoding="utf-8"?>
<!-- Generator: Adobe Illustrator 28.0.0, SVG Export Plug-In . SVG Version: 6.00 Build 0)  -->
<svg version="1.1" id="Capa_1" xmlns="http://www.w3.org/2000/svg" xmlns:xlink="http://www.w3.org/1999/xlink" x="0px" y="0px"
	 viewBox="0 0 310 234" style="enable-background:new 0 0 310 234;" xml:space="preserve">
<style type="text/css">
	.st0{fill:#FFFFFF;}
	.st1{fill:#FFFFFF;stroke:#262626;stroke-width:0.6;stroke-miterlimit:10;}
	.st2{fill:#0C0A0A;}
	.st3{fill:#CECECE;}
	.st4{fill:#252525;}
</style>
<path class="st0" d="M170.9,223.1c-9.1-3-17.7-6.5-25.5-11.8c-4.7-3.3-9-7-12.1-11.8c-0.8-1.1-1.5-1.3-2.8-0.9
	c-8.3,2.7-16.8,2.4-25.2,0.7c-9.6-1.9-18.8-5-27.8-8.6c-14.8-5.9-28.8-13.3-41.3-23.2c-7.4-5.9-14.2-12.4-19.5-20.3
	C7.4,133.8,2,119,1,102.6C0.5,94.2,1.2,86,4,78.1c2.2-6.3,6-11.4,13-12.6c3.4-0.6,4.9-2,6-4.9c1.5-3.6,4.2-6.2,7.8-7.7
	c4.6-2,9.2-1.4,13.6,0.6c2.5,1.1,4.7,2.7,6.6,4.6c1.9,1.9,4.5,1.7,6.8,2c6.2,1,12.3,2.2,18.2,4.5c1.6,0.6,1.8,0.2,1.6-1.3
	c-0.4-5.1,0-10.1,0.5-15.2c0.5-5.2,1.8-10.2,3.8-15C86.1,22.6,92.7,14,102.6,8c9.7-5.8,20.1-8.4,31.3-7.6c7.6,0.5,14.7,2.7,21.4,6.1
	c4.2,2.2,8.2,4.8,11.9,7.8c1,0.8,1.6,0.7,2.4-0.2c6.3-7.3,16.9-8.5,24.8-2.6c1.8,1.3,3.7,1.1,5.5,1.2c9.2,0.9,15.8,8.3,16.5,17
	c0.2,2.4,0.3,2.3,2.7,2.3c19.2,0,35.6,6.3,47.3,22.3c7.9,10.8,11.2,23,9.4,36.4c-1.8,13.3-7.5,24.8-16.2,34.9
	c-0.2,0.3-0.5,0.6-0.7,0.8c-0.7,0.7-0.5,1.1,0.4,1.4c3.3,1.1,6.5,2.6,9.7,4c4.1,1.8,8,3.9,11.8,6.2c1.1,0.7,2.1,0.7,3.3,0.6
	c5.8-0.7,11.1,0.4,15.8,4.2c4.2,3.4,6.5,9.8,4.6,15c-1,2.9-1.1,4.8,1.4,7.2c4,3.9,4.7,9.1,3.5,14.5c-2.2,9.6-7.5,17.5-13.8,24.7
	c-15.9,18-36.1,27.4-60,29.1c-13.2,0.9-26.1-0.6-39-3.1C187.8,228.3,179.1,226.1,170.9,223.1L170.9,223.1z M138.5,182
	c2.4,7,5.9,13,11.5,17.6c3.8,3.1,7.9,5.5,12.3,7.6c9.7,4.6,19.8,7.6,30.2,10c13.5,3.1,27.2,5,41.1,4.2c25.7-1.5,45.8-12.8,60-34.4
	c2-3,3.7-6.1,4.5-9.6c0.7-2.9-0.7-4.5-3.7-4.2c-1.1,0.1-2.2,0.3-3.2,0.6c-0.9,0.2-1.2,0-1.2-0.9c-0.2-2.8-1.7-4.7-4.1-6.1
	c0.8-0.8,1.5-1.5,2.2-2.2c2.2-2.2,3.8-4.8,4.7-7.9c1.1-3.7-0.4-5.6-4.1-5.4c-6.4,0.5-12.2-1.2-17.6-4.4
	c-13.8-8.1-28.4-11.9-44.5-9.7c-0.6,0.1-1.2,0.2-1.8-0.3c0.2-0.1,0.4-0.2,0.6-0.3c11.1-6.1,21.1-13.5,28.8-23.6
	c6.8-8.9,10.9-19,10.2-30.4c-0.9-14.8-8.5-25.7-21.6-32.5c-11.3-5.9-23.3-7.5-35.3-2.4c-10.4,4.4-17.7,11.9-19.1,23.6
	c-1,8.5-4.8,15.2-11.6,20.3c-0.8,0.6-1.6,1.3-2.2,2.2c-0.9,1.3-0.8,2.7-0.1,4.1c0.6,1.3,1.8,1.7,3.2,1.7c1-0.1,1.9-0.1,2.9-0.3
	c8-1.4,15.3-4.4,21.9-9.2c0.9-0.7,1.7-0.8,2.8-0.6c11,1.8,22.1-5.8,24.3-16.6c0.5-2.3,0.8-2.5,3.1-2.4c4.9,0.2,9.3,4,10.7,9.2
	c1.6,5.8,0,11.1-2.6,16.2c-4.1,7.9-10.5,13.6-17.9,18.3c-9.2,5.8-19.2,9.6-29.4,13.1c-7.3,2.5-14.7,4.8-21.8,7.9
	c-7.8,3.3-14.9,7.7-20.9,14c-0.7-4.3-1.6-8.3-2.9-12.2c-3.3-9.6-8.8-17.9-14.3-26.1c-6-8.9-12.1-17.8-16.7-27.6
	c-4-8.7-6.9-17.7-6.3-27.4c0.4-6.7,2.1-12.9,7.1-17.8c3.7-3.7,9.2-4.8,13.7-2.8c3.1,1.3,3.4,2.1,2.2,5.1c-4.1,10.3-0.4,21.9,9,27.5
	c1.3,0.8,2,1.7,2.4,3.1c2.5,8.1,6.7,15.1,12.6,21.1c1.2,1.3,2.6,2,4.4,1.1c1.8-0.9,2.3-2.4,2.1-4.2c-0.2-1.5-0.5-3-0.8-4.4
	c-1.3-7-0.5-13.7,3.4-19.9c0.9-1.4,1.9-2.8,2.4-4.5c3.5-10.1,2.4-19.8-3.5-28.8c-10.3-15.7-32.7-22.8-50.3-15.7
	C99.4,21.8,91.8,34.2,90,50.4c-1.5,12.9,1.6,25.1,6.1,37c0.5,1.3,1,2.6,1.6,3.9c0.1,0.4,0.1,0.8-0.2,1c-0.3,0.2-0.5-0.2-0.7-0.4
	c-1.2-1.1-2.4-2.2-3.6-3.3C82.7,79.7,70.5,74.7,57.1,73c-6.8-0.9-13-3.1-18.1-7.9c-2.2-2.1-4.5-1.5-5.8,1.3C31.3,70,31,74,31.8,78
	c0.1,0.6,0.5,1.2-0.6,1.1c-2.6-0.2-4.6,0.8-6.2,2.7c-0.7,0.8-1,0.4-1.5-0.2c-0.7-0.9-1.4-1.8-2.2-2.6c-2.1-2-4.1-1.7-5.4,0.9
	c-0.5,1.1-1,2.2-1.3,3.4c-1.7,6.2-2.2,12.6-1.7,19c1.9,21.7,11.1,39.8,27.9,53.6c18.8,15.4,40.3,25.5,63.8,31.1
	c7.2,1.8,14.5,2.4,21.9,0.5C130.9,186.5,134.8,184.6,138.5,182L138.5,182z M175.5,27c-0.6,1.5-0.5,3.9,0.1,6.3
	c1.4,5.4,4,10.2,7.5,14.5c0.6,0.7,1.1,0.9,2,0.6c5-1.1,9.6-3.1,13.9-6.1c1.5-1,2.7-2.2,3.8-3.6c2.5-3.4,2.6-7.7,0.2-10.8
	c-2.1-2.8-5.9-4.1-9.2-2.7c-1.8,0.7-2.3,0.2-3.2-1.1c-1.8-2.8-4.6-4.1-7.9-3.7C179.2,20.9,177,22.9,175.5,27z"/>
<path class="st1" d="M170.9,223.1c-9.1-3-17.7-6.5-25.5-11.8c-4.7-3.3-9-7-12.1-11.8c-0.8-1.1-1.5-1.3-2.8-0.9
	c-8.3,2.7-16.8,2.4-25.2,0.7c-9.6-1.9-18.8-5-27.8-8.6c-14.8-5.9-28.8-13.3-41.3-23.2c-7.4-5.9-14.2-12.4-19.5-20.3
	C7.4,133.8,2,119,1,102.6C0.5,94.2,1.2,86,4,78.1c2.2-6.3,6-11.4,13-12.6c3.4-0.6,4.9-2,6-4.9c1.5-3.6,4.2-6.2,7.8-7.7
	c4.6-2,9.2-1.4,13.6,0.6c2.5,1.1,4.7,2.7,6.6,4.6c1.9,1.9,4.5,1.7,6.8,2c6.2,1,12.3,2.2,18.2,4.5c1.6,0.6,1.8,0.2,1.6-1.3
	c-0.4-5.1,0-10.1,0.5-15.2c0.5-5.2,1.8-10.2,3.8-15C86.1,22.6,92.7,14,102.6,8c9.7-5.8,20.1-8.4,31.3-7.6c7.6,0.5,14.7,2.7,21.4,6.1
	c4.2,2.2,8.2,4.8,11.9,7.8c1,0.8,1.6,0.7,2.4-0.2c6.3-7.3,16.9-8.5,24.8-2.6c1.8,1.3,3.7,1.1,5.5,1.2c9.2,0.9,15.8,8.3,16.5,17
	c0.2,2.4,0.3,2.3,2.7,2.3c19.2,0,35.6,6.3,47.3,22.3c7.9,10.8,11.2,23,9.4,36.4c-1.8,13.3-7.5,24.8-16.2,34.9
	c-0.2,0.3-0.5,0.6-0.7,0.8c-0.7,0.7-0.5,1.1,0.4,1.4c3.3,1.1,6.5,2.6,9.7,4c4.1,1.8,8,3.9,11.8,6.2c1.1,0.7,2.1,0.7,3.3,0.6
	c5.8-0.7,11.1,0.4,15.8,4.2c4.2,3.4,6.5,9.8,4.6,15c-1,2.9-1.1,4.8,1.4,7.2c4,3.9,4.7,9.1,3.5,14.5c-2.2,9.6-7.5,17.5-13.8,24.7
	c-15.9,18-36.1,27.4-60,29.1c-13.2,0.9-26.1-0.6-39-3.1C187.8,228.3,179.1,226.1,170.9,223.1L170.9,223.1z M138.5,182
	c2.4,7,5.9,13,11.5,17.6c3.8,3.1,7.9,5.5,12.3,7.6c9.7,4.6,19.8,7.6,30.2,10c13.5,3.1,27.2,5,41.1,4.2c25.7-1.5,45.8-12.8,60-34.4
	c2-3,3.7-6.1,4.5-9.6c0.7-2.9-0.7-4.5-3.7-4.2c-1.1,0.1-2.2,0.3-3.2,0.6c-0.9,0.2-1.2,0-1.2-0.9c-0.2-2.8-1.7-4.7-4.1-6.1
	c0.8-0.8,1.5-1.5,2.2-2.2c2.2-2.2,3.8-4.8,4.7-7.9c1.1-3.7-0.4-5.6-4.1-5.4c-6.4,0.5-12.2-1.2-17.6-4.4
	c-13.8-8.1-28.4-11.9-44.5-9.7c-0.6,0.1-1.2,0.2-1.8-0.3c0.2-0.1,0.4-0.2,0.6-0.3c11.1-6.1,21.1-13.5,28.8-23.6
	c6.8-8.9,10.9-19,10.2-30.4c-0.9-14.8-8.5-25.7-21.6-32.5c-11.3-5.9-23.3-7.5-35.3-2.4c-10.4,4.4-17.7,11.9-19.1,23.6
	c-1,8.5-4.8,15.2-11.6,20.3c-0.8,0.6-1.6,1.3-2.2,2.2c-0.9,1.3-0.8,2.7-0.1,4.1c0.6,1.3,1.8,1.7,3.2,1.7c1-0.1,1.9-0.1,2.9-0.3
	c8-1.4,15.3-4.4,21.9-9.2c0.9-0.7,1.7-0.8,2.8-0.6c11,1.8,22.1-5.8,24.3-16.6c0.5-2.3,0.8-2.5,3.1-2.4c4.9,0.2,9.3,4,10.7,9.2
	c1.6,5.8,0,11.1-2.6,16.2c-4.1,7.9-10.5,13.6-17.9,18.3c-9.2,5.8-19.2,9.6-29.4,13.1c-7.3,2.5-14.7,4.8-21.8,7.9
	c-7.8,3.3-14.9,7.7-20.9,14c-0.7-4.3-1.6-8.3-2.9-12.2c-3.3-9.6-8.8-17.9-14.3-26.1c-6-8.9-12.1-17.8-16.7-27.6
	c-4-8.7-6.9-17.7-6.3-27.4c0.4-6.7,2.1-12.9,7.1-17.8c3.7-3.7,9.2-4.8,13.7-2.8c3.1,1.3,3.4,2.1,2.2,5.1c-4.1,10.3-0.4,21.9,9,27.5
	c1.3,0.8,2,1.7,2.4,3.1c2.5,8.1,6.7,15.1,12.6,21.1c1.2,1.3,2.6,2,4.4,1.1c1.8-0.9,2.3-2.4,2.1-4.2c-0.2-1.5-0.5-3-0.8-4.4
	c-1.3-7-0.5-13.7,3.4-19.9c0.9-1.4,1.9-2.8,2.4-4.5c3.5-10.1,2.4-19.8-3.5-28.8c-10.3-15.7-32.7-22.8-50.3-15.7
	C99.4,21.8,91.8,34.2,90,50.4c-1.5,12.9,1.6,25.1,6.1,37c0.5,1.3,1,2.6,1.6,3.9c0.1,0.4,0.1,0.8-0.2,1c-0.3,0.2-0.5-0.2-0.7-0.4
	c-1.2-1.1-2.4-2.2-3.6-3.3C82.7,79.7,70.5,74.7,57.1,73c-6.8-0.9-13-3.1-18.1-7.9c-2.2-2.1-4.5-1.5-5.8,1.3C31.3,70,31,74,31.8,78
	c0.1,0.6,0.5,1.2-0.6,1.1c-2.6-0.2-4.6,0.8-6.2,2.7c-0.7,0.8-1,0.4-1.5-0.2c-0.7-0.9-1.4-1.8-2.2-2.6c-2.1-2-4.1-1.7-5.4,0.9
	c-0.5,1.1-1,2.2-1.3,3.4c-1.7,6.2-2.2,12.6-1.7,19c1.9,21.7,11.1,39.8,27.9,53.6c18.8,15.4,40.3,25.5,63.8,31.1
	c7.2,1.8,14.5,2.4,21.9,0.5C130.9,186.5,134.8,184.6,138.5,182L138.5,182z M175.5,27c-0.6,1.5-0.5,3.9,0.1,6.3
	c1.4,5.4,4,10.2,7.5,14.5c0.6,0.7,1.1,0.9,2,0.6c5-1.1,9.6-3.1,13.9-6.1c1.5-1,2.7-2.2,3.8-3.6c2.5-3.4,2.6-7.7,0.2-10.8
	c-2.1-2.8-5.9-4.1-9.2-2.7c-1.8,0.7-2.3,0.2-3.2-1.1c-1.8-2.8-4.6-4.1-7.9-3.7C179.2,20.9,177,22.9,175.5,27z"/>
<path class="st2" d="M138.5,182c-3.7,2.6-7.6,4.5-12,5.6c-7.3,1.9-14.7,1.3-21.9-0.5c-23.5-5.7-45-15.8-63.8-31.1
	c-16.9-13.8-26.1-31.9-27.9-53.6c-0.5-6.4,0-12.8,1.7-19c0.3-1.2,0.7-2.3,1.3-3.4c1.3-2.6,3.3-2.9,5.4-0.9c0.8,0.8,1.5,1.7,2.2,2.6
	c0.5,0.6,0.8,1,1.5,0.2c1.6-1.9,3.7-3,6.2-2.7c1.2,0.1,0.7-0.5,0.6-1.1c-0.8-4-0.5-8,1.3-11.7c1.4-2.8,3.6-3.3,5.8-1.3
	c5.1,4.8,11.3,7,18.1,7.9c13.5,1.8,25.6,6.7,36.1,15.6c1.2,1.1,2.4,2.2,3.6,3.3c0.2,0.2,0.3,0.6,0.7,0.4c0.3-0.2,0.4-0.6,0.2-1
	c-0.5-1.3-1.1-2.6-1.6-3.9c-4.5-11.9-7.6-24.1-6.1-37c1.8-16.2,9.4-28.6,25.1-34.8c17.6-7,40,0,50.3,15.7c5.9,9,6.9,18.6,3.5,28.8
	c-0.6,1.6-1.5,3-2.4,4.5c-3.9,6.2-4.7,12.8-3.4,19.9c0.3,1.5,0.7,3,0.8,4.4c0.2,1.8-0.4,3.3-2.1,4.2c-1.8,0.9-3.1,0.1-4.4-1.1
	c-5.9-6-10.1-13.1-12.6-21.1c-0.4-1.4-1.1-2.3-2.4-3.1c-9.4-5.7-13.1-17.3-9-27.5c1.2-3,0.9-3.8-2.2-5.1c-4.6-1.9-10-0.9-13.7,2.8
	c-4.9,4.9-6.6,11.1-7.1,17.8c-0.6,9.7,2.2,18.7,6.3,27.4c4.6,9.8,10.7,18.6,16.7,27.6c5.6,8.3,11.1,16.6,14.3,26.1
	c1.3,3.9,2.2,7.9,2.9,12.2c6.1-6.3,13.2-10.7,20.9-14c7.1-3.1,14.5-5.4,21.8-7.9c10.2-3.5,20.3-7.3,29.4-13.1
	c7.4-4.7,13.8-10.4,17.9-18.3c2.7-5.1,4.2-10.4,2.6-16.2c-1.4-5.2-5.8-8.9-10.7-9.2c-2.4-0.1-2.7,0.1-3.1,2.4
	C227,83.7,216,91.3,205,89.4c-1.1-0.2-1.9,0-2.8,0.6c-6.5,4.8-13.9,7.8-21.9,9.2c-0.9,0.2-1.9,0.2-2.9,0.3c-1.4,0.1-2.5-0.4-3.2-1.7
	c-0.7-1.4-0.7-2.8,0.1-4.1c0.6-0.9,1.3-1.6,2.2-2.2c6.8-5.1,10.6-11.8,11.6-20.3c1.4-11.7,8.6-19.2,19.1-23.6
	c12.1-5.1,24-3.6,35.3,2.4c13.1,6.8,20.7,17.7,21.6,32.5c0.7,11.4-3.4,21.5-10.2,30.4c-7.7,10.1-17.7,17.6-28.8,23.6
	c-0.2,0.1-0.4,0.2-0.6,0.3c0.6,0.5,1.2,0.4,1.8,0.3c16-2.2,30.7,1.7,44.5,9.7c5.5,3.2,11.2,4.9,17.6,4.4c3.7-0.3,5.1,1.7,4.1,5.4
	c-0.9,3-2.5,5.6-4.7,7.9c-0.7,0.7-1.4,1.4-2.2,2.2c2.4,1.4,3.9,3.4,4.1,6.1c0.1,0.9,0.4,1.1,1.2,0.9c1-0.3,2.1-0.5,3.2-0.6
	c2.9-0.3,4.4,1.4,3.7,4.2c-0.9,3.5-2.6,6.7-4.5,9.6c-14.2,21.5-34.3,32.9-60,34.4c-13.9,0.8-27.6-1.1-41.1-4.2
	c-10.4-2.4-20.6-5.4-30.2-10c-4.4-2.1-8.6-4.4-12.3-7.6C144.4,195,140.8,189,138.5,182L138.5,182z M91,179.5
	c1.8,0.6,3.6,1.3,5.5,1.9c7.3,2.1,14.6,4.2,22.2,3.9c12.6-0.4,22.9-6.6,26.8-20.3c2.9-10.3,1.9-20.2-2.1-30
	c-3.4-8.3-8.3-15.7-13.3-23c-6.4-9.4-12.8-18.8-17.3-29.3c-3.9-9.2-6.7-18.7-5.6-28.9c0.7-6.5,2.5-12.6,7.1-17.5
	c5.6-6.1,13.9-7.4,20.4-3.3c3,1.9,4.2,3.7,2.4,7.5c-4,8.4-1.2,18.6,6,23.6c0.6,0.4,1.3,0.9,2.1,0.9c6.2-0.3,10.4-7.7,7.4-13.2
	c-0.6-1.1-1.3-2.2-1.4-3.5c-0.1-1.4,0.1-2.9,1.8-3.3c1.6-0.4,2.6,0.7,3.2,2c0.6,1.4,0.7,2.9,0.9,4.4c0.6,3.7,2.8,6.4,5.8,8.4
	c1.7,1.1,2.2,0.8,2.9-1.1c1.9-5.5,2-11.2,0.4-16.8c-2.6-9.3-8.7-15.9-17.1-20.4c-10.7-5.7-21.8-7.2-33.2-2.6
	c-13.2,5.3-20,15.6-22.3,29.3C92,58.9,93.8,69.3,97,79.6c3,9.7,7.1,18.9,11.7,27.9c3.2,6.4,6.1,12.9,7.2,20
	c0.5,3.4,0.9,6.8,0.5,10.3c-0.1,1.2-0.8,2-2,1.9s-1.4-1.1-1.4-2.2c0-2.6,0.1-5.2-0.3-7.8c-1.9-12.4-7.3-23.1-15.6-32.3
	C86,85,72,78.2,55.6,76.2c-6.9-0.8-13.2-3-18.1-8.1c-0.8-0.9-1.2-0.7-1.6,0.4c-1.2,3.3-1.2,6.6-0.4,10c0.4,1.6,0.8,3.1,1.5,4.7
	c0.4,0.9,0.8,2-0.4,2.7c-1.2,0.8-2,0.1-2.8-0.7c-0.5-0.5-0.9-1-1.3-1.5c-1.3-1.3-2.8-1.4-4.2-0.3c-0.6,0.5-1.2,1.2-1.6,1.9
	c-1,1.6-1.9,1.8-3.4,0.7c-1.2-0.9-2.2-2-3.3-3.1c-1.1-1.2-1.6-0.8-1.9,0.6c-1,4.1-1.7,8.3-1.7,12.5c0.1,22.5,8.3,41.5,25.5,56.2
	C56.3,164.7,73.2,173,91,179.5L91,179.5z M177,209.2c16.2,5.3,33.1,8.6,50.5,8.9c24.8,0.4,45.1-8.7,60.3-28.4
	c2.7-3.5,4.9-7.3,6.6-11.4c0.4-1,0.4-1.5-0.9-1.2c-1.1,0.2-2.1,0.3-3.2,0.5c-3.6,0.4-3.7,0.2-3.6-3.3c0.1-3.1-1-4.2-4.1-4
	c-0.5,0-1,0.1-1.4,0.1c-1.2,0.1-2.4,0.2-2.8-1.2c-0.4-1.3,0.7-1.8,1.6-2.3c1-0.7,2-1.3,3-2c3-2.1,5.3-4.7,6.6-8.2
	c0.5-1.4,0.4-1.9-1.3-1.8c-5.7,0.4-11.1-0.7-16.1-3.4c-3-1.6-5.9-3.4-8.9-4.8c-23.8-10.9-46.3-8-67.5,6.8c-3.5,2.4-6.5,5.6-9,9.1
	c-0.6,0.9-1.4,1.9-2.7,1c-1.1-0.8-0.8-1.9-0.1-2.9c0.4-0.7,0.9-1.3,1.4-1.9c5.5-6.9,12.6-11.6,20.4-15.3c9.5-4.5,18.8-9.4,27.5-15.4
	c10.1-6.9,18.8-15.2,24.3-26.6c7.1-14.8,4.5-31.5-7.1-42.2c-9.3-8.5-20.5-12.4-33-10.7c-11.5,1.5-20.1,7.6-24.6,18.7
	c-1,2.4-0.5,3.1,2.2,3.2c3.9,0.2,7.3-0.8,10-3.8c0.9-1,1.9-2,3.3-2.4c1.2-0.4,2.5-0.2,3.3,0.9c0.7,1.1,0.3,2.2-0.4,3.2
	c-0.8,1.1-2,1.7-3.2,2c-5.1,1.2-7,7.9-4.8,12.3c1.7,3.3,2.3,3.7,6,3.6c8.9-0.4,15.5-6.4,17.6-15.8c0.6-2.6,1-3.1,3.7-3.4
	c5.7-0.7,10.4,1.4,13.8,5.9c4.2,5.6,4.1,11.8,2.3,18.2c-2.5,8.6-7.9,15.1-14.7,20.6c-8.7,7.1-18.7,11.7-29.1,15.6
	c-9.2,3.5-18.7,6.2-27.8,9.9c-8.4,3.5-16.2,7.9-22.4,14.7c-0.9,1-1.7,2-1.8,3.5c-0.4,8.6-3,16.3-8.5,23.1c-0.5,0.6-0.6,1.2-0.3,2
	c2.2,7.1,6,13,12,17.4C160.7,203.2,168.6,206.2,177,209.2L177,209.2z M189.1,82.6c1-0.1,1.7-0.5,2.4-1c0.6-0.5,1.2-1,1.9-1.4
	c0.6-0.4,1.1-0.2,1.6,0.4c0.3,0.4,0.5,0.8,0,1.2c-1.8,1.4-3.5,2.9-5.9,2.7c-1-0.1-1.5,0.3-2.1,1c-2.2,3.1-5,5.7-7.9,8.2
	c-0.5,0.4-0.9,0.8-1.3,1.2c-0.5,0.6-0.4,1,0.4,1c0.9,0,1.8-0.1,2.7-0.2c5.1-1,10-2.8,14.6-5.2c1.8-1,3.5-2.2,5.1-3.5
	c0.6-0.5,1-1,0.4-1.8c-1.8-2.5-2.6-5.4-2.8-8.5c-0.1-1-0.4-1.2-1.3-1c-1.7,0.3-3.4,0.5-4.9-0.4c-0.6-0.3-0.8,0-0.8,0.4
	C190.9,78.2,189.9,80.3,189.1,82.6z M159.7,72.7c0.4-2.5,0.8-4.7,2.1-6.7c0.3-0.4,0.6-0.9-0.2-1c-1.9-0.3-3.1-1.5-4.1-3
	c-0.5-0.7-0.9-0.8-1.5-0.1c-2,2.4-4.4,4.2-7.4,5.2c-0.8,0.3-1,0.5-0.8,1.4c2.1,7.7,5.9,14.3,11.1,20.3c0.4,0.4,0.9,1.1,1.5,0.8
	c0.8-0.4,0.4-1.2,0.2-1.8c-0.8-3.9-1.3-7.8-1.2-11.8c0-0.7-0.2-1.2-0.7-1.7c-1.7-1.5-2.5-3.5-3-5.7c-0.1-0.5-0.4-1.2,0.3-1.4
	c0.7-0.2,1.4-0.1,1.7,0.6c0.3,0.5,0.4,1.1,0.6,1.7C158.5,70.6,158.7,71.7,159.7,72.7L159.7,72.7z"/>
<path class="st2" d="M175.5,27c1.5-4.1,3.8-6.2,7.2-6.6c3.3-0.5,6.1,0.9,7.9,3.7c0.9,1.4,1.5,1.9,3.2,1.1c3.3-1.4,7.1-0.1,9.2,2.7
	c2.3,3.1,2.2,7.4-0.2,10.8c-1,1.4-2.3,2.6-3.8,3.6c-4.2,2.9-8.9,4.9-13.9,6.1c-0.9,0.2-1.5,0.1-2-0.6c-3.6-4.3-6.1-9.1-7.5-14.5
	C175,30.9,174.9,28.5,175.5,27z M201.3,35.1c0.8-2.4,0.2-4.9-1.5-6.3c-1.8-1.4-4.3-1.5-6.4-0.2c-0.7,0.5-1.4,1-2,1.6
	c-0.9,0.9-1.5,0.6-1.7-0.5c-0.3-1.4-0.7-2.7-1.4-3.9c-2.1-3.2-6.4-3.4-8.7-0.4c-1.3,1.7-1.5,3.6-1.2,5.7c0.8,4.9,3.1,9.2,5.9,13.3
	c0.5,0.7,1,0.9,1.8,0.6c4.5-1.3,8.7-3.2,12.4-6.1C199.7,37.9,200.8,36.6,201.3,35.1L201.3,35.1z"/>
<path class="st0" d="M91,179.5c-17.8-6.4-34.7-14.7-49.2-27.2c-17.2-14.8-25.4-33.7-25.5-56.2c0-4.2,0.7-8.4,1.7-12.5
	c0.3-1.4,0.8-1.7,1.9-0.6c1,1.1,2.1,2.2,3.3,3.1c1.5,1.2,2.4,1,3.4-0.7c0.4-0.8,1-1.4,1.6-1.9c1.4-1.2,2.9-1.1,4.2,0.3
	c0.5,0.5,0.9,1,1.3,1.5c0.8,0.8,1.6,1.5,2.8,0.7s0.7-1.8,0.4-2.7c-0.7-1.5-1.1-3.1-1.5-4.7c-0.8-3.4-0.8-6.7,0.4-10
	c0.4-1,0.7-1.2,1.6-0.4c5,5.1,11.2,7.2,18.1,8.1c16.4,2,30.4,8.8,41.6,21.1c8.3,9.2,13.7,20,15.6,32.3c0.4,2.6,0.4,5.2,0.3,7.8
	c0,1.1,0.2,2.1,1.4,2.2c1.2,0.2,1.8-0.7,2-1.9c0.5-3.5,0-6.9-0.5-10.3c-1.1-7.1-4-13.7-7.2-20c-4.6-9-8.7-18.2-11.7-27.9
	c-3.2-10.2-5.1-20.7-3.3-31.4c2.3-13.6,9.1-24,22.3-29.3c11.4-4.6,22.5-3,33.2,2.6c8.4,4.5,14.5,11.1,17.1,20.4
	c1.6,5.6,1.5,11.2-0.4,16.8c-0.7,1.9-1.2,2.2-2.9,1.1c-3-2-5.3-4.6-5.8-8.4c-0.2-1.5-0.3-3-0.9-4.4c-0.6-1.3-1.6-2.4-3.2-2
	c-1.7,0.4-1.9,1.9-1.8,3.3c0.1,1.3,0.8,2.4,1.4,3.5c2.9,5.5-1.2,12.8-7.4,13.2c-0.9,0-1.5-0.4-2.1-0.9c-7.3-5-10.1-15.2-6-23.6
	c1.8-3.8,0.6-5.5-2.4-7.5c-6.4-4.2-14.8-2.8-20.4,3.3c-4.6,4.9-6.4,11-7.1,17.5c-1.1,10.2,1.6,19.6,5.6,28.9
	c4.5,10.5,11,19.9,17.3,29.3c5,7.4,9.9,14.8,13.3,23c4,9.7,5.1,19.7,2.1,30c-3.9,13.7-14.2,19.9-26.8,20.3c-7.6,0.3-15-1.8-22.2-3.9
	C94.6,180.8,92.8,180.1,91,179.5L91,179.5z"/>
<path class="st0" d="M177,209.2c-8.3-3-16.2-6-23.1-11.1c-6-4.4-9.9-10.3-12-17.4c-0.2-0.8-0.2-1.4,0.3-2c5.5-6.7,8-14.5,8.5-23.1
	c0.1-1.4,0.9-2.5,1.8-3.5c6.2-6.9,13.9-11.3,22.4-14.7c9.1-3.7,18.6-6.5,27.8-9.9c10.4-3.9,20.4-8.5,29.1-15.6
	c6.8-5.6,12.2-12.1,14.7-20.6c1.9-6.4,1.9-12.6-2.3-18.2c-3.4-4.5-8-6.6-13.8-5.9c-2.7,0.3-3.1,0.8-3.7,3.4
	c-2.1,9.4-8.7,15.3-17.6,15.8c-3.7,0.2-4.3-0.3-6-3.6c-2.3-4.4-0.3-11.1,4.8-12.3c1.2-0.3,2.4-0.9,3.2-2c0.7-1,1.2-2.1,0.4-3.2
	c-0.8-1.2-2-1.3-3.3-0.9c-1.4,0.4-2.4,1.4-3.3,2.4c-2.7,3-6.1,4-10,3.8c-2.7-0.1-3.2-0.8-2.2-3.2c4.5-11.1,13.1-17.1,24.6-18.7
	c12.6-1.7,23.8,2.2,33,10.7c11.6,10.7,14.2,27.4,7.1,42.2c-5.4,11.3-14.1,19.6-24.3,26.6c-8.7,6-18,10.9-27.5,15.4
	c-7.8,3.7-14.9,8.4-20.4,15.3c-0.5,0.6-0.9,1.3-1.4,1.9c-0.6,1-1,2.1,0.1,2.9c1.3,0.9,2-0.1,2.7-1c2.5-3.5,5.4-6.7,9-9.1
	c21.2-14.7,43.7-17.7,67.5-6.8c3.1,1.4,6,3.2,8.9,4.8c5,2.7,10.4,3.8,16.1,3.4c1.8-0.1,1.8,0.4,1.3,1.8c-1.3,3.5-3.6,6.1-6.6,8.2
	c-1,0.7-2,1.3-3,2c-0.8,0.6-2,1-1.6,2.3c0.5,1.4,1.7,1.3,2.8,1.2c0.5-0.1,1-0.1,1.4-0.1c3.1-0.2,4.2,0.9,4.1,4
	c-0.1,3.5,0.1,3.7,3.6,3.3c1.1-0.1,2.2-0.2,3.2-0.5c1.3-0.3,1.3,0.2,0.9,1.2c-1.6,4.1-3.8,7.9-6.6,11.4
	c-15.3,19.7-35.6,28.9-60.3,28.4C210,217.8,193.1,214.5,177,209.2L177,209.2z"/>
<path class="st3" d="M189.1,82.6c0.7-2.4,1.8-4.5,2-6.9c0-0.5,0.3-0.8,0.8-0.4c1.6,0.9,3.3,0.7,4.9,0.4c0.9-0.1,1.2,0,1.3,1
	c0.2,3,0.9,6,2.8,8.5c0.6,0.8,0.3,1.3-0.4,1.8c-1.6,1.3-3.3,2.5-5.1,3.5c-4.6,2.5-9.5,4.2-14.6,5.2c-0.9,0.2-1.8,0.2-2.7,0.2
	c-0.8,0-0.9-0.5-0.4-1c0.4-0.4,0.9-0.8,1.3-1.2c2.9-2.5,5.7-5.1,7.9-8.2c0.5-0.7,1-1.1,2.1-1c2.4,0.2,4.2-1.3,5.9-2.7
	c0.5-0.4,0.4-0.8,0-1.2c-0.4-0.6-0.9-0.8-1.6-0.4c-0.7,0.4-1.3,0.9-1.9,1.4C190.8,82.1,190.2,82.6,189.1,82.6z"/>
<path class="st3" d="M159.7,72.7c-1-1-1.2-2.1-1.5-3.1c-0.1-0.6-0.3-1.2-0.6-1.7c-0.4-0.7-1.1-0.8-1.7-0.6c-0.8,0.2-0.5,0.9-0.3,1.4
	c0.5,2.1,1.3,4.2,3,5.7c0.6,0.5,0.8,1,0.7,1.7c-0.1,4,0.4,7.9,1.2,11.8c0.1,0.6,0.5,1.4-0.2,1.8c-0.6,0.3-1.1-0.4-1.5-0.8
	c-5.2-5.9-9.1-12.6-11.1-20.3c-0.2-0.9,0-1.1,0.8-1.4c3-1,5.5-2.8,7.4-5.2c0.6-0.8,1-0.6,1.5,0.1c1,1.5,2.3,2.7,4.1,3
	c0.9,0.1,0.5,0.6,0.2,1C160.5,68,160,70.2,159.7,72.7L159.7,72.7z"/>
<path class="st4" d="M201.3,35.1c-0.6,1.6-1.6,2.8-2.9,3.9c-3.7,3-7.9,4.9-12.4,6.1c-0.9,0.2-1.4,0-1.8-0.6
	c-2.8-4.1-5.1-8.4-5.9-13.3c-0.3-2-0.1-4,1.2-5.7c2.3-3,6.6-2.8,8.7,0.4c0.8,1.2,1.2,2.5,1.4,3.9c0.2,1.1,0.8,1.4,1.7,0.5
	c0.6-0.6,1.3-1.1,2-1.6c2.1-1.3,4.7-1.3,6.4,0.2C201.6,30.2,202.2,32.7,201.3,35.1L201.3,35.1z"/>
</svg>
