<svg width="60" height="56" viewBox="0 0 60 56" fill="none" xmlns="http://www.w3.org/2000/svg">
<g clip-path="url(#clip0_601_33)">
<path d="M0 31.2036C0.33487 33.5946 0.947965 35.4349 1.45443 36.683C1.84428 37.6424 2.23913 38.4182 2.46238 38.8537C2.7556 39.4277 3.5053 40.8459 4.68984 42.5528C5.80108 44.1512 6.854 45.3659 7.58872 46.1601C7.9819 46.5839 9.40468 48.0972 11.5572 49.7974C12.4735 50.5215 13.6913 51.4759 15.464 52.487C16.2137 52.9142 17.6465 53.7251 19.4324 54.3524C20.9835 54.898 23.6625 55.6055 27.2461 55.4069C24.7271 54.6628 22.8145 53.6316 21.5383 52.8241C21.41 52.7423 18.3045 50.7435 15.7855 47.62C14.9875 46.6306 14.2878 45.5761 14.1828 45.4193C13.7796 44.8086 13.2032 43.931 12.5951 42.7213C12.1803 41.8937 11.6871 40.7842 11.2523 39.4193C11.6421 39.8465 12.1469 40.372 12.7634 40.9477C13.2582 41.4098 14.1712 42.2274 15.419 43.1251C16.8351 44.1445 17.9963 44.7769 18.761 45.189C19.6773 45.6829 20.9885 46.3837 22.8128 47.046C25.2652 47.937 27.2727 48.2624 28.0558 48.3758C29.3453 48.5611 31.0113 48.6995 32.9539 48.6044C32.0092 48.194 30.7897 47.615 29.4169 46.8275C28.2923 46.1818 26.6963 45.2557 24.8737 43.7207C22.9994 42.144 21.8049 40.6957 20.8985 39.5862C19.4391 37.8009 18.4845 36.2825 18.0596 35.5818C16.9301 33.718 16.2354 32.1697 15.9538 31.5156C15.6006 30.698 15.3374 29.9923 15.0375 29.1931C14.5727 27.9484 14.2161 26.8972 13.9696 26.1364C14.5627 26.43 15.4273 26.8555 16.4786 27.3594C18.7144 28.4339 20.4487 29.2665 22.4246 30.1107C23.8724 30.7298 25.4551 31.3171 28.6205 32.495C31.5477 33.5846 31.5761 33.5545 33.4437 34.2686C36.879 35.5801 38.5983 36.2375 40.0061 37.02C43.1199 38.7519 45.0325 40.6173 45.5306 41.1162C46.9584 42.5444 47.9564 43.9176 48.6128 44.9371C48.6128 44.3481 48.5678 43.4988 48.3495 42.5077C47.6498 39.3259 45.7422 37.297 44.8276 36.3476C43.5314 35.0028 42.2736 34.2486 39.7612 32.7403C37.7053 31.5073 36.0327 30.7197 34.7631 30.1274C32.8239 29.2214 32.7972 29.3182 28.6505 27.5596C24.802 25.9261 23.7224 25.3755 22.9278 24.9467C21.8532 24.3677 20.9519 23.8255 19.5391 22.9745C18.128 22.1253 17.1217 21.5196 15.8072 20.6353C14.9525 20.0597 14.0012 19.3572 12.0986 17.9523C10.1044 16.4791 9.53796 16.0202 8.93986 15.488C8.04687 14.6921 7.35881 13.9796 6.90232 13.4824C6.57244 13.9279 6.14261 14.597 5.80274 15.4763C5.35458 16.6409 5.29294 17.5903 5.21964 18.88C5.13134 20.4267 5.23963 21.5897 5.34625 22.7426C5.46621 24.0457 5.64447 25.1403 5.80441 25.9745C5.96102 26.7904 6.12595 27.638 6.46748 28.7492C6.59577 29.1664 6.88899 30.0724 7.36047 31.1569C7.65702 31.8393 7.98023 32.4884 8.16183 32.8538C8.35342 33.2392 8.52002 33.5595 8.64331 33.7931C8.07853 33.7381 7.32049 33.638 6.43416 33.4494C5.4079 33.2308 4.64819 32.9856 4.0351 32.7853C3.41034 32.5818 2.61898 32.2981 1.716 31.9144" fill="black"/>
<path d="M52.1218 55.9997C52.8398 53.7956 52.9964 51.9386 53.0064 50.6805C53.0181 49.2773 52.8531 48.1644 52.7015 47.1349C52.6116 46.5259 52.35 44.8891 51.7252 42.8018C51.3504 41.5505 50.9655 40.2624 50.1908 38.7207C49.3212 36.9871 48.4132 35.8358 47.6035 34.823C45.5593 32.2619 43.5518 30.6184 42.2006 29.5272C40.6612 28.2825 40.7728 28.5461 38.2322 26.5623C35.4849 24.4166 34.6336 23.5456 33.9888 22.8031C32.6693 21.2815 31.9413 19.9817 31.7297 19.5929C31.2732 18.7553 30.6751 17.6391 30.2952 16.0474C29.7488 13.7598 29.9904 11.9028 30.082 11.3088C30.1903 10.6047 30.5152 8.92619 31.5781 7.09084C32.3794 5.70598 33.2574 4.82835 34.0205 4.06417C34.5019 3.58197 35.2633 2.82781 36.4312 2.04695C36.9643 1.69156 37.8323 1.11759 39.0252 0.672102C40.9528 -0.0486922 42.6005 -0.0169906 43.6201 0.011374C44.3514 0.031396 46.3157 0.144854 48.6264 1.08589C49.3545 1.38122 50.6623 1.92682 52.0751 3.07308C52.5333 3.44349 54.5258 5.11366 55.7687 7.99517C56.5667 9.84387 56.7983 11.5958 56.9132 12.5035V12.5035C57.0057 13.2287 57.2593 13.9278 57.6914 14.5176C58.4434 15.5438 59.6082 17.2017 60.0004 18.1363L50.5181 14.744C50.047 14.5754 49.7487 14.1194 49.7227 13.6197V13.6197C49.6844 12.9006 49.6077 11.7293 48.933 10.4862C48.3949 9.49682 47.7001 8.8728 47.3003 8.56079C47.1104 8.41229 46.329 7.8183 45.1178 7.45958C44.5597 7.29439 43.3468 6.95235 41.8674 7.30607C41.6675 7.35446 40.7962 7.5747 39.8532 8.22375C39.6433 8.36891 39.0235 8.81273 38.4188 9.58358C38.2805 9.75877 37.884 10.2827 37.5341 11.0669C37.2975 11.5975 36.851 12.5952 36.8777 13.8633C36.911 15.4067 37.6274 16.5179 38.0606 17.1719C38.4254 17.7225 38.8303 18.1814 40.5413 19.6246C42.1873 21.0145 43.4834 21.9989 43.6467 22.1241C45.9175 23.851 47.0787 24.7336 48.2483 25.7013C50.2625 27.3665 51.8235 28.6579 53.5129 30.7686C54.7607 32.327 55.6071 33.7435 56.1219 34.6896C56.6567 35.6706 57.438 37.1239 58.0444 39.1828C58.341 40.1856 58.7175 41.4971 58.7992 43.2874C58.8974 45.4464 58.5109 47.0949 58.341 47.7356C57.8978 49.4124 57.2664 50.5637 57.1048 50.854C56.9965 51.0476 56.4967 51.9269 55.6171 52.963C54.9756 53.7188 53.9677 54.7533 52.5033 55.7377L52.1218 56.0047V55.9997Z" fill="black"/>
</g>
<defs>
<clipPath id="clip0_601_33">
<rect width="60" height="56" fill="white"/>
</clipPath>
</defs>
</svg>
