<svg width="49" height="46" viewBox="0 0 49 46" fill="none" xmlns="http://www.w3.org/2000/svg">
<g clip-path="url(#clip0_939_276)">
<path d="M0 25.6309C0.273477 27.5949 0.774171 29.1066 1.18779 30.1318C1.50616 30.9199 1.82862 31.5572 2.01094 31.9149C2.2504 32.3864 2.86266 33.5514 3.83004 34.9534C4.73755 36.2664 5.59743 37.2642 6.19745 37.9166C6.51855 38.2647 7.68049 39.5078 9.43836 40.9044C10.1867 41.4992 11.1813 42.2832 12.6289 43.1137C13.2412 43.4646 14.4113 44.1307 15.8698 44.646C17.1365 45.0942 19.3243 45.6753 22.251 45.5122C20.1938 44.9009 18.6318 44.0539 17.5896 43.3906C17.4848 43.3234 14.9487 41.6815 12.8915 39.1158C12.2398 38.3031 11.6684 37.4369 11.5826 37.308C11.2534 36.8064 10.7826 36.0855 10.286 35.0919C9.94721 34.4121 9.54448 33.5006 9.18937 32.3795C9.50775 32.7304 9.92 33.1621 10.4234 33.635C10.8275 34.0146 11.5731 34.6862 12.5922 35.4235C13.7487 36.2609 14.697 36.7804 15.3215 37.1189C16.0698 37.5246 17.1406 38.1002 18.6304 38.6443C20.6332 39.3762 22.2727 39.6435 22.9122 39.7367C23.9653 39.8888 25.3259 40.0026 26.9123 39.9244C26.1409 39.5873 25.1449 39.1117 24.0238 38.4648C23.1054 37.9344 21.802 37.1737 20.3135 35.9128C18.7828 34.6176 17.8073 33.428 17.0671 32.5166C15.8753 31.0501 15.0957 29.8029 14.7487 29.2272C13.8262 27.6963 13.2589 26.4245 13.0289 25.8872C12.7405 25.2156 12.5255 24.6359 12.2806 23.9794C11.901 22.9569 11.6098 22.0935 11.4085 21.4685C11.8928 21.7097 12.599 22.0592 13.4575 22.4731C15.2834 23.3558 16.6998 24.0397 18.3134 24.7332C19.4958 25.2417 20.7883 25.7241 23.3734 26.6917C25.764 27.5867 25.7871 27.562 27.3123 28.1486C30.1178 29.2259 31.522 29.7659 32.6717 30.4087C35.2146 31.8313 36.7765 33.3636 37.1833 33.7734C38.3494 34.9466 39.1644 36.0745 39.7004 36.912C39.7004 36.4282 39.6637 35.7305 39.4854 34.9164C38.914 32.3028 37.3561 30.6362 36.6092 29.8563C35.5506 28.7517 34.5234 28.1322 32.4716 26.8932C30.7927 25.8803 29.4267 25.2334 28.3899 24.7469C26.8062 24.0027 26.7844 24.0822 23.3979 22.6376C20.255 21.2958 19.3733 20.8435 18.7243 20.4913C17.8468 20.0157 17.1107 19.5703 15.9569 18.8713C14.8045 18.1737 13.9827 17.6762 12.9092 16.9498C12.2112 16.477 11.4343 15.8999 9.88055 14.7459C8.25193 13.5357 7.78933 13.1588 7.30088 12.7216C6.57161 12.0679 6.00969 11.4826 5.63689 11.0742C5.3675 11.4402 5.01647 11.9898 4.73891 12.712C4.37291 13.6687 4.32257 14.4485 4.2627 15.508C4.19059 16.7785 4.27903 17.7338 4.36611 18.6808C4.46407 19.7512 4.60965 20.6503 4.74027 21.3356C4.86816 22.0058 5.00286 22.702 5.28178 23.6148C5.38654 23.9575 5.62601 24.7017 6.01105 25.5925C6.25323 26.1531 6.51719 26.6862 6.66549 26.9864C6.82196 27.303 6.95802 27.5661 7.0587 27.758C6.59746 27.7128 5.9784 27.6305 5.25457 27.4757C4.41645 27.2961 3.79602 27.0947 3.29533 26.9302C2.78511 26.763 2.13883 26.53 1.4014 26.2148" fill="#111010"/>
<path d="M42.5666 45.9997C43.153 44.1892 43.2809 42.6638 43.289 41.6304C43.2985 40.4778 43.1638 39.5636 43.04 38.718C42.9666 38.2177 42.753 36.8732 42.2427 35.1586C41.9366 34.1307 41.6223 33.0727 40.9896 31.8063C40.2794 30.3823 39.5379 29.4366 38.8767 28.6046C37.2072 26.5008 35.5677 25.1508 34.4643 24.2545C33.2071 23.2321 33.2983 23.4486 31.2234 21.819C28.9798 20.0565 28.2845 19.341 27.758 18.7311C26.6804 17.4812 26.0858 16.4135 25.913 16.0942C25.5402 15.4062 25.0518 14.4893 24.7416 13.1818C24.2953 11.3027 24.4926 9.7773 24.5674 9.28938C24.6559 8.71101 24.9212 7.33223 25.7892 5.82462C26.4437 4.68705 27.1607 3.96614 27.7838 3.33843C28.177 2.94233 28.7988 2.32284 29.7526 1.68142C30.188 1.38949 30.8968 0.918022 31.871 0.552083C33.4452 -0.0399972 34.7908 -0.0139566 35.6235 0.00934291C36.2208 0.0257896 37.8249 0.118987 39.7121 0.891981C40.3066 1.13457 41.3747 1.58274 42.5285 2.52431C42.9026 2.82858 44.5299 4.20051 45.5449 6.56746C46.1966 8.08603 46.3857 9.52512 46.4796 10.2707V10.2707C46.5551 10.8666 46.7626 11.4412 47.1163 11.9267C47.7304 12.7698 48.6807 14.1305 49.0007 14.8977L41.2602 12.1123C40.8734 11.9731 40.6286 11.5982 40.6073 11.1876V11.1876C40.576 10.5969 40.5134 9.63476 39.9624 8.6137C39.5229 7.80096 38.9556 7.28837 38.629 7.03208C38.4739 6.9101 37.8358 6.42218 36.8467 6.12751C36.3909 5.99182 35.4004 5.71086 34.1922 6.00142C34.0289 6.04116 33.3173 6.22208 32.5472 6.75522C32.3758 6.87446 31.8697 7.23903 31.3758 7.87223C31.2628 8.01614 30.939 8.44649 30.6533 9.09065C30.4601 9.52649 30.0955 10.3461 30.1172 11.3877C30.1444 12.6555 30.7295 13.5683 31.0832 14.1055C31.3812 14.5578 31.7118 14.9347 33.1091 16.1202C34.4534 17.2619 35.5119 18.0705 35.6453 18.1733C37.4997 19.5919 38.4481 20.3169 39.4032 21.1118C41.0481 22.4796 42.323 23.5404 43.7026 25.2742C44.7217 26.5543 45.4129 27.7179 45.8333 28.495C46.2701 29.3009 46.9082 30.4946 47.4034 32.1859C47.6456 33.0096 47.9531 34.0869 48.0198 35.5575C48.1 37.331 47.7844 38.6851 47.6456 39.2114C47.2837 40.5888 46.768 41.5345 46.6361 41.773C46.5476 41.9319 46.1394 42.6542 45.4211 43.5053C44.8972 44.1262 44.0741 44.9759 42.8781 45.7846L42.5666 46.0039V45.9997Z" fill="#111010"/>
</g>
<defs>
<clipPath id="clip0_939_276">
<rect width="49" height="46" fill="white"/>
</clipPath>
</defs>
</svg>
