<svg width="65" height="61" viewBox="0 0 65 61" fill="none" xmlns="http://www.w3.org/2000/svg">
<g clip-path="url(#clip0_1362_81)">
<path d="M44.7201 7.18408C47.1307 7.18408 49.562 7.81489 51.776 9.14892C58.2423 13.0476 60.3115 21.4344 56.411 27.8873L54.5074 31.0414L40.3645 54.4023L16.9516 40.2865L13.7961 38.3837C7.32989 34.485 5.2607 26.0983 9.16112 19.6453C11.7269 15.3951 16.2481 13.0579 20.8727 13.0579C23.2833 13.0579 25.7146 13.6888 27.9287 15.0228L31.0842 16.9256L32.9878 13.7715C35.5536 9.5212 40.0748 7.18408 44.6994 7.18408H44.7098H44.7201ZM44.7201 1C38.5953 1 32.7809 3.87487 29.046 8.62151C26.4906 7.47363 23.7075 6.8635 20.8831 6.8635C13.9616 6.8635 7.43335 10.5346 3.85366 16.4395C-1.80557 25.7984 1.21544 38.0217 10.5889 43.6784L13.7444 45.5812L37.1572 59.697C38.1298 60.2865 39.2471 60.5864 40.3645 60.5864C40.8611 60.5864 41.3577 60.5243 41.8439 60.4106C43.4372 60.0176 44.8132 59.0145 45.6616 57.6081L59.8045 34.2472L61.7082 31.0931C64.4498 26.5636 65.2672 21.2275 63.9946 16.0879C62.7221 10.938 59.5252 6.60497 54.9729 3.86453C51.8692 1.99276 48.3205 1.01034 44.7098 1.01034L44.7201 1Z" fill="white" stroke="black" stroke-width="0.6" stroke-miterlimit="10"/>
<path d="M32.9985 13.7718L31.0948 16.9259L27.9393 15.0231C21.4731 11.1245 13.0722 13.1927 9.16146 19.6457C5.26104 26.0986 7.33023 34.4854 13.7964 38.384L16.9519 40.2868L40.3648 54.4027L54.5077 31.0417L56.4114 27.8877C60.3118 21.4347 58.2426 13.0479 51.7764 9.14926C45.3102 5.25061 36.9093 7.31886 32.9985 13.7718Z" fill="#70FFB2" stroke="#7948FF" stroke-width="0.3"/>
<path d="M35.8643 42.9544C32.4812 42.9544 31.0224 40.0485 31.0017 40.0175C30.8672 39.7383 30.981 39.397 31.2604 39.2626C31.5397 39.1282 31.8708 39.2419 32.0053 39.5211C32.0777 39.6556 33.5571 42.5511 37.1989 41.6618C40.8614 40.7621 40.7993 37.5046 40.7993 37.3702C40.789 37.0599 41.0269 36.8014 41.3476 36.791H41.3683C41.6684 36.791 41.9167 37.0289 41.927 37.3391C41.927 37.3805 42.0098 41.6514 37.4783 42.7683C36.8989 42.9131 36.3609 42.9751 35.8643 42.9751V42.9544Z" fill="#1A1A1A" stroke="black" stroke-width="0.3"/>
<path d="M20.9042 26.9049L21.1008 17.7012L25.4668 25.8191L32.7607 26.4809L26.5635 30.3692L26.3669 39.573L22.0009 31.4654L14.707 30.8036L20.9042 26.9153V26.9049Z" fill="#7948FF" stroke="#70FFB2" stroke-width="0.6" stroke-miterlimit="10"/>
<path d="M40.5605 21.9831L40.7571 12.7793L45.123 20.8972L52.4169 21.5487L46.2197 25.437L46.0231 34.6408L41.6572 26.5332L34.3633 25.8714L40.5605 21.9831Z" fill="#7948FF" stroke="#70FFB2" stroke-width="0.6" stroke-miterlimit="10"/>
</g>
<defs>
<clipPath id="clip0_1362_81">
<rect width="65" height="61" fill="white"/>
</clipPath>
</defs>
</svg>
