<svg width="310" height="234" viewBox="0 0 310 234" fill="none" xmlns="http://www.w3.org/2000/svg">
<path d="M170.924 223.147C161.811 220.101 153.198 216.675 145.468 211.326C140.772 208.071 136.515 204.341 133.326 199.543C132.561 198.396 131.853 198.207 130.511 198.629C122.179 201.282 113.749 201.012 105.267 199.343C95.6808 197.46 86.4531 194.374 77.434 190.79C62.6304 184.92 48.646 177.472 36.1062 167.54C28.6838 161.671 21.9341 155.131 16.5789 147.268C7.38797 133.758 1.95256 118.964 1.00791 102.569C0.528706 94.2304 1.23711 86.0251 3.97351 78.1314C6.1268 71.8778 9.97026 66.7032 16.939 65.55C20.2966 64.9942 21.7916 63.5393 22.9648 60.6666C24.4202 57.0812 27.1153 54.4933 30.7249 52.9381C35.3738 50.9309 39.9143 51.5371 44.3749 53.5516C46.8793 54.6717 49.0764 56.2565 51.0058 58.191C52.9244 60.1034 55.4753 59.8589 57.778 60.2284C63.9936 61.2089 70.1186 62.4527 76.0079 64.7015C77.5708 65.2948 77.7891 64.9282 77.6448 63.3691C77.1994 58.3008 77.629 53.2576 78.1135 48.215C78.6219 42.9965 79.9479 38.0227 81.872 33.2365C86.0819 22.7208 92.6399 14.0998 102.523 8.17015C112.202 2.35405 122.587 -0.273641 133.846 0.547447C141.409 1.0899 148.505 3.20195 155.241 6.68101C159.491 8.88059 163.484 11.4519 167.191 14.4773C168.185 15.2797 168.819 15.1484 169.593 14.2368C175.913 6.95094 186.482 5.71214 194.405 11.6248C196.164 12.9301 198.11 12.6796 199.941 12.8683C209.113 13.8174 215.738 21.1979 216.446 29.8355C216.642 32.2593 216.726 32.1226 219.17 32.1357C238.412 32.1713 254.819 38.4648 266.507 54.3993C274.426 65.1887 277.724 77.3691 275.858 90.7535C274.01 104.034 268.342 115.575 259.65 125.689C259.411 125.956 259.199 126.251 258.959 126.519C258.308 127.233 258.497 127.648 259.38 127.915C262.717 128.972 265.883 130.467 269.078 131.88C273.167 133.693 277.07 135.829 280.912 138.09C282.012 138.745 283.013 138.777 284.181 138.645C289.984 137.938 295.302 139.014 299.96 142.808C304.169 146.246 306.418 152.653 304.6 157.826C303.592 160.7 303.529 162.593 305.977 165C309.957 168.892 310.687 174.096 309.439 179.483C307.248 189.055 301.979 196.979 295.623 204.16C279.703 222.167 259.541 231.589 235.653 233.231C222.495 234.13 209.519 232.681 196.621 230.099C187.787 228.328 179.085 226.123 170.885 223.152L170.924 223.147ZM138.497 181.958C140.855 188.955 144.407 194.946 150.02 199.603C153.77 202.717 157.963 205.081 162.346 207.161C172.01 211.759 182.191 214.804 192.57 217.163C206.108 220.241 219.806 222.16 233.717 221.372C259.403 219.908 279.507 208.569 293.722 187.012C295.689 184.026 297.382 180.872 298.237 177.374C298.926 174.519 297.488 172.92 294.552 173.16C293.473 173.249 292.397 173.486 291.348 173.751C290.482 173.968 290.192 173.794 290.124 172.869C289.931 170.115 288.448 168.168 286.012 166.741C286.768 165.989 287.474 165.274 288.186 164.544C290.377 162.298 291.988 159.705 292.849 156.669C293.909 153.003 292.492 151.024 288.746 151.317C282.34 151.799 276.566 150.124 271.099 146.916C257.346 138.849 242.649 135.021 226.643 137.186C226.065 137.263 225.441 137.417 224.846 136.899C225.073 136.775 225.272 136.677 225.461 136.558C236.534 130.486 246.543 123.072 254.26 112.954C261.097 104.005 265.198 93.9124 264.468 82.5059C263.525 67.6572 255.943 56.7996 242.844 49.9882C231.497 44.0748 219.585 42.5318 207.519 47.6363C197.072 52.0467 189.865 59.5055 188.428 71.2154C187.381 79.7091 183.589 86.3924 176.791 91.4883C175.97 92.1077 175.198 92.7991 174.623 93.6686C173.74 95.003 173.786 96.418 174.488 97.801C175.125 99.1063 176.282 99.5415 177.648 99.4779C178.606 99.4213 179.575 99.3868 180.534 99.2202C188.502 97.7851 195.846 94.8467 202.389 90.0124C203.298 89.3499 204.103 89.2037 205.202 89.3797C216.193 91.1944 227.26 83.5921 229.508 72.7324C229.982 70.4473 230.259 70.2298 232.647 70.3525C237.538 70.5823 241.971 74.3359 243.356 79.5071C244.912 85.3074 243.373 90.6313 240.714 95.735C236.579 103.626 230.187 109.359 222.793 114.047C213.637 119.841 203.582 123.65 193.381 127.132C186.058 129.636 178.676 131.936 171.551 134.986C163.779 138.311 156.696 142.683 150.601 148.997C149.873 144.697 149.026 140.687 147.7 136.788C144.437 127.233 138.948 118.901 133.36 110.644C127.339 101.723 121.217 92.8777 116.657 83.0792C112.62 74.3812 109.797 65.365 110.405 55.6339C110.818 48.9834 112.541 42.7475 117.467 37.8533C121.18 34.1801 126.634 33.0945 131.194 35.0329C134.258 36.3456 134.597 37.1251 133.384 40.168C129.259 50.4367 133.014 62.0382 142.365 67.7062C143.662 68.4841 144.346 69.4376 144.767 70.8343C147.258 78.8896 151.46 85.9324 157.378 91.9464C158.604 93.1969 159.94 93.9697 161.743 93.0627C163.502 92.1774 164.079 90.6639 163.86 88.8398C163.693 87.3465 163.317 85.8732 163.034 84.3953C161.705 77.3477 162.575 70.7072 166.45 64.5311C167.345 63.1088 168.305 61.7092 168.85 60.0743C172.307 49.9256 171.219 40.2549 165.358 31.2967C155.065 15.5852 132.623 8.53855 115.072 15.565C99.4163 21.8451 91.8256 34.1603 89.9758 50.3851C88.5058 63.2615 91.6109 75.4675 96.1003 87.3955C96.5883 88.7048 97.1483 89.9653 97.6584 91.2638C97.7925 91.6229 97.783 92.0246 97.4341 92.2358C97.1074 92.4363 96.9625 92.0551 96.7554 91.8549C95.5554 90.7422 94.3719 89.6352 93.1328 88.5826C82.6962 79.7059 70.5314 74.7257 57.058 72.9581C50.2086 72.0539 44.0764 69.8688 38.9552 65.0681C36.7137 62.9709 34.4954 63.5325 33.1304 66.3207C31.2994 70.0345 30.98 73.9559 31.7824 77.9874C31.8978 78.561 32.3265 79.1872 31.1605 79.0986C28.6031 78.8807 26.5616 79.9449 24.9357 81.8334C24.2342 82.6411 23.935 82.2804 23.4621 81.6757C22.761 80.7716 22.0655 79.851 21.2368 79.0503C19.1649 77.0483 17.1417 77.3641 15.8668 79.944C15.3334 81.0121 14.9146 82.1749 14.6059 83.3387C12.915 89.5859 12.3624 95.9489 12.9264 102.383C14.8148 124.111 23.9771 142.194 40.8547 155.995C59.6268 171.35 81.1093 181.453 104.65 187.129C111.871 188.879 119.191 189.485 126.547 187.581C130.868 186.474 134.827 184.597 138.519 181.947L138.497 181.958ZM175.472 27.0481C174.907 28.5287 175.021 30.9241 175.62 33.3024C176.998 38.7101 179.576 43.5187 183.161 47.8089C183.748 48.5082 184.303 48.6623 185.202 48.4565C190.216 47.3115 194.838 45.3315 199.066 42.4065C200.518 41.397 201.796 40.1987 202.823 38.7667C205.295 35.3289 205.376 31.0309 203.051 27.9476C200.926 25.136 197.158 23.8383 193.819 25.2475C192.056 25.9842 191.494 25.4778 190.583 24.1147C188.733 21.3609 185.989 19.9743 182.643 20.4422C179.243 20.9095 176.955 22.9015 175.472 27.0481Z" fill="white"/>
<path d="M138.498 181.958C134.806 184.607 130.853 186.467 126.526 187.592C119.176 189.479 111.856 188.873 104.629 187.139C81.0885 181.463 59.6059 171.36 40.8338 156.005C23.9398 142.199 14.7774 124.115 12.9056 102.394C12.358 95.9648 12.9106 89.6019 14.585 83.349C14.8938 82.1852 15.3233 81.0445 15.846 79.9543C17.1152 77.3909 19.1276 77.053 21.2159 79.0606C22.0282 79.8557 22.7401 80.7819 23.4413 81.686C23.9085 82.3071 24.2077 82.6678 24.9148 81.8437C26.5407 79.9552 28.5823 78.891 31.1396 79.1089C32.3 79.2139 31.877 78.5713 31.7615 77.9977C30.9591 73.9662 31.2785 70.0448 33.1095 66.331C34.491 63.5484 36.7093 62.9869 38.9344 65.0784C44.0555 69.8791 50.2042 72.0699 57.0371 72.9684C70.527 74.7417 82.6754 79.7162 93.1119 88.5929C94.351 89.6455 95.551 90.7581 96.7345 91.8652C96.9417 92.0654 97.0701 92.4409 97.4133 92.2461C97.7564 92.0514 97.788 91.6389 97.6375 91.2741C97.1274 89.9756 96.5731 88.6986 96.0794 87.4058C91.59 75.4778 88.4849 63.2718 89.9549 50.3954C91.8048 34.1706 99.4011 21.8389 115.051 15.5753C132.602 8.54887 155.045 15.5955 165.337 31.307C171.198 40.2652 172.286 49.9359 168.829 60.0846C168.268 61.7139 167.324 63.1191 166.429 64.5414C162.559 70.701 161.685 77.358 163.013 84.4056C163.296 85.8835 163.672 87.3568 163.839 88.8501C164.041 90.6685 163.487 92.1712 161.722 93.073C159.919 93.98 158.583 93.2072 157.357 91.9567C151.461 85.9319 147.237 78.8999 144.746 70.8446C144.309 69.4422 143.641 68.4944 142.344 67.7165C132.977 62.0428 129.222 50.4414 133.363 40.1783C134.593 37.141 134.254 36.3616 131.174 35.0432C126.613 33.1048 121.148 34.1683 117.446 37.8636C112.521 42.7579 110.797 48.9937 110.384 55.6442C109.793 65.3809 112.599 74.3915 116.636 83.0895C121.196 92.888 127.318 101.733 133.34 110.654C138.922 118.927 144.416 127.243 147.679 136.798C149.011 140.68 149.841 144.685 150.58 149.007C156.675 142.694 163.758 138.321 171.53 134.997C178.655 131.946 186.037 129.646 193.36 127.143C203.561 123.66 213.616 119.851 222.772 114.057C230.166 109.369 236.575 103.642 240.693 95.7453C243.369 90.6473 244.896 85.3012 243.335 79.5173C241.95 74.3462 237.517 70.5926 232.626 70.3628C230.233 70.2566 229.961 70.4576 229.487 72.7427C227.217 83.6132 216.172 91.2047 205.182 89.39C204.082 89.214 203.261 89.3545 202.368 90.0227C195.831 94.8405 188.481 97.7954 180.514 99.2305C179.571 99.4028 178.602 99.4373 177.627 99.4882C176.261 99.5518 175.104 99.1166 174.467 97.8113C173.788 96.4175 173.735 95.0189 174.602 93.6789C175.177 92.8094 175.949 92.118 176.77 91.4986C183.563 86.4191 187.361 79.7194 188.408 71.2257C189.844 59.5158 197.051 52.0571 207.498 47.6466C219.564 42.5421 231.476 44.0852 242.823 49.9985C255.922 56.8099 263.504 67.6675 264.447 82.5162C265.177 93.9227 261.076 104.016 254.24 112.964C246.522 123.082 236.524 130.519 225.44 136.568C225.235 136.682 225.036 136.779 224.825 136.909C225.398 137.438 226.027 137.268 226.622 137.197C242.628 135.032 257.325 138.859 271.078 146.926C276.529 150.128 282.319 151.809 288.725 151.328C292.465 151.051 293.866 153.024 292.828 156.68C291.95 159.709 290.356 162.308 288.165 164.554C287.454 165.285 286.731 165.993 285.992 166.751C288.427 168.179 289.91 170.125 290.103 172.879C290.166 173.821 290.472 174 291.328 173.761C292.376 173.496 293.452 173.259 294.531 173.171C297.473 172.913 298.905 174.529 298.216 177.385C297.362 180.882 295.662 184.053 293.701 187.022C279.491 208.563 259.383 219.918 233.696 221.382C219.785 222.17 206.087 220.251 192.55 217.173C182.153 214.808 171.973 211.763 162.325 207.171C157.942 205.091 153.749 202.727 149.999 199.613C144.386 194.956 140.818 188.96 138.476 181.969L138.498 181.958ZM90.9993 179.464C92.826 180.093 94.6301 180.788 96.4794 181.351C103.735 183.481 111.063 185.507 118.706 185.23C131.304 184.782 141.575 178.636 145.47 164.919C148.389 154.622 147.331 144.704 143.321 134.966C139.907 126.704 135.027 119.28 130.052 111.915C123.683 102.506 117.225 93.1406 112.727 82.6271C108.795 73.4128 106.07 63.9516 107.167 53.7631C107.858 47.2639 109.707 41.1999 114.258 36.269C119.866 30.1926 128.207 28.8492 134.634 33.0133C137.647 34.953 138.858 36.6767 137.054 40.4734C133.029 48.8992 135.824 59.1206 143.09 64.1076C143.729 64.5487 144.341 65.0171 145.222 64.9708C151.407 64.652 155.58 57.2899 152.645 51.8062C152.056 50.6831 151.368 49.581 151.282 48.2811C151.192 46.8326 151.366 45.3647 153.06 44.9355C154.693 44.5223 155.668 45.5943 156.31 46.9381C156.957 48.3206 157.035 49.857 157.257 51.3508C157.809 55.0937 160.034 57.7191 163.07 59.7031C164.754 60.7985 165.302 60.5452 165.965 58.6198C167.874 53.0738 167.974 47.4384 166.383 41.847C163.756 32.5299 157.706 25.9367 149.284 21.4722C138.623 15.8133 127.487 14.2614 116.075 18.855C102.918 24.1359 96.0785 34.4824 93.7753 48.1213C91.9628 58.8917 93.8472 69.2968 97.032 79.5606C100.036 89.2282 104.155 98.4334 108.751 107.434C111.985 113.812 114.816 120.346 115.967 127.48C116.506 130.887 116.913 134.304 116.46 137.756C116.317 138.921 115.708 139.78 114.471 139.63C113.284 139.497 113.073 138.504 113.089 137.442C113.137 134.844 113.185 132.247 112.786 129.662C110.861 117.291 105.495 106.571 97.154 97.3295C86.014 84.9892 71.9732 78.2401 55.5792 76.24C48.6686 75.4068 42.3872 73.2808 37.4344 68.1515C36.6062 67.2957 36.2631 67.4904 35.8675 68.5323C34.6241 71.8226 34.6903 75.1588 35.4277 78.5237C35.7807 80.1179 36.2773 81.6695 36.9174 83.1785C37.3321 84.1128 37.7348 85.135 36.5658 85.9106C35.3411 86.7407 34.5283 86.0006 33.7381 85.1947C33.2749 84.7223 32.8673 84.1954 32.4041 83.7229C31.0962 82.389 29.6386 82.2921 28.2235 83.4615C27.5797 83.9946 27.0393 84.6553 26.6027 85.3885C25.64 87.0083 24.6801 87.23 23.2219 86.0652C22.0533 85.129 20.9742 84.0395 19.9501 82.9506C18.8443 81.7783 18.3565 82.1258 18.0235 83.5205C17.025 87.6499 16.2904 91.8149 16.3201 96.0589C16.4613 118.584 24.6685 137.517 41.8285 152.261C56.3359 164.712 73.1849 173.035 91.0379 179.459L90.9993 179.464ZM176.952 209.17C193.121 214.498 210.025 217.797 227.448 218.09C252.224 218.521 272.515 209.364 287.791 189.644C290.506 186.143 292.735 182.345 294.344 178.205C294.723 177.213 294.711 176.712 293.42 176.985C292.35 177.206 291.276 177.333 290.19 177.438C286.626 177.793 286.457 177.643 286.552 174.105C286.632 170.985 285.536 169.944 282.425 170.106C281.94 170.124 281.461 170.18 280.981 170.235C279.791 170.378 278.596 170.481 278.136 169.035C277.731 167.699 278.869 167.281 279.689 166.716C280.692 166.049 281.733 165.432 282.714 164.721C285.686 162.614 288.023 159.995 289.312 156.518C289.821 155.147 289.76 154.629 288.003 154.761C282.335 155.184 276.946 154.101 271.931 151.344C268.959 149.713 266.059 147.978 262.99 146.571C239.187 135.669 216.712 138.607 195.48 153.331C191.95 155.778 188.99 158.92 186.501 162.462C185.875 163.369 185.1 164.336 183.849 163.426C182.701 162.589 183.092 161.509 183.723 160.53C184.154 159.868 184.611 159.234 185.096 158.628C190.575 151.752 197.677 147.056 205.525 143.351C215.042 138.86 224.337 133.943 233.032 127.991C243.173 121.045 251.88 112.759 257.309 101.43C264.379 86.6712 261.792 69.9128 250.201 59.2579C240.9 50.7171 229.704 46.8804 217.16 48.562C205.657 50.1054 197.077 56.1525 192.603 67.2214C191.615 69.6611 192.088 70.3207 194.784 70.4574C198.651 70.6662 202.057 69.6485 204.767 66.6974C205.707 65.6774 206.713 64.68 208.104 64.2754C209.352 63.9134 210.578 64.0411 211.359 65.1937C212.102 66.2964 211.696 67.3712 210.948 68.3656C210.14 69.4309 208.983 70.0635 207.78 70.3489C202.682 71.5756 200.739 78.2881 202.98 82.6861C204.665 85.9722 205.266 86.4185 209.005 86.2517C217.871 85.8438 224.546 79.877 226.598 70.4959C227.174 67.8596 227.575 67.3902 230.259 67.0809C235.979 66.3997 240.62 68.4766 244.027 73.0182C248.199 78.5966 248.171 84.8271 246.314 91.1827C243.807 99.7446 238.382 106.252 231.639 111.828C222.977 118.969 212.98 123.571 202.56 127.476C193.345 130.929 183.862 133.665 174.748 137.412C166.342 140.868 158.56 145.294 152.393 152.135C151.492 153.15 150.678 154.177 150.592 155.602C150.15 164.156 147.597 171.947 142.136 178.664C141.624 179.297 141.568 179.885 141.797 180.664C143.956 187.758 147.817 193.653 153.839 198.082C160.741 203.165 168.643 206.198 176.98 209.143L176.952 209.17ZM189.132 82.6486C190.167 82.5818 190.843 82.1151 191.525 81.6319C192.162 81.1703 192.773 80.681 193.432 80.2636C194.047 79.8679 194.573 80.1043 195.008 80.659C195.356 81.0917 195.489 81.5059 194.984 81.9027C193.22 83.2834 191.466 84.7963 189.041 84.5687C188.007 84.4704 187.492 84.8451 186.984 85.5722C184.768 88.6933 182.023 91.3192 179.114 93.7785C178.648 94.1702 178.198 94.5676 177.786 95.0148C177.258 95.5876 177.391 96.0567 178.2 96.0592C179.097 96.0736 180.006 96 180.894 95.8271C186.023 94.8319 190.9 93.0691 195.488 90.5989C197.297 89.6205 198.949 88.4038 200.553 87.1151C201.191 86.5985 201.515 86.1393 200.934 85.3135C199.098 82.7854 198.373 79.8665 198.172 76.8152C198.1 75.7962 197.754 75.6222 196.856 75.7729C195.186 76.0262 193.493 76.2902 191.923 75.3445C191.343 74.9975 191.119 75.3255 191.087 75.7931C190.915 78.1637 189.854 80.2834 189.132 82.6486ZM159.71 72.7205C160.076 70.2142 160.533 67.9785 161.786 65.9983C162.059 65.5771 162.394 65.1401 161.542 64.9941C159.679 64.684 158.436 63.4828 157.394 62.0194C156.9 61.3155 156.538 61.1909 155.925 61.9554C153.941 64.4017 151.485 66.1884 148.476 67.177C147.708 67.4282 147.447 67.7063 147.68 68.5783C149.751 76.2496 153.582 82.9255 158.819 88.8336C159.206 89.2613 159.683 89.9595 160.297 89.6739C161.082 89.3183 160.667 88.4941 160.524 87.8927C159.676 83.9929 159.192 80.0526 159.32 76.0467C159.349 75.3205 159.117 74.8173 158.582 74.3386C156.913 72.825 156.096 70.8134 155.583 68.6672C155.462 68.1651 155.193 67.502 155.927 67.2945C156.579 67.1138 157.304 67.198 157.672 67.8952C157.947 68.4318 158.095 69.0167 158.26 69.6073C158.547 70.6449 158.691 71.7252 159.727 72.7262L159.71 72.7205Z" fill="#0C0A0A"/>
<path d="M175.472 27.0481C176.955 22.9015 179.248 20.8931 182.643 20.4422C185.983 19.9907 188.733 21.3609 190.583 24.1147C191.494 25.4778 192.072 25.9899 193.819 25.2475C197.158 23.8383 200.926 25.136 203.051 27.9476C205.376 31.0309 205.295 35.3289 202.823 38.7667C201.796 40.1987 200.518 41.397 199.066 42.4065C194.838 45.3315 190.2 47.3059 185.202 48.4565C184.319 48.668 183.748 48.5082 183.161 47.8089C179.592 43.5244 177.014 38.7158 175.62 33.3024C175.021 30.9241 174.907 28.5287 175.472 27.0481ZM201.34 35.053C202.151 32.6997 201.559 30.1949 199.817 28.7852C198.064 27.3533 195.5 27.262 193.379 28.6116C192.67 29.067 192.02 29.6165 191.415 30.1995C190.487 31.0765 189.933 30.8123 189.702 29.6652C189.419 28.2973 189.03 26.967 188.26 25.7815C186.162 22.5738 181.843 22.3936 179.512 25.42C178.213 27.108 178.001 29.0599 178.328 31.1052C179.148 36.0451 181.423 40.3443 184.218 44.4175C184.685 45.0936 185.206 45.2914 186.061 45.0522C190.598 43.7979 194.795 41.8743 198.468 38.9052C199.75 37.8555 200.813 36.6386 201.346 35.0366L201.34 35.053Z" fill="#0C0A0A"/>
<path d="M90.9993 179.464C73.152 173.024 56.2967 164.717 41.7892 152.266C24.6128 137.516 16.4055 118.583 16.2809 96.0638C16.2512 91.8198 16.9914 87.6384 17.9842 83.5255C18.3172 82.1307 18.805 81.7832 19.9108 82.9555C20.9513 84.0501 22.014 85.1339 23.1827 86.0702C24.6351 87.2514 25.5951 87.0297 26.5634 85.3935C27.0057 84.6437 27.5404 83.9995 28.1842 83.4664C29.5993 82.297 31.057 82.3939 32.3648 83.7278C32.828 84.2003 33.2356 84.7272 33.6988 85.1996C34.4947 85.9891 35.3075 86.7292 36.5265 85.9156C37.7012 85.1235 37.2763 84.112 36.8782 83.1834C36.2216 81.6688 35.7415 80.1228 35.3884 78.5286C34.6345 75.1581 34.5791 71.844 35.8282 68.5373C36.2238 67.4953 36.567 67.3006 37.3952 68.1564C42.3479 73.2857 48.635 75.3952 55.5399 76.2449C71.9395 78.2286 85.9747 84.9941 97.1147 97.3344C105.456 106.576 110.822 117.296 112.747 129.666C113.145 132.252 113.098 134.849 113.05 137.447C113.034 138.509 113.245 139.502 114.432 139.635C115.669 139.785 116.278 138.926 116.421 137.761C116.874 134.309 116.467 130.892 115.928 127.485C114.793 120.357 111.968 113.807 108.712 107.439C104.122 98.4218 99.9962 89.2331 96.9927 79.5655C93.8187 69.3238 91.9235 58.8966 93.736 48.1262C96.0392 34.4874 102.878 24.1408 116.036 18.8599C127.442 14.2827 138.584 15.8182 149.245 21.4771C157.661 25.958 163.711 32.5513 166.344 41.8519C167.918 47.4377 167.813 53.0895 165.925 58.6247C165.262 60.5501 164.709 60.8199 163.03 59.708C159.995 57.7241 157.77 55.0986 157.218 51.3558C156.996 49.8619 156.917 48.3255 156.27 46.943C155.629 45.5992 154.67 44.5329 153.021 44.9405C151.327 45.3696 151.136 46.8318 151.243 48.286C151.329 49.5859 152.017 50.688 152.606 51.8112C155.524 57.2892 151.373 64.6404 145.183 64.9757C144.302 65.022 143.707 64.5593 143.051 64.1125C135.785 59.1255 132.99 48.9041 137.014 40.4783C138.835 36.6873 137.608 34.9579 134.594 33.0182C128.168 28.8541 119.827 30.1975 114.219 36.2739C109.668 41.2048 107.83 47.2909 107.127 53.768C106.036 63.9401 108.755 73.4177 112.688 82.6321C117.186 93.1455 123.666 102.501 130.013 111.92C134.988 119.285 139.868 126.708 143.282 134.971C147.292 144.709 148.35 154.627 145.43 164.924C141.536 178.641 131.265 184.787 118.667 185.235C111.024 185.512 103.696 183.486 96.4402 181.356C94.5851 180.809 92.7867 180.098 90.96 179.469L90.9993 179.464Z" fill="white"/>
<path d="M176.955 209.153C168.623 206.192 160.732 203.181 153.814 198.092C147.792 193.663 143.931 187.768 141.772 180.674C141.543 179.895 141.592 179.324 142.111 178.674C147.571 171.957 150.141 164.172 150.567 155.612C150.63 154.198 151.45 153.154 152.368 152.145C158.54 145.287 166.317 140.878 174.723 137.422C183.836 133.675 193.319 130.939 202.535 127.486C212.938 123.576 222.951 118.979 231.614 111.838C238.373 106.268 243.798 99.7604 246.288 91.1928C248.145 84.8372 248.179 78.5902 244.001 73.0282C240.595 68.4867 235.953 66.4098 230.233 67.091C227.566 67.4059 227.149 67.8697 226.572 70.506C224.52 79.8871 217.851 85.8374 208.979 86.2618C205.24 86.4286 204.639 85.9823 202.954 82.6962C200.697 78.2925 202.64 71.58 207.755 70.359C208.963 70.0572 210.114 69.441 210.923 68.3757C211.67 67.3813 212.077 66.3064 211.334 65.2038C210.552 64.0512 209.343 63.9292 208.079 64.2855C206.688 64.6901 205.687 65.671 204.741 66.7075C202.032 69.6585 198.625 70.6763 194.758 70.4675C192.062 70.3308 191.59 69.6712 192.577 67.2315C197.057 56.1461 205.631 50.1154 217.134 48.5721C229.7 46.8796 240.891 50.7329 250.175 59.268C261.767 69.9229 264.337 86.6757 257.284 101.44C251.855 112.769 243.148 121.055 233.007 128.001C224.312 133.953 215.016 138.87 205.499 143.362C197.652 147.066 190.549 151.762 185.071 158.638C184.586 159.244 184.123 159.895 183.698 160.54C183.066 161.519 182.676 162.6 183.823 163.436C185.075 164.346 185.849 163.379 186.475 162.472C188.948 158.924 191.924 155.788 195.454 153.341C216.686 138.617 239.167 135.663 262.965 146.581C266.033 147.988 268.944 149.745 271.906 151.354C276.926 154.095 282.31 155.194 287.978 154.771C289.735 154.639 289.79 155.174 289.287 156.528C287.998 160.005 285.66 162.624 282.689 164.731C281.713 165.426 280.672 166.043 279.664 166.726C278.827 167.285 277.689 167.703 278.111 169.045C278.57 170.492 279.765 170.388 280.956 170.245C281.435 170.19 281.909 170.15 282.399 170.117C285.516 169.938 286.607 170.995 286.526 174.115C286.431 177.653 286.594 177.82 290.165 177.448C291.25 177.343 292.325 177.216 293.395 176.995C294.685 176.722 294.691 177.239 294.318 178.215C292.709 182.355 290.481 186.153 287.766 189.655C272.49 209.374 252.193 218.548 227.423 218.1C210.005 217.79 193.095 214.508 176.927 209.18L176.955 209.153Z" fill="white"/>
<path d="M189.132 82.6486C189.854 80.2834 190.915 78.1637 191.087 75.7931C191.125 75.3091 191.359 75.0032 191.923 75.3445C193.493 76.2902 195.191 76.0097 196.856 75.7729C197.749 75.6386 198.094 75.8126 198.172 76.8152C198.395 79.8557 199.115 82.7911 200.934 85.3135C201.531 86.145 201.191 86.5985 200.553 87.1151C198.949 88.4038 197.297 89.6205 195.488 90.5989C190.878 93.0799 186.023 94.8319 180.894 95.8271C180.006 96 179.103 96.0571 178.2 96.0592C177.391 96.0567 177.258 95.5876 177.786 95.0148C178.198 94.5676 178.648 94.1702 179.114 93.7785C182.023 91.3192 184.768 88.6933 186.984 85.5722C187.492 84.8451 188.007 84.4704 189.041 84.5687C191.461 84.8127 193.215 83.2998 194.984 81.9027C195.489 81.5059 195.339 81.0861 195.008 80.659C194.573 80.1043 194.063 79.8736 193.432 80.2636C192.773 80.681 192.162 81.1703 191.525 81.6319C190.843 82.1151 190.167 82.5818 189.132 82.6486Z" fill="#CECECE"/>
<path d="M159.713 72.7047C158.694 71.7094 158.534 70.6235 158.247 69.5858C158.099 69.0009 157.934 68.4103 157.658 67.8737C157.291 67.1765 156.571 67.0759 155.914 67.273C155.158 67.4913 155.449 68.1436 155.57 68.6457C156.083 70.7919 156.883 72.7979 158.569 74.3172C159.12 74.8015 159.336 75.299 159.306 76.0252C159.184 80.0146 159.669 83.9549 160.511 87.8712C160.637 88.467 161.052 89.2912 160.284 89.6524C159.67 89.9381 159.193 89.2398 158.806 88.8122C153.569 82.904 149.722 76.2224 147.667 68.5568C147.433 67.6848 147.695 67.4067 148.462 67.1555C151.466 66.1834 153.928 64.3802 155.912 61.9339C156.547 61.1586 156.887 61.294 157.381 61.9979C158.407 63.4557 159.65 64.6569 161.529 64.9726C162.381 65.1186 162.046 65.5557 161.772 65.9768C160.52 67.957 160.046 70.187 159.697 72.699L159.713 72.7047Z" fill="#CECECE"/>
<path d="M201.34 35.0556C200.791 36.6519 199.738 37.891 198.462 38.9242C194.783 41.9098 190.592 43.8169 186.055 45.0712C185.2 45.3104 184.684 45.0962 184.212 44.4365C181.418 40.3634 179.143 36.0641 178.322 31.1242C177.973 29.0897 178.207 27.127 179.506 25.439C181.842 22.3962 186.156 22.5928 188.254 25.8005C189.024 26.986 189.419 28.2999 189.697 29.6842C189.928 30.8314 190.481 31.0955 191.409 30.2185C192.014 29.6355 192.664 29.086 193.373 28.6306C195.494 27.281 198.058 27.3723 199.811 28.8042C201.553 30.214 202.161 32.7244 201.335 35.0721L201.34 35.0556Z" fill="black"/>
</svg>
