<svg width="519" height="519" viewBox="0 0 519 519" fill="none" xmlns="http://www.w3.org/2000/svg">
<g filter="url(#filter0_d_746_78)">
<mask id="path-1-inside-1_746_78" fill="white">
<path d="M251.607 370.096C243.323 366.165 235.555 361.93 228.845 355.975C224.77 352.352 221.165 348.33 218.694 343.418C218.101 342.243 217.452 341.983 216.133 342.229C207.934 343.786 199.978 342.563 192.134 340.008C183.267 337.123 174.879 333.141 166.745 328.71C153.394 321.45 140.999 312.789 130.259 301.939C123.9 295.527 118.256 288.556 114.085 280.492C106.928 266.637 103.476 251.997 104.463 236.355C104.965 228.4 106.578 220.708 110.077 213.543C112.835 207.866 117.07 203.404 123.805 203.111C127.05 202.97 128.633 201.763 130.074 199.176C131.865 195.946 134.715 193.804 138.313 192.745C142.948 191.377 147.18 192.472 151.175 194.893C153.42 196.241 155.319 197.995 156.925 200.049C158.523 202.081 160.968 202.142 163.107 202.757C168.884 204.399 174.544 206.28 179.866 209.087C181.278 209.828 181.527 209.506 181.569 208.012C181.729 203.159 182.715 198.431 183.753 193.709C184.833 188.823 186.66 184.263 189.033 179.949C194.228 170.469 201.431 163.054 211.475 158.571C221.313 154.171 231.453 152.873 242.026 154.944C249.129 156.326 255.61 159.141 261.593 163.21C265.366 165.782 268.854 168.676 272.02 171.968C272.869 172.842 273.485 172.791 274.323 172.016C281.146 165.838 291.302 165.878 298.13 172.389C299.647 173.828 301.519 173.814 303.232 174.202C311.813 176.154 317.243 183.907 316.922 192.172C316.83 194.491 316.925 194.371 319.239 194.664C337.466 196.906 352.287 204.752 361.532 221.19C367.796 232.321 369.523 244.24 366.219 256.706C362.944 269.076 356.249 279.36 346.854 287.945C346.596 288.17 346.361 288.426 346.104 288.652C345.405 289.254 345.536 289.668 346.343 290.023C349.382 291.407 352.211 293.187 355.076 294.893C358.741 297.079 362.194 299.551 365.574 302.134C366.541 302.881 367.486 303.026 368.608 303.036C374.187 303.031 379.102 304.661 383.079 308.79C386.673 312.53 388.068 318.859 385.752 323.551C384.467 326.158 384.191 327.944 386.233 330.506C389.557 334.651 389.652 339.664 387.851 344.625C384.677 353.443 378.775 360.345 371.929 366.419C354.779 381.652 334.596 388.265 311.776 387.079C299.206 386.421 287.079 383.559 275.154 379.632C266.989 376.94 258.997 373.852 251.569 370.096L251.607 370.096ZM225.612 327.351C227.043 334.251 229.721 340.334 234.504 345.39C237.7 348.771 241.401 351.492 245.315 353.966C253.943 359.431 263.239 363.484 272.802 366.911C285.275 371.381 298.032 374.771 311.302 375.621C335.806 377.182 356.154 368.747 372.096 349.954C374.303 347.351 376.269 344.557 377.48 341.342C378.46 338.715 377.282 337.035 374.473 336.926C373.439 336.886 372.393 336.987 371.369 337.118C370.524 337.224 370.269 337.026 370.311 336.142C370.444 333.511 369.262 331.496 367.118 329.864C367.921 329.238 368.672 328.643 369.43 328.032C371.764 326.156 373.587 323.884 374.752 321.107C376.177 317.755 375.061 315.717 371.479 315.565C365.354 315.286 360.076 313.036 355.264 309.37C343.161 300.148 329.675 294.835 314.263 295.049C313.706 295.056 313.097 295.13 312.593 294.571C312.822 294.479 313.022 294.41 313.214 294.319C324.403 289.837 334.736 283.961 343.209 275.261C350.713 267.567 355.757 258.476 356.375 247.585C357.185 233.409 351.248 222.252 339.619 214.295C329.548 207.39 318.439 204.561 306.421 208.012C296.018 210.992 288.333 217.231 285.628 228.161C283.662 236.088 279.302 241.985 272.276 246.032C271.427 246.525 270.616 247.091 269.971 247.849C268.982 249.012 268.863 250.358 269.37 251.749C269.823 253.059 270.869 253.604 272.171 253.7C273.085 253.757 274.007 253.835 274.935 253.787C282.649 253.342 289.944 251.401 296.698 247.572C297.635 247.049 298.415 247.002 299.436 247.295C309.64 250.276 320.998 244.344 324.374 234.313C325.086 232.202 325.373 232.028 327.621 232.418C332.229 233.197 335.997 237.262 336.717 242.321C337.525 247.995 335.456 252.862 332.351 257.392C327.528 264.394 320.814 269.092 313.27 272.685C303.931 277.123 293.967 279.578 283.903 281.707C276.677 283.238 269.42 284.57 262.319 286.642C254.574 288.9 247.362 292.23 240.863 297.512C240.666 293.354 240.325 289.458 239.515 285.611C237.52 276.185 233.277 267.66 228.93 259.196C224.249 250.053 219.464 240.97 216.269 231.164C213.442 222.46 211.803 213.593 213.495 204.444C214.649 198.19 216.998 192.48 222.226 188.408C226.165 185.354 231.458 184.952 235.556 187.312C238.308 188.907 238.54 189.684 237.041 192.428C231.954 201.684 234.181 213.106 242.389 219.549C243.529 220.435 244.067 221.417 244.306 222.789C245.742 230.706 248.914 237.861 253.831 244.238C254.849 245.564 256.026 246.449 257.838 245.797C259.607 245.16 260.326 243.792 260.329 242.039C260.342 240.605 260.154 239.166 260.056 237.733C259.606 230.904 261.192 224.712 265.572 219.305C266.583 218.061 267.654 216.845 268.358 215.358C272.798 206.14 272.877 196.853 268.352 187.693C260.404 171.626 239.95 162.374 222.515 167.017C206.962 171.17 198.357 181.967 194.742 197.126C191.872 209.157 193.413 221.078 196.297 232.894C196.609 234.19 196.995 235.449 197.329 236.737C197.415 237.093 197.36 237.473 197.005 237.633C196.673 237.785 196.579 237.407 196.406 237.194C195.397 236.002 194.403 234.817 193.349 233.678C184.48 224.07 173.527 217.955 160.964 214.734C154.579 213.092 149.02 210.318 144.719 205.182C142.836 202.937 140.67 203.215 139.056 205.7C136.895 209.008 136.143 212.687 136.44 216.598C136.484 217.155 136.818 217.798 135.724 217.58C133.326 217.08 131.269 217.854 129.512 219.456C128.755 220.141 128.513 219.765 128.134 219.138C127.574 218.201 127.02 217.249 126.327 216.395C124.594 214.261 122.641 214.328 121.137 216.626C120.509 217.576 119.979 218.63 119.553 219.697C117.234 225.422 115.98 231.387 115.776 237.548C115.071 258.35 121.676 276.534 136.083 291.546C152.106 308.248 171.299 320.286 192.951 328.365C199.591 330.852 206.457 332.266 213.645 331.307C217.865 330.753 221.832 329.43 225.634 327.343L225.612 327.351ZM278.422 184.829C277.717 186.166 277.55 188.449 277.844 190.771C278.529 196.053 280.42 200.904 283.324 205.38C283.8 206.11 284.308 206.32 285.183 206.228C290.066 205.719 294.671 204.373 299.013 202.087C300.505 201.298 301.853 200.309 302.99 199.07C305.727 196.097 306.297 192.034 304.448 188.846C302.758 185.938 299.336 184.276 296.011 185.228C294.256 185.724 293.782 185.18 293.075 183.784C291.639 180.962 289.198 179.334 285.975 179.393C282.699 179.445 280.303 181.07 278.422 184.829Z"/>
</mask>
<path d="M251.607 370.096C243.323 366.165 235.555 361.93 228.845 355.975C224.77 352.352 221.165 348.33 218.694 343.418C218.101 342.243 217.452 341.983 216.133 342.229C207.934 343.786 199.978 342.563 192.134 340.008C183.267 337.123 174.879 333.141 166.745 328.71C153.394 321.45 140.999 312.789 130.259 301.939C123.9 295.527 118.256 288.556 114.085 280.492C106.928 266.637 103.476 251.997 104.463 236.355C104.965 228.4 106.578 220.708 110.077 213.543C112.835 207.866 117.07 203.404 123.805 203.111C127.05 202.97 128.633 201.763 130.074 199.176C131.865 195.946 134.715 193.804 138.313 192.745C142.948 191.377 147.18 192.472 151.175 194.893C153.42 196.241 155.319 197.995 156.925 200.049C158.523 202.081 160.968 202.142 163.107 202.757C168.884 204.399 174.544 206.28 179.866 209.087C181.278 209.828 181.527 209.506 181.569 208.012C181.729 203.159 182.715 198.431 183.753 193.709C184.833 188.823 186.66 184.263 189.033 179.949C194.228 170.469 201.431 163.054 211.475 158.571C221.313 154.171 231.453 152.873 242.026 154.944C249.129 156.326 255.61 159.141 261.593 163.21C265.366 165.782 268.854 168.676 272.02 171.968C272.869 172.842 273.485 172.791 274.323 172.016C281.146 165.838 291.302 165.878 298.13 172.389C299.647 173.828 301.519 173.814 303.232 174.202C311.813 176.154 317.243 183.907 316.922 192.172C316.83 194.491 316.925 194.371 319.239 194.664C337.466 196.906 352.287 204.752 361.532 221.19C367.796 232.321 369.523 244.24 366.219 256.706C362.944 269.076 356.249 279.36 346.854 287.945C346.596 288.17 346.361 288.426 346.104 288.652C345.405 289.254 345.536 289.668 346.343 290.023C349.382 291.407 352.211 293.187 355.076 294.893C358.741 297.079 362.194 299.551 365.574 302.134C366.541 302.881 367.486 303.026 368.608 303.036C374.187 303.031 379.102 304.661 383.079 308.79C386.673 312.53 388.068 318.859 385.752 323.551C384.467 326.158 384.191 327.944 386.233 330.506C389.557 334.651 389.652 339.664 387.851 344.625C384.677 353.443 378.775 360.345 371.929 366.419C354.779 381.652 334.596 388.265 311.776 387.079C299.206 386.421 287.079 383.559 275.154 379.632C266.989 376.94 258.997 373.852 251.569 370.096L251.607 370.096ZM225.612 327.351C227.043 334.251 229.721 340.334 234.504 345.39C237.7 348.771 241.401 351.492 245.315 353.966C253.943 359.431 263.239 363.484 272.802 366.911C285.275 371.381 298.032 374.771 311.302 375.621C335.806 377.182 356.154 368.747 372.096 349.954C374.303 347.351 376.269 344.557 377.48 341.342C378.46 338.715 377.282 337.035 374.473 336.926C373.439 336.886 372.393 336.987 371.369 337.118C370.524 337.224 370.269 337.026 370.311 336.142C370.444 333.511 369.262 331.496 367.118 329.864C367.921 329.238 368.672 328.643 369.43 328.032C371.764 326.156 373.587 323.884 374.752 321.107C376.177 317.755 375.061 315.717 371.479 315.565C365.354 315.286 360.076 313.036 355.264 309.37C343.161 300.148 329.675 294.835 314.263 295.049C313.706 295.056 313.097 295.13 312.593 294.571C312.822 294.479 313.022 294.41 313.214 294.319C324.403 289.837 334.736 283.961 343.209 275.261C350.713 267.567 355.757 258.476 356.375 247.585C357.185 233.409 351.248 222.252 339.619 214.295C329.548 207.39 318.439 204.561 306.421 208.012C296.018 210.992 288.333 217.231 285.628 228.161C283.662 236.088 279.302 241.985 272.276 246.032C271.427 246.525 270.616 247.091 269.971 247.849C268.982 249.012 268.863 250.358 269.37 251.749C269.823 253.059 270.869 253.604 272.171 253.7C273.085 253.757 274.007 253.835 274.935 253.787C282.649 253.342 289.944 251.401 296.698 247.572C297.635 247.049 298.415 247.002 299.436 247.295C309.64 250.276 320.998 244.344 324.374 234.313C325.086 232.202 325.373 232.028 327.621 232.418C332.229 233.197 335.997 237.262 336.717 242.321C337.525 247.995 335.456 252.862 332.351 257.392C327.528 264.394 320.814 269.092 313.27 272.685C303.931 277.123 293.967 279.578 283.903 281.707C276.677 283.238 269.42 284.57 262.319 286.642C254.574 288.9 247.362 292.23 240.863 297.512C240.666 293.354 240.325 289.458 239.515 285.611C237.52 276.185 233.277 267.66 228.93 259.196C224.249 250.053 219.464 240.97 216.269 231.164C213.442 222.46 211.803 213.593 213.495 204.444C214.649 198.19 216.998 192.48 222.226 188.408C226.165 185.354 231.458 184.952 235.556 187.312C238.308 188.907 238.54 189.684 237.041 192.428C231.954 201.684 234.181 213.106 242.389 219.549C243.529 220.435 244.067 221.417 244.306 222.789C245.742 230.706 248.914 237.861 253.831 244.238C254.849 245.564 256.026 246.449 257.838 245.797C259.607 245.16 260.326 243.792 260.329 242.039C260.342 240.605 260.154 239.166 260.056 237.733C259.606 230.904 261.192 224.712 265.572 219.305C266.583 218.061 267.654 216.845 268.358 215.358C272.798 206.14 272.877 196.853 268.352 187.693C260.404 171.626 239.95 162.374 222.515 167.017C206.962 171.17 198.357 181.967 194.742 197.126C191.872 209.157 193.413 221.078 196.297 232.894C196.609 234.19 196.995 235.449 197.329 236.737C197.415 237.093 197.36 237.473 197.005 237.633C196.673 237.785 196.579 237.407 196.406 237.194C195.397 236.002 194.403 234.817 193.349 233.678C184.48 224.07 173.527 217.955 160.964 214.734C154.579 213.092 149.02 210.318 144.719 205.182C142.836 202.937 140.67 203.215 139.056 205.7C136.895 209.008 136.143 212.687 136.44 216.598C136.484 217.155 136.818 217.798 135.724 217.58C133.326 217.08 131.269 217.854 129.512 219.456C128.755 220.141 128.513 219.765 128.134 219.138C127.574 218.201 127.02 217.249 126.327 216.395C124.594 214.261 122.641 214.328 121.137 216.626C120.509 217.576 119.979 218.63 119.553 219.697C117.234 225.422 115.98 231.387 115.776 237.548C115.071 258.35 121.676 276.534 136.083 291.546C152.106 308.248 171.299 320.286 192.951 328.365C199.591 330.852 206.457 332.266 213.645 331.307C217.865 330.753 221.832 329.43 225.634 327.343L225.612 327.351ZM278.422 184.829C277.717 186.166 277.55 188.449 277.844 190.771C278.529 196.053 280.42 200.904 283.324 205.38C283.8 206.11 284.308 206.32 285.183 206.228C290.066 205.719 294.671 204.373 299.013 202.087C300.505 201.298 301.853 200.309 302.99 199.07C305.727 196.097 306.297 192.034 304.448 188.846C302.758 185.938 299.336 184.276 296.011 185.228C294.256 185.724 293.782 185.18 293.075 183.784C291.639 180.962 289.198 179.334 285.975 179.393C282.699 179.445 280.303 181.07 278.422 184.829Z" fill="white"/>
<path d="M251.607 370.096C243.323 366.165 235.555 361.93 228.845 355.975C224.77 352.352 221.165 348.33 218.694 343.418C218.101 342.243 217.452 341.983 216.133 342.229C207.934 343.786 199.978 342.563 192.134 340.008C183.267 337.123 174.879 333.141 166.745 328.71C153.394 321.45 140.999 312.789 130.259 301.939C123.9 295.527 118.256 288.556 114.085 280.492C106.928 266.637 103.476 251.997 104.463 236.355C104.965 228.4 106.578 220.708 110.077 213.543C112.835 207.866 117.07 203.404 123.805 203.111C127.05 202.97 128.633 201.763 130.074 199.176C131.865 195.946 134.715 193.804 138.313 192.745C142.948 191.377 147.18 192.472 151.175 194.893C153.42 196.241 155.319 197.995 156.925 200.049C158.523 202.081 160.968 202.142 163.107 202.757C168.884 204.399 174.544 206.28 179.866 209.087C181.278 209.828 181.527 209.506 181.569 208.012C181.729 203.159 182.715 198.431 183.753 193.709C184.833 188.823 186.66 184.263 189.033 179.949C194.228 170.469 201.431 163.054 211.475 158.571C221.313 154.171 231.453 152.873 242.026 154.944C249.129 156.326 255.61 159.141 261.593 163.21C265.366 165.782 268.854 168.676 272.02 171.968C272.869 172.842 273.485 172.791 274.323 172.016C281.146 165.838 291.302 165.878 298.13 172.389C299.647 173.828 301.519 173.814 303.232 174.202C311.813 176.154 317.243 183.907 316.922 192.172C316.83 194.491 316.925 194.371 319.239 194.664C337.466 196.906 352.287 204.752 361.532 221.19C367.796 232.321 369.523 244.24 366.219 256.706C362.944 269.076 356.249 279.36 346.854 287.945C346.596 288.17 346.361 288.426 346.104 288.652C345.405 289.254 345.536 289.668 346.343 290.023C349.382 291.407 352.211 293.187 355.076 294.893C358.741 297.079 362.194 299.551 365.574 302.134C366.541 302.881 367.486 303.026 368.608 303.036C374.187 303.031 379.102 304.661 383.079 308.79C386.673 312.53 388.068 318.859 385.752 323.551C384.467 326.158 384.191 327.944 386.233 330.506C389.557 334.651 389.652 339.664 387.851 344.625C384.677 353.443 378.775 360.345 371.929 366.419C354.779 381.652 334.596 388.265 311.776 387.079C299.206 386.421 287.079 383.559 275.154 379.632C266.989 376.94 258.997 373.852 251.569 370.096L251.607 370.096ZM225.612 327.351C227.043 334.251 229.721 340.334 234.504 345.39C237.7 348.771 241.401 351.492 245.315 353.966C253.943 359.431 263.239 363.484 272.802 366.911C285.275 371.381 298.032 374.771 311.302 375.621C335.806 377.182 356.154 368.747 372.096 349.954C374.303 347.351 376.269 344.557 377.48 341.342C378.46 338.715 377.282 337.035 374.473 336.926C373.439 336.886 372.393 336.987 371.369 337.118C370.524 337.224 370.269 337.026 370.311 336.142C370.444 333.511 369.262 331.496 367.118 329.864C367.921 329.238 368.672 328.643 369.43 328.032C371.764 326.156 373.587 323.884 374.752 321.107C376.177 317.755 375.061 315.717 371.479 315.565C365.354 315.286 360.076 313.036 355.264 309.37C343.161 300.148 329.675 294.835 314.263 295.049C313.706 295.056 313.097 295.13 312.593 294.571C312.822 294.479 313.022 294.41 313.214 294.319C324.403 289.837 334.736 283.961 343.209 275.261C350.713 267.567 355.757 258.476 356.375 247.585C357.185 233.409 351.248 222.252 339.619 214.295C329.548 207.39 318.439 204.561 306.421 208.012C296.018 210.992 288.333 217.231 285.628 228.161C283.662 236.088 279.302 241.985 272.276 246.032C271.427 246.525 270.616 247.091 269.971 247.849C268.982 249.012 268.863 250.358 269.37 251.749C269.823 253.059 270.869 253.604 272.171 253.7C273.085 253.757 274.007 253.835 274.935 253.787C282.649 253.342 289.944 251.401 296.698 247.572C297.635 247.049 298.415 247.002 299.436 247.295C309.64 250.276 320.998 244.344 324.374 234.313C325.086 232.202 325.373 232.028 327.621 232.418C332.229 233.197 335.997 237.262 336.717 242.321C337.525 247.995 335.456 252.862 332.351 257.392C327.528 264.394 320.814 269.092 313.27 272.685C303.931 277.123 293.967 279.578 283.903 281.707C276.677 283.238 269.42 284.57 262.319 286.642C254.574 288.9 247.362 292.23 240.863 297.512C240.666 293.354 240.325 289.458 239.515 285.611C237.52 276.185 233.277 267.66 228.93 259.196C224.249 250.053 219.464 240.97 216.269 231.164C213.442 222.46 211.803 213.593 213.495 204.444C214.649 198.19 216.998 192.48 222.226 188.408C226.165 185.354 231.458 184.952 235.556 187.312C238.308 188.907 238.54 189.684 237.041 192.428C231.954 201.684 234.181 213.106 242.389 219.549C243.529 220.435 244.067 221.417 244.306 222.789C245.742 230.706 248.914 237.861 253.831 244.238C254.849 245.564 256.026 246.449 257.838 245.797C259.607 245.16 260.326 243.792 260.329 242.039C260.342 240.605 260.154 239.166 260.056 237.733C259.606 230.904 261.192 224.712 265.572 219.305C266.583 218.061 267.654 216.845 268.358 215.358C272.798 206.14 272.877 196.853 268.352 187.693C260.404 171.626 239.95 162.374 222.515 167.017C206.962 171.17 198.357 181.967 194.742 197.126C191.872 209.157 193.413 221.078 196.297 232.894C196.609 234.19 196.995 235.449 197.329 236.737C197.415 237.093 197.36 237.473 197.005 237.633C196.673 237.785 196.579 237.407 196.406 237.194C195.397 236.002 194.403 234.817 193.349 233.678C184.48 224.07 173.527 217.955 160.964 214.734C154.579 213.092 149.02 210.318 144.719 205.182C142.836 202.937 140.67 203.215 139.056 205.7C136.895 209.008 136.143 212.687 136.44 216.598C136.484 217.155 136.818 217.798 135.724 217.58C133.326 217.08 131.269 217.854 129.512 219.456C128.755 220.141 128.513 219.765 128.134 219.138C127.574 218.201 127.02 217.249 126.327 216.395C124.594 214.261 122.641 214.328 121.137 216.626C120.509 217.576 119.979 218.63 119.553 219.697C117.234 225.422 115.98 231.387 115.776 237.548C115.071 258.35 121.676 276.534 136.083 291.546C152.106 308.248 171.299 320.286 192.951 328.365C199.591 330.852 206.457 332.266 213.645 331.307C217.865 330.753 221.832 329.43 225.634 327.343L225.612 327.351ZM278.422 184.829C277.717 186.166 277.55 188.449 277.844 190.771C278.529 196.053 280.42 200.904 283.324 205.38C283.8 206.11 284.308 206.32 285.183 206.228C290.066 205.719 294.671 204.373 299.013 202.087C300.505 201.298 301.853 200.309 302.99 199.07C305.727 196.097 306.297 192.034 304.448 188.846C302.758 185.938 299.336 184.276 296.011 185.228C294.256 185.724 293.782 185.18 293.075 183.784C291.639 180.962 289.198 179.334 285.975 179.393C282.699 179.445 280.303 181.07 278.422 184.829Z" stroke="#262626" stroke-width="1.2" mask="url(#path-1-inside-1_746_78)"/>
</g>
<path d="M225.611 327.352C221.809 329.439 217.85 330.747 213.622 331.316C206.442 332.26 199.576 330.846 192.928 328.374C171.276 320.295 152.083 308.257 136.06 291.555C121.639 276.536 115.033 258.351 115.753 237.557C115.972 231.403 117.226 225.438 119.53 219.706C119.956 218.639 120.494 217.607 121.114 216.634C122.611 214.351 124.556 214.262 126.304 216.404C126.983 217.25 127.551 218.21 128.111 219.147C128.483 219.789 128.725 220.165 129.489 219.465C131.247 217.863 133.303 217.089 135.701 217.589C136.788 217.821 136.461 217.164 136.418 216.607C136.12 212.696 136.873 209.017 139.034 205.709C140.662 203.231 142.828 202.953 144.696 205.19C148.997 210.326 154.571 213.108 160.942 214.743C173.519 217.972 184.457 224.079 193.327 233.687C194.38 234.826 195.389 236.018 196.383 237.203C196.556 237.416 196.635 237.787 196.982 237.642C197.33 237.496 197.407 237.109 197.307 236.746C196.972 235.458 196.594 234.184 196.274 232.903C193.39 221.086 191.849 209.166 194.72 197.135C198.334 181.975 206.947 171.164 222.493 167.026C239.927 162.383 260.381 171.635 268.329 187.702C272.855 196.862 272.775 206.149 268.335 215.367C267.616 216.846 266.561 218.07 265.55 219.314C261.176 224.706 259.584 230.913 260.034 237.742C260.132 239.175 260.319 240.614 260.306 242.048C260.289 243.794 259.591 245.154 257.816 245.806C256.003 246.458 254.827 245.573 253.808 244.247C248.914 237.862 245.719 230.715 244.283 222.798C244.03 221.419 243.506 220.444 242.367 219.558C234.143 213.108 231.917 201.685 237.018 192.437C238.532 189.701 238.3 188.923 235.533 187.321C231.435 184.961 226.135 185.341 222.203 188.417C216.975 192.489 214.627 198.199 213.473 204.453C211.795 213.61 213.419 222.469 216.246 231.173C219.442 240.979 224.226 250.062 228.907 259.205C233.247 267.684 237.497 276.193 239.492 285.62C240.309 289.452 240.636 293.341 240.84 297.521C247.339 292.238 254.552 288.909 262.296 286.651C269.397 284.578 276.655 283.247 283.88 281.715C293.944 279.587 303.908 277.132 313.248 272.694C320.791 269.101 327.52 264.41 332.328 257.401C335.448 252.878 337.509 247.989 336.694 242.33C335.975 237.271 332.206 233.206 327.599 232.427C325.343 232.052 325.063 232.211 324.352 234.322C320.953 244.36 309.617 250.285 299.413 247.304C298.392 247.011 297.597 247.05 296.675 247.581C289.929 251.395 282.626 253.351 274.912 253.796C273.999 253.851 273.077 253.773 272.148 253.709C270.847 253.613 269.8 253.067 269.347 251.758C268.863 250.359 268.974 249.028 269.949 247.858C270.594 247.1 271.404 246.534 272.253 246.041C279.272 242.008 283.639 236.097 285.606 228.17C288.311 217.24 295.995 211.001 306.398 208.021C318.416 204.57 329.525 207.399 339.596 214.304C351.225 222.26 357.162 233.417 356.352 247.594C355.734 258.484 350.69 267.576 343.186 275.269C334.713 283.97 324.388 289.868 313.191 294.328C312.984 294.412 312.785 294.481 312.57 294.58C313.052 295.146 313.668 295.058 314.24 295.058C329.653 294.844 343.138 300.157 355.241 309.379C360.038 313.038 365.331 315.295 371.456 315.574C375.031 315.741 376.132 317.771 374.729 321.116C373.55 323.885 371.741 326.164 369.407 328.041C368.649 328.652 367.883 329.24 367.096 329.873C369.239 331.505 370.421 333.519 370.288 336.151C370.239 337.05 370.509 337.255 371.347 337.127C372.37 336.996 373.417 336.895 374.45 336.935C377.267 337.029 378.437 338.724 377.457 341.351C376.246 344.566 374.273 347.375 372.074 349.963C356.139 368.741 335.784 377.191 311.28 375.63C298.009 374.78 285.252 371.39 272.779 366.92C263.201 363.486 253.905 359.433 245.292 353.975C241.378 351.501 237.677 348.78 234.481 345.399C229.698 340.343 227.006 334.253 225.589 327.36L225.611 327.352ZM180.896 319.538C182.554 320.343 184.184 321.209 185.871 321.954C192.501 324.805 199.211 327.566 206.484 328.181C218.471 329.202 228.907 324.558 234.172 312.01C238.12 302.589 238.256 293.071 235.574 283.384C233.288 275.165 229.516 267.571 225.648 260.023C220.694 250.377 215.65 240.763 212.595 230.286C209.927 221.105 208.431 211.828 210.64 202.301C212.041 196.223 214.488 190.69 219.366 186.541C225.377 181.427 233.434 181.112 239.044 185.795C241.677 187.978 242.626 189.75 240.481 193.14C235.701 200.661 237.176 210.666 243.487 216.225C244.043 216.716 244.569 217.23 245.409 217.287C251.305 217.695 256.103 211.199 253.952 205.667C253.523 204.535 252.998 203.412 253.065 202.17C253.146 200.788 253.479 199.417 255.134 199.205C256.728 199.001 257.529 200.128 257.983 201.475C258.437 202.859 258.335 204.324 258.374 205.765C258.467 209.374 260.274 212.117 262.922 214.345C264.392 215.576 264.94 215.399 265.789 213.651C268.235 208.615 268.976 203.288 268.111 197.808C266.691 188.679 261.716 181.738 254.249 176.542C244.798 169.957 234.426 167.208 223.087 170.251C210.015 173.744 202.347 182.761 198.6 195.419C195.647 205.415 196.238 215.489 198.077 225.579C199.813 235.083 202.66 244.277 205.981 253.332C208.313 259.746 210.245 266.262 210.517 273.153C210.637 276.442 210.63 279.726 209.805 282.945C209.535 284.033 208.86 284.776 207.706 284.492C206.596 284.23 206.51 283.265 206.647 282.261C206.991 279.805 207.334 277.35 207.253 274.854C206.849 262.913 202.996 252.141 196.153 242.428C187.015 229.458 174.487 221.452 159.185 217.676C152.733 216.093 147.026 213.358 142.922 207.93C142.236 207.024 141.888 207.169 141.394 208.111C139.838 211.085 139.518 214.254 139.831 217.526C139.982 219.077 140.275 220.604 140.708 222.107C140.993 223.04 141.258 224.055 140.061 224.656C138.806 225.301 138.12 224.507 137.464 223.653C137.08 223.152 136.754 222.606 136.369 222.105C135.283 220.691 133.913 220.432 132.438 221.378C131.767 221.809 131.179 222.373 130.682 223.017C129.584 224.442 128.649 224.541 127.401 223.271C126.401 222.249 125.504 221.093 124.659 219.944C123.746 218.707 123.243 218.98 122.768 220.263C121.348 224.061 120.174 227.922 119.715 231.947C117.264 253.304 122.866 272.183 137.432 288.122C149.748 301.583 164.756 311.403 180.933 319.537L180.896 319.538ZM258.921 357.547C273.628 364.451 289.264 369.516 305.738 371.793C329.162 375.046 349.437 368.699 366.173 351.769C369.148 348.764 371.695 345.421 373.695 341.683C374.167 340.787 374.214 340.311 372.96 340.422C371.92 340.508 370.888 340.505 369.847 340.48C366.429 340.407 366.286 340.246 366.783 336.904C367.217 333.957 366.298 332.846 363.331 332.643C362.87 332.603 362.41 332.601 361.949 332.599C360.805 332.597 359.66 332.558 359.392 331.135C359.161 329.823 360.287 329.557 361.129 329.117C362.156 328.6 363.213 328.134 364.224 327.573C367.281 325.919 369.796 323.706 371.416 320.559C372.056 319.319 372.058 318.821 370.378 318.744C364.959 318.494 359.978 316.85 355.543 313.662C352.914 311.775 350.365 309.799 347.62 308.114C326.319 295.053 304.688 295.257 282.883 306.77C279.257 308.684 276.093 311.32 273.328 314.39C272.631 315.178 271.786 316.005 270.705 315C269.713 314.075 270.207 313.096 270.918 312.241C271.402 311.664 271.908 311.116 272.437 310.597C278.417 304.711 285.685 301.077 293.545 298.468C303.077 295.305 312.448 291.714 321.369 287.072C331.774 281.656 340.975 274.805 347.418 264.694C355.81 251.523 355.283 235.348 345.524 223.923C337.692 214.764 327.525 209.844 315.447 209.997C304.372 210.139 295.549 214.884 290.04 224.857C288.824 227.056 289.196 227.735 291.735 228.174C295.375 228.815 298.719 228.242 301.625 225.757C302.632 224.899 303.7 224.069 305.064 223.845C306.288 223.646 307.435 223.907 308.043 225.089C308.621 226.219 308.112 227.191 307.289 228.047C306.401 228.964 305.233 229.43 304.06 229.562C299.09 230.14 296.478 236.276 298.096 240.7C299.316 244.007 299.834 244.499 303.396 244.77C311.842 245.401 318.851 240.514 321.872 231.861C322.72 229.43 323.154 229.031 325.732 229.046C331.23 229.057 335.389 231.558 338.095 236.251C341.408 242.015 340.666 247.915 338.177 253.723C334.82 261.548 328.933 267.09 321.905 271.599C312.878 277.371 302.878 280.583 292.558 283.087C283.431 285.301 274.133 286.805 265.068 289.308C256.707 291.618 248.826 294.918 242.199 300.692C241.228 301.55 240.339 302.43 240.095 303.77C238.694 311.824 235.38 318.912 229.436 324.649C228.878 325.19 228.758 325.741 228.885 326.505C230.117 333.474 233.098 339.502 238.295 344.39C244.251 349.997 251.389 353.778 258.95 357.525L258.921 357.547ZM284.981 239.075C285.969 239.131 286.663 238.766 287.365 238.387C288.022 238.023 288.656 237.629 289.328 237.309C289.956 237.005 290.428 237.289 290.776 237.865C291.056 238.315 291.135 238.722 290.611 239.04C288.782 240.146 286.946 241.378 284.674 240.884C283.706 240.672 283.175 240.968 282.61 241.599C280.152 244.301 277.25 246.474 274.212 248.47C273.726 248.788 273.254 249.113 272.813 249.489C272.246 249.971 272.318 250.431 273.084 250.526C273.933 250.643 274.802 250.677 275.663 250.615C280.637 250.261 285.46 249.151 290.09 247.337C291.917 246.618 293.622 245.655 295.289 244.618C295.953 244.202 296.312 243.804 295.857 242.955C294.408 240.349 294.056 237.5 294.215 234.586C294.263 233.612 293.957 233.408 293.088 233.448C291.476 233.496 289.843 233.552 288.463 232.475C287.954 232.08 287.704 232.365 287.62 232.805C287.185 235.031 285.936 236.917 284.981 239.075ZM258.245 226.292C258.88 223.96 259.569 221.894 260.983 220.162C261.291 219.794 261.658 219.418 260.868 219.182C259.139 218.675 258.099 217.394 257.279 215.888C256.892 215.164 256.563 215.005 255.895 215.659C253.734 217.749 251.202 219.16 248.238 219.751C247.482 219.901 247.202 220.134 247.323 220.987C248.405 228.493 251.268 235.258 255.552 241.456C255.869 241.906 256.241 242.622 256.856 242.422C257.64 242.175 257.341 241.346 257.275 240.76C256.919 236.968 256.913 233.179 257.494 229.399C257.605 228.714 257.443 228.211 256.991 227.696C255.583 226.07 255.04 224.071 254.801 221.978C254.743 221.489 254.565 220.83 255.284 220.717C255.922 220.621 256.6 220.784 256.868 221.487C257.067 222.027 257.141 222.598 257.229 223.176C257.382 224.192 257.394 225.232 258.26 226.3L258.245 226.292Z" fill="#0C0A0A"/>
<path d="M278.422 184.829C280.303 181.071 282.706 179.431 285.974 179.393C289.19 179.349 291.638 180.963 293.075 183.784C293.781 185.18 294.271 185.732 296.011 185.229C299.335 184.277 302.757 185.939 304.447 188.846C306.296 192.034 305.726 196.097 302.989 199.07C301.852 200.309 300.504 201.298 299.012 202.088C294.67 204.374 290.05 205.712 285.183 206.228C284.322 206.328 283.8 206.111 283.323 205.381C280.434 200.912 278.543 196.06 277.844 190.771C277.55 188.449 277.716 186.167 278.422 184.829ZM302.011 195.382C303.049 193.245 302.776 190.804 301.287 189.269C299.791 187.711 297.372 187.33 295.207 188.366C294.483 188.716 293.805 189.162 293.164 189.644C292.184 190.369 291.69 190.055 291.603 188.942C291.492 187.613 291.276 186.308 290.683 185.097C289.063 181.817 284.991 181.15 282.436 183.75C281.011 185.2 280.586 187.025 280.661 189.001C280.872 193.775 282.534 198.109 284.714 202.289C285.079 202.983 285.549 203.23 286.387 203.102C290.83 202.434 295.027 201.093 298.847 198.702C300.182 197.855 301.329 196.824 302.018 195.367L302.011 195.382Z" fill="#0C0A0A"/>
<path d="M180.896 319.537C164.726 311.388 149.711 301.583 137.395 288.122C122.814 272.176 117.212 253.296 119.678 231.947C120.137 227.922 121.318 224.046 122.731 220.263C123.206 218.98 123.708 218.707 124.622 219.944C125.482 221.101 126.364 222.249 127.364 223.271C128.604 224.556 129.539 224.457 130.645 223.018C131.15 222.358 131.73 221.809 132.401 221.378C133.876 220.432 135.246 220.691 136.332 222.105C136.717 222.606 137.042 223.152 137.427 223.653C138.091 224.492 138.776 225.287 140.024 224.656C141.228 224.04 140.941 223.033 140.671 222.107C140.222 220.597 139.945 219.077 139.793 217.526C139.466 214.247 139.794 211.1 141.357 208.111C141.851 207.169 142.199 207.024 142.885 207.93C146.989 213.358 152.703 216.078 159.148 217.676C174.457 221.437 186.978 229.458 196.116 242.428C202.959 252.141 206.812 262.913 207.216 274.854C207.297 277.35 206.954 279.805 206.61 282.261C206.473 283.265 206.559 284.23 207.669 284.492C208.823 284.776 209.498 284.033 209.768 282.945C210.593 279.726 210.6 276.442 210.48 273.153C210.223 266.269 208.298 259.739 205.944 253.332C202.63 244.262 199.776 235.083 198.04 225.579C196.208 215.512 195.61 205.415 198.563 195.419C202.31 182.761 209.978 173.744 223.05 170.251C234.381 167.223 244.761 169.957 254.212 176.542C261.671 181.753 266.647 188.694 268.074 197.808C268.924 203.281 268.176 208.623 265.752 213.651C264.903 215.399 264.348 215.591 262.885 214.345C260.237 212.117 258.43 209.374 258.337 205.765C258.298 204.324 258.4 202.859 257.946 201.475C257.492 200.128 256.706 199.008 255.096 199.205C253.442 199.417 253.094 200.781 253.028 202.17C252.961 203.412 253.486 204.535 253.915 205.667C256.051 211.192 251.275 217.68 245.372 217.287C244.531 217.23 244.02 216.723 243.45 216.225C237.138 210.666 235.664 200.661 240.444 193.14C242.604 189.757 241.64 187.978 239.007 185.795C233.397 181.112 225.34 181.427 219.329 186.541C214.451 190.69 212.011 196.245 210.603 202.301C208.401 211.813 209.89 221.105 212.558 230.286C215.613 240.763 220.679 250.37 225.611 260.023C229.479 267.571 233.251 275.165 235.537 283.384C238.218 293.071 238.083 302.589 234.135 312.01C228.87 324.558 218.434 329.202 206.447 328.181C199.174 327.566 192.464 324.805 185.834 321.955C184.139 321.224 182.517 320.343 180.859 319.538L180.896 319.537Z" fill="white"/>
<path d="M258.928 357.531C251.374 353.77 244.244 350.011 238.273 344.396C233.076 339.508 230.095 333.48 228.863 326.511C228.736 325.747 228.848 325.211 229.414 324.655C235.358 318.918 238.687 311.838 240.072 303.776C240.295 302.444 241.191 301.549 242.177 300.699C248.811 294.909 256.685 291.625 265.046 289.315C274.11 286.811 283.409 285.308 292.536 283.093C302.841 280.583 312.856 277.377 321.883 271.605C328.926 267.104 334.813 261.561 338.155 253.73C340.644 247.921 341.393 242.007 338.073 236.258C335.367 231.564 331.208 229.064 325.71 229.052C323.147 229.045 322.698 229.436 321.85 231.868C318.829 240.52 311.827 245.392 303.373 244.776C299.812 244.505 299.294 244.013 298.074 240.706C296.441 236.275 299.053 230.139 304.038 229.569C305.218 229.421 306.379 228.97 307.267 228.053C308.09 227.197 308.598 226.225 308.021 225.095C307.413 223.914 306.281 223.659 305.042 223.852C303.678 224.075 302.618 224.89 301.602 225.763C298.697 228.248 295.353 228.822 291.713 228.18C289.174 227.741 288.802 227.062 290.018 224.864C295.534 214.875 304.35 210.146 315.425 210.004C327.525 209.843 337.685 214.778 345.502 223.929C355.261 235.355 355.773 251.522 347.396 264.7C340.952 274.811 331.752 281.662 321.347 287.078C312.426 291.72 303.055 295.312 293.523 298.475C285.663 301.083 278.395 304.718 272.415 310.603C271.886 311.122 271.373 311.685 270.896 312.248C270.185 313.103 269.691 314.082 270.683 315.006C271.764 316.012 272.609 315.185 273.305 314.397C276.056 311.319 279.235 308.69 282.861 306.776C304.666 295.264 326.305 295.045 347.598 308.12C350.343 309.805 352.9 311.804 355.521 313.668C359.963 316.841 364.937 318.5 370.356 318.75C372.036 318.827 372.027 319.34 371.394 320.566C369.774 323.712 367.259 325.925 364.202 327.579C363.198 328.126 362.141 328.591 361.107 329.123C360.25 329.556 359.124 329.822 359.369 331.141C359.638 332.565 360.783 332.604 361.927 332.605C362.388 332.607 362.841 332.625 363.309 332.649C366.283 332.838 367.195 333.964 366.761 336.911C366.264 340.252 366.4 340.429 369.825 340.486C370.866 340.511 371.898 340.514 372.937 340.428C374.192 340.317 374.138 340.808 373.673 341.69C371.672 345.427 369.126 348.77 366.151 351.776C349.415 368.705 329.133 375.067 305.716 371.8C289.249 369.508 273.605 364.457 258.898 357.554L258.928 357.531Z" fill="white"/>
<path d="M284.979 239.075C285.935 236.917 287.184 235.031 287.619 232.804C287.71 232.35 287.967 232.087 288.462 232.475C289.841 233.551 291.482 233.481 293.087 233.447C293.948 233.423 294.255 233.627 294.214 234.586C294.077 237.492 294.422 240.356 295.855 242.954C296.326 243.811 295.952 244.201 295.288 244.618C293.621 245.654 291.916 246.618 290.089 247.337C285.437 249.158 280.636 250.261 275.662 250.615C274.801 250.677 273.939 250.628 273.083 250.526C272.317 250.431 272.245 249.971 272.812 249.489C273.253 249.113 273.725 248.788 274.211 248.47C277.249 246.474 280.151 244.301 282.609 241.598C283.174 240.968 283.705 240.672 284.673 240.884C286.938 241.393 288.773 240.161 290.61 239.04C291.134 238.722 291.04 238.307 290.775 237.864C290.427 237.289 289.97 237.012 289.327 237.309C288.655 237.629 288.021 238.022 287.364 238.386C286.662 238.766 285.968 239.131 284.979 239.075Z" fill="#CECECE"/>
<path d="M258.252 226.276C257.4 225.216 257.373 224.169 257.22 223.153C257.147 222.582 257.059 222.004 256.859 221.464C256.591 220.761 255.921 220.583 255.276 220.694C254.534 220.814 254.735 221.466 254.792 221.955C255.032 224.048 255.56 226.04 256.983 227.673C257.449 228.195 257.596 228.691 257.485 229.376C256.912 233.141 256.918 236.93 257.266 240.737C257.318 241.316 257.617 242.145 256.847 242.399C256.233 242.599 255.861 241.882 255.543 241.433C251.26 235.234 248.382 228.462 247.315 220.964C247.194 220.111 247.473 219.877 248.229 219.728C251.187 219.151 253.726 217.726 255.886 215.636C256.577 214.974 256.883 215.141 257.271 215.865C258.075 217.364 259.115 218.644 260.859 219.159C261.65 219.395 261.282 219.771 260.975 220.138C259.561 221.871 258.856 223.929 258.237 226.269L258.252 226.276Z" fill="#CECECE"/>
<path d="M302.012 195.382C301.308 196.831 300.169 197.884 298.841 198.716C295.013 201.123 290.823 202.449 286.381 203.116C285.543 203.245 285.079 202.983 284.708 202.304C282.528 198.124 280.866 193.789 280.655 189.015C280.558 187.047 281.005 185.215 282.43 183.765C284.992 181.15 289.056 181.831 290.676 185.111C291.27 186.323 291.492 187.613 291.597 188.956C291.684 190.07 292.178 190.383 293.158 189.659C293.799 189.176 294.477 188.73 295.201 188.38C297.366 187.345 299.785 187.726 301.281 189.283C302.769 190.819 303.057 193.267 302.005 195.397L302.012 195.382Z" fill="black"/>
<defs>
<filter id="filter0_d_746_78" x="100.297" y="153.98" width="292.721" height="241.232" filterUnits="userSpaceOnUse" color-interpolation-filters="sRGB">
<feFlood flood-opacity="0" result="BackgroundImageFix"/>
<feColorMatrix in="SourceAlpha" type="matrix" values="0 0 0 0 0 0 0 0 0 0 0 0 0 0 0 0 0 0 127 0" result="hardAlpha"/>
<feOffset dy="4"/>
<feGaussianBlur stdDeviation="2"/>
<feComposite in2="hardAlpha" operator="out"/>
<feColorMatrix type="matrix" values="0 0 0 0 0 0 0 0 0 0 0 0 0 0 0 0 0 0 0.25 0"/>
<feBlend mode="normal" in2="BackgroundImageFix" result="effect1_dropShadow_746_78"/>
<feBlend mode="normal" in="SourceGraphic" in2="effect1_dropShadow_746_78" result="shape"/>
</filter>
</defs>
</svg>
