<svg width="1493" height="275" viewBox="0 0 1493 275" fill="none" xmlns="http://www.w3.org/2000/svg">
<path d="M380.459 200.785C383.588 190.291 386.762 179.809 389.857 169.304C399.098 137.867 408.383 106.453 417.442 74.9599C418.707 70.5544 420.639 68.6793 425.428 68.7697C440.215 69.0408 455.012 68.8375 469.799 68.8826C475.684 68.9052 475.899 69.3345 474.023 74.9486C452.911 137.957 431.754 200.955 410.789 264.02C409.049 269.261 406.892 271.577 400.826 271.34C386.243 270.775 371.614 271.001 357.02 271.249C352.705 271.328 351.033 269.77 349.712 265.748C336.947 226.732 323.934 187.806 310.967 148.858C310.221 146.61 309.317 144.407 307.815 140.386C306.347 144.475 305.375 147.051 304.505 149.649C291.583 188.416 278.604 227.161 265.885 265.997C264.518 270.165 262.484 271.295 258.373 271.238C243.394 271.035 228.416 270.91 213.449 271.295C208.569 271.419 206.694 269.499 205.304 265.342C190.676 221.525 175.935 177.73 161.194 133.947C154.563 114.236 147.932 94.5131 141.132 74.8582C139.63 70.5319 141.133 68.8149 145.244 68.8149C161.51 68.9617 177.788 68.9504 194.054 68.8149C198.007 68.781 199.939 70.1365 201.08 74.0562C213.268 115.953 225.626 157.793 237.95 199.644C238.142 200.3 238.481 200.91 239.441 203.157C242.016 195.284 244.196 188.834 246.241 182.328C257.514 146.52 268.833 110.711 279.937 74.8469C281.292 70.4641 283.167 68.6341 288.025 68.7471C302.257 69.086 316.502 68.9617 330.735 68.8149C334.937 68.7697 337.365 69.8089 338.755 74.3273C350.141 111.265 361.798 148.124 373.399 184.994C375.071 190.325 376.867 195.612 378.607 200.921C379.217 200.864 379.838 200.83 380.459 200.785Z" fill="#0A0A0A"/>
<path d="M733.287 271.148C714.254 271.148 696.146 271.249 678.05 270.956C676.492 270.933 674.21 268.516 673.577 266.742C670.459 257.954 667.782 249.008 664.834 239.756C658.779 245.167 653.504 250.612 647.529 255.085C630.348 267.94 610.964 274.661 589.343 274.977C561.318 275.384 535.936 267.917 514.564 249.482C486.686 225.444 476.056 194.2 479.49 158.301C483.726 113.999 514.598 79.1732 558.087 68.8713C591.06 61.0658 622.384 65.3243 650.906 84.2676C673.826 99.4945 686.669 121.906 694.689 147.57C706.821 186.405 719.122 225.184 731.333 263.997C732.011 266.087 732.497 268.211 733.287 271.148ZM534.095 170.128C533.722 197.521 550.881 223.004 583.244 225.207C605.519 226.721 623.536 217.266 633.748 196.945C643.948 176.634 642.841 155.918 629.659 137.223C616.024 117.884 591.896 110.79 570.095 118.088C547.469 125.656 533.858 145.333 534.095 170.128Z" fill="#0A0A0A"/>
<path d="M1054.17 224.687C1073.92 231.002 1091.61 229.149 1107.78 217.65C1123.81 206.252 1130.79 189.873 1132 170.602C1133.63 170.399 1134.88 170.117 1136.14 170.117C1150.19 170.083 1164.24 170.173 1178.28 170.037C1182 170.004 1183.54 170.975 1183.34 175.064C1180.97 222.778 1144.01 264.054 1096.74 272.627C1072.9 276.953 1049.73 275.801 1027.9 265.511C990.124 247.708 969.52 217.751 966.9 175.776C963.805 126.288 999.014 78.145 1052.94 68.0013C1096.62 59.7778 1134.53 71.2771 1163.99 106.046C1167.03 109.638 1166.94 111.705 1163.54 115.083C1128.14 150.157 1092.92 185.423 1057.65 220.643C1056.62 221.649 1055.75 222.823 1054.17 224.687ZM1094.78 115.794C1073.69 106.995 1047.36 113.863 1031.72 132.275C1017.7 148.778 1014.63 174.42 1022.37 188.54C1046.41 164.378 1070.53 140.16 1094.78 115.794Z" fill="#0A0A0A"/>
<path d="M935.43 270.855C916.735 270.855 898.345 270.855 879.413 270.855C879.413 268.584 879.413 266.607 879.413 264.619C879.413 225.547 879.413 186.463 879.413 147.39C879.413 145.368 879.447 143.324 879.277 141.313C877.583 121.104 861.452 111.096 843.153 120.122C832.512 125.374 823.024 133.033 813.332 140.048C811.773 141.177 811.299 144.589 811.287 146.938C811.163 186.203 811.197 225.468 811.197 264.721C811.197 266.698 811.197 268.686 811.197 270.889C792.186 270.889 773.785 270.889 754.988 270.889C754.988 203.734 754.988 136.749 754.988 69.403C772.949 69.403 790.785 69.403 809.254 69.403C809.254 74.4184 809.254 79.2643 809.254 85.319C814.303 82.4159 818.392 80.1341 822.425 77.7394C846.18 63.5969 871.065 60.6486 896.617 71.7638C921.344 82.5176 934.729 102.647 935.418 128.91C936.638 175.698 935.825 222.542 935.848 269.352C935.825 269.736 935.644 270.075 935.43 270.855Z" fill="#0A0A0A"/>
<path d="M1338.92 119.375C1338.92 102.657 1338.92 86.5156 1338.92 69.4361C1351.1 69.4361 1363.31 69.4361 1376.23 69.4361C1376.23 57.8917 1376.55 47.2509 1376.09 36.644C1375.87 31.2446 1377.74 28.4771 1382.53 26.071C1397.37 18.627 1411.93 10.6182 1426.6 2.86916C1428.33 1.95419 1430.18 1.27644 1433.11 0C1433.11 2.97083 1433.11 4.90243 1433.11 6.84533C1433.11 25.461 1433.29 44.0767 1432.98 62.6811C1432.9 67.7304 1434.18 69.3909 1439.4 69.2893C1454.55 68.9617 1469.7 69.165 1484.85 69.1876C1487.02 69.1876 1489.18 69.3683 1492 69.4813C1492 78.6084 1492 87.2272 1492 95.8573C1492 101.935 1491.79 108.034 1492.08 114.1C1492.27 118.133 1491.09 119.545 1486.83 119.477C1470.94 119.229 1455.04 119.567 1439.16 119.274C1434.18 119.183 1432.91 120.821 1433.01 125.6C1433.43 145.119 1432.63 164.706 1433.85 184.169C1435.24 206.388 1452.22 221.378 1474.78 221.694C1479.8 221.762 1481.49 223.016 1481.36 228.167C1481.02 241.428 1481.26 254.701 1481.24 267.973C1481.24 270.549 1481.63 273.215 1477.52 273.215C1452.03 273.215 1428.42 267.341 1408.4 250.815C1387.12 233.25 1377.57 209.822 1376.51 182.915C1375.76 163.588 1376.13 144.215 1376.34 124.865C1376.39 120.347 1374.92 119.195 1370.66 119.296C1360.19 119.545 1349.71 119.375 1338.92 119.375Z" fill="#0A0A0A"/>
<path d="M123.431 69.8662C123.431 86.4712 123.431 102.478 123.431 119.094C121.297 119.184 119.342 119.354 117.388 119.354C100.568 119.376 83.7375 119.365 66.9179 119.365C65.2574 119.365 63.5856 119.32 61.9251 119.467C57.8134 119.839 54.097 121.229 52.9787 125.6C51.7926 130.232 53.7129 133.937 57.8021 136.365C67.6408 142.217 77.5813 147.899 87.341 153.863C95.2029 158.664 103.63 162.922 110.475 168.932C128.718 184.949 134.23 205.53 127.679 228.597C120.992 252.137 104.387 266.732 80.4391 269.612C59.6433 272.109 38.3957 270.798 17.34 271.137C12.7652 271.216 8.17903 271.148 3.22011 271.148C3.22011 254.487 3.22011 238.356 3.22011 221.605C5.17431 221.514 7.12851 221.345 9.0827 221.345C27.9356 221.322 46.7998 221.503 65.6528 221.164C69.0076 221.107 73.1533 219.763 75.4689 217.504C79.4338 213.63 77.5474 207.496 71.9672 204.107C58.2313 195.771 44.5181 187.412 30.6128 179.369C6.39427 165.351 -4.63056 140.635 1.80812 114.158C8.07737 88.3689 30.3304 70.2502 57.6891 69.5386C78.3833 68.9964 99.1 69.3466 119.805 69.3353C120.867 69.3353 121.94 69.6403 123.431 69.8662Z" fill="#0A0A0A"/>
<path d="M1200.09 271.158C1199.94 268.876 1199.75 267.261 1199.75 265.646C1199.73 251.119 1199.74 236.604 1199.74 221.332C1202.26 221.332 1204.23 221.332 1206.19 221.332C1225.04 221.332 1243.9 221.332 1262.76 221.332C1267.64 221.332 1272.18 220.473 1273.82 215.04C1275.32 210.036 1273.01 206.545 1268.74 204.004C1254.78 195.69 1240.95 187.162 1226.89 179.04C1203.66 165.643 1192.52 140.837 1198.5 115.105C1204.53 89.1807 1226.22 70.6102 1253.06 69.65C1274.1 68.8932 1295.2 69.4241 1316.27 69.266C1319.74 69.2434 1320.64 70.6554 1320.62 73.8973C1320.48 87.5428 1320.45 101.188 1320.64 114.822C1320.7 118.595 1319.25 119.454 1315.76 119.431C1298.57 119.296 1281.38 119.363 1264.18 119.375C1262.33 119.375 1260.48 119.307 1258.64 119.488C1254.53 119.894 1250.88 121.363 1249.85 125.791C1248.83 130.185 1250.49 133.845 1254.39 136.183C1263.09 141.413 1271.95 146.406 1280.59 151.715C1289.69 157.306 1299.47 162.198 1307.48 169.099C1325.74 184.835 1330.91 205.461 1324.64 228.268C1318.16 251.853 1301.57 265.973 1277.69 269.712C1263.77 271.892 1249.33 270.91 1235.12 271.136C1223.68 271.294 1212.22 271.158 1200.09 271.158Z" fill="#0A0A0A"/>
</svg>
