<svg width="24" height="24" viewBox="0 0 24 24" fill="none" xmlns="http://www.w3.org/2000/svg">
<path fill-rule="evenodd" clip-rule="evenodd" d="M6.94331 23.6668H17.0544C21.0097 23.6668 23.6661 20.8924 23.6661 16.764V7.23634C23.6661 3.10796 21.0097 0.333496 17.0556 0.333496H6.94331C2.98914 0.333496 0.332764 3.10796 0.332764 7.23634V16.764C0.332764 20.8924 2.98914 23.6668 6.94331 23.6668ZM7.91411 10.8336C6.3057 10.8336 4.99878 9.52487 4.99878 7.91689C4.99878 6.30891 6.3057 5.00022 7.91411 5.00022C9.52136 5.00022 10.8295 6.30891 10.8295 7.91689C10.8295 9.52487 9.52136 10.8336 7.91411 10.8336ZM21.1232 15.4232C21.5138 16.4249 21.3109 17.6289 20.8932 18.621C20.3982 19.8009 19.4502 20.6942 18.2559 21.0843C17.7257 21.2577 17.1696 21.3336 16.6147 21.3336H6.78232C5.80389 21.3336 4.93809 21.0988 4.22832 20.6617C3.78369 20.3872 3.70509 19.7539 4.03475 19.3434C4.58614 18.6571 5.13049 17.9684 5.67953 17.2737C6.72601 15.9445 7.43108 15.5592 8.21476 15.8975C8.53269 16.0372 8.8518 16.2467 9.18028 16.4682C10.0555 17.063 11.2721 17.8805 12.8746 16.9932C13.9713 16.379 14.6073 15.3254 15.1612 14.4079L15.1705 14.3926C15.2098 14.3282 15.2487 14.2638 15.2874 14.1996L15.2875 14.1996C15.4736 13.8916 15.6573 13.5877 15.865 13.3078C16.1255 12.9574 17.091 11.8618 18.3416 12.642C19.1382 13.1332 19.8081 13.7978 20.5249 14.5093C20.7982 14.7814 20.993 15.0909 21.1232 15.4232Z" fill="#E2E2E2"/>
</svg>
