<svg width="20" height="20" viewBox="0 0 20 20" fill="none" xmlns="http://www.w3.org/2000/svg">
<path fill-rule="evenodd" clip-rule="evenodd" d="M9.39981 0C14.5828 0 18.7987 4.21587 18.7987 9.39884C18.7987 11.8441 17.8602 14.0744 16.3246 15.7482L19.3463 18.7636C19.6291 19.0464 19.6301 19.5039 19.3473 19.7867C19.2063 19.9295 19.0201 20 18.8347 20C18.6504 20 18.4651 19.9295 18.3232 19.7886L15.265 16.739C13.6563 18.0273 11.6165 18.7986 9.39981 18.7986C4.21684 18.7986 0 14.5818 0 9.39884C0 4.21587 4.21684 0 9.39981 0ZM9.39981 1.44776C5.01503 1.44776 1.44776 5.01407 1.44776 9.39884C1.44776 13.7836 5.01503 17.3509 9.39981 17.3509C13.7836 17.3509 17.3509 13.7836 17.3509 9.39884C17.3509 5.01407 13.7836 1.44776 9.39981 1.44776Z" fill="#7B7B7B"/>
</svg>
