<svg width="21" height="26" viewBox="0 0 21 26" fill="none" xmlns="http://www.w3.org/2000/svg">
<path d="M1.14676 16.092C1.20943 16.3828 1.26968 16.6643 1.32805 16.937C1.66497 18.5114 1.93887 19.7912 2.25039 20.8529C2.6149 22.0952 3.007 22.9475 3.53805 23.5575C4.56554 24.7378 6.32919 25.25 10.5 25.25C14.6708 25.25 16.4344 24.7378 17.4619 23.5575C17.9929 22.9475 18.3851 22.0952 18.7496 20.8529C19.0611 19.7912 19.335 18.5114 19.6719 16.9371C19.7303 16.6644 19.7905 16.3828 19.8532 16.092C20.6786 12.2624 20.1664 10.1992 18.7982 9.01762C18.0826 8.39965 17.0595 7.95086 15.6639 7.66088C14.2696 7.37115 12.5537 7.25 10.5 7.25C8.44622 7.25 6.73032 7.37115 5.33602 7.66088C3.94049 7.95086 2.91737 8.39965 2.2018 9.01762C0.833617 10.1992 0.321423 12.2624 1.14676 16.092Z" stroke="black" stroke-width="1.5" stroke-linecap="round" stroke-linejoin="round"/>
<path d="M10.5 13V19.5M6.30005 13V19.5M14.6999 13V19.5" stroke="black" stroke-width="1.5" stroke-linecap="round" stroke-linejoin="round"/>
<path fill-rule="evenodd" clip-rule="evenodd" d="M8.4 2.32614V1C8.4 0.447715 8.84771 0 9.4 0H11.5999C12.1522 0 12.5999 0.447715 12.5999 1V2.32652C16.4333 2.6131 19.0057 3.6533 20.4774 4.56713C20.9466 4.85848 21.0907 5.47501 20.7994 5.9442C20.508 6.41338 19.8915 6.55755 19.4223 6.2662C18.0466 5.41195 15.1803 4.25 10.5 4.25C5.8047 4.25 2.85812 5.41857 1.60231 6.25037C1.14187 6.55535 0.521375 6.42932 0.216395 5.96888C-0.0885849 5.50844 0.0374413 4.88794 0.497882 4.58296C1.90653 3.64993 4.55254 2.61164 8.4 2.32614Z" fill="black"/>
</svg>
