<svg width="19" height="19" viewBox="0 0 19 19" fill="none" xmlns="http://www.w3.org/2000/svg">
<path fill-rule="evenodd" clip-rule="evenodd" d="M6.59155 9.61533C6.59155 9.22183 6.88692 8.90283 7.25128 8.90283H17.8429C18.2073 8.90283 18.5026 9.22183 18.5026 9.61533C18.5026 10.0088 18.2073 10.3278 17.8429 10.3278H7.25128C6.88692 10.3278 6.59155 10.0088 6.59155 9.61533Z" fill="black"/>
<path fill-rule="evenodd" clip-rule="evenodd" d="M14.7994 6.3418C15.0566 6.06298 15.4743 6.06206 15.7324 6.33973L18.308 9.10993C18.4323 9.24364 18.5022 9.42531 18.5022 9.61478C18.5022 9.80425 18.4323 9.98592 18.308 10.1196L15.7324 12.8898C15.4743 13.1675 15.0566 13.1666 14.7994 12.8878C14.5423 12.6089 14.5432 12.1578 14.8014 11.8801L16.9075 9.61478L14.8014 7.34943C14.5432 7.07175 14.5423 6.62062 14.7994 6.3418Z" fill="black"/>
<path fill-rule="evenodd" clip-rule="evenodd" d="M11.2412 2.32759C11.9244 2.87436 12.266 3.76822 12.4064 5.4139C12.4399 5.80574 12.7611 6.09411 13.1239 6.05799C13.4868 6.02187 13.7538 5.67494 13.7203 5.2831C13.5705 3.52778 13.1776 2.10364 12.0268 1.18266C10.9234 0.299683 9.26112 0 6.90598 0C3.78345 0 1.86362 0.528716 0.878383 2.26095C0.408805 3.08655 0.20129 4.10903 0.100452 5.27952C9.53674e-06 6.44542 1.33514e-05 7.84607 1.71661e-05 9.46997V9.53003C1.33514e-05 11.1539 9.53674e-06 12.5546 0.100452 13.7205C0.20129 14.891 0.408805 15.9135 0.878383 16.7391C1.86362 18.4713 3.78345 19 6.90598 19C9.26112 19 10.9234 18.7003 12.0268 17.8173C13.1776 16.8964 13.5705 15.4722 13.7203 13.7169C13.7538 13.3251 13.4868 12.9781 13.1239 12.942C12.7611 12.9059 12.4399 13.1943 12.4064 13.5861C12.266 15.2318 11.9244 16.1256 11.2412 16.6724C10.5105 17.2572 9.23926 17.575 6.90598 17.575C3.78227 17.575 2.57897 17.0065 2.00266 15.9932C1.69145 15.446 1.50858 14.6837 1.41422 13.5885C1.32009 12.4958 1.31946 11.1598 1.31946 9.5C1.31946 7.84016 1.32009 6.50422 1.41422 5.41154C1.50858 4.31628 1.69145 3.55395 2.00266 3.0068C2.57897 1.99353 3.78227 1.425 6.90598 1.425C9.23926 1.425 10.5105 1.74282 11.2412 2.32759Z" fill="black"/>
</svg>
