<svg width="27" height="27" viewBox="0 0 27 27" fill="none" xmlns="http://www.w3.org/2000/svg">
<path d="M19.8354 12.0369H19.8635C20.3157 12.0369 20.6903 11.678 20.7061 11.2213C20.7725 9.25813 19.6013 7.81476 17.7923 7.62913C17.3378 7.59088 16.9148 7.91826 16.8665 8.38176C16.8192 8.84526 17.1567 9.25926 17.6202 9.30763C18.5326 9.40101 19.0557 10.0951 19.0197 11.165C19.004 11.6308 19.3696 12.0211 19.8354 12.0369Z" fill="white"/>
<path fill-rule="evenodd" clip-rule="evenodd" d="M2.4292 14.2188C4.44745 20.5008 11.1896 23.8905 13.5026 23.8905C15.8325 23.8905 22.5971 20.4997 24.5726 14.2177C25.8663 10.1767 24.432 4.90272 19.8577 3.42897C17.9092 2.8046 15.2396 3.0341 13.4778 4.82622C11.8455 3.25797 9.41995 2.6921 7.13508 3.4301C2.56533 4.90047 1.1332 10.1756 2.42808 14.2177L2.4292 14.2188ZM13.5026 22.203C12.1695 22.203 5.88858 19.4692 4.0357 13.7036C2.98833 10.4321 4.07283 6.1886 7.65258 5.03547C9.21745 4.53035 11.5035 4.81385 12.8186 6.6296C12.9817 6.85347 13.2427 6.96597 13.5206 6.97722C13.7973 6.9716 14.0538 6.82985 14.2068 6.59922C15.4061 4.77897 17.7101 4.51347 19.3413 5.03547C22.9245 6.18972 24.0112 10.4332 22.9638 13.707C21.1515 19.4703 14.8458 22.203 13.5026 22.203Z" fill="white"/>
</svg>
