<svg width="30" height="30" viewBox="0 0 30 30" fill="none" xmlns="http://www.w3.org/2000/svg">
<path d="M10.7939 10.8176H18.2448M10.7939 14.8498H15.5354M16.2471 22.3312H17.5582C21.1242 22.3312 24.2263 19.9082 25.0633 16.4691C25.4789 14.7613 25.4789 12.9798 25.0633 11.272L24.9535 10.821C24.1467 7.50618 21.5172 4.93071 18.166 4.17308L17.6952 4.06665C15.8277 3.64445 13.8884 3.64445 12.0209 4.06665L11.7454 4.12894C8.27454 4.91361 5.55115 7.581 4.71559 11.0142C4.2587 12.8914 4.26287 14.8668 4.71976 16.7441C5.56839 20.2309 8.06468 23.1328 11.4134 24.4849L11.5594 24.5439C13.0085 25.129 14.6686 24.4243 15.2632 22.9885C15.4268 22.5934 15.8165 22.3312 16.2471 22.3312Z" stroke="white" stroke-width="1.7" stroke-linecap="round"/>
</svg>
