<svg width="27" height="27" viewBox="0 0 27 27" fill="none" xmlns="http://www.w3.org/2000/svg">
<mask id="mask0_1868_58" style="mask-type:luminance" maskUnits="userSpaceOnUse" x="2" y="2" width="22" height="24">
<path fill-rule="evenodd" clip-rule="evenodd" d="M2.25 2.25049H23.9455V25.5616H2.25V2.25049Z" fill="white"/>
</mask>
<g mask="url(#mask0_1868_58)">
<path fill-rule="evenodd" clip-rule="evenodd" d="M8.10237 19.6205C8.35999 19.6205 8.61762 19.6531 8.86962 19.7206C9.63012 19.9254 10.2905 20.4339 10.682 21.1167C10.9362 21.5454 11.0769 22.046 11.0814 22.5567C11.0814 23.288 11.6686 23.8741 12.3909 23.8741H13.8005C14.5194 23.8741 15.1066 23.2914 15.11 22.5725C15.1055 21.7782 15.416 21.0234 15.9841 20.4552C16.5444 19.895 17.3274 19.5586 18.1104 19.5811C18.6234 19.5935 19.1172 19.7319 19.5526 19.9794C20.1792 20.3382 20.9791 20.1245 21.3414 19.5057L22.0884 18.2604C22.2549 17.9735 22.3032 17.6135 22.2144 17.2816C22.1266 16.9497 21.9061 16.6617 21.6091 16.4919C20.9139 16.0914 20.4177 15.4456 20.2119 14.6716C20.0082 13.9122 20.1196 13.0831 20.5167 12.4002C20.7755 11.9502 21.1546 11.5711 21.6091 11.3101C22.2189 10.9535 22.4326 10.1559 22.0782 9.53486C22.0636 9.51011 22.0501 9.48424 22.0389 9.45724L21.3796 8.31424C21.0207 7.68986 20.222 7.47499 19.5954 7.83161C18.9181 8.23211 18.1126 8.34686 17.3386 8.14324C16.5657 7.94299 15.9177 7.45361 15.5139 6.76286C15.2551 6.33086 15.1145 5.82799 15.11 5.31611C15.1201 4.93136 14.9851 4.58599 14.7399 4.33286C14.4957 4.08086 14.1526 3.93799 13.8005 3.93799H12.3909C12.0421 3.93799 11.7159 4.07411 11.4695 4.31936C11.2242 4.56574 11.0904 4.89311 11.0926 5.24186C11.069 6.88661 9.72462 8.21074 8.09674 8.21074C7.57474 8.20511 7.07187 8.06449 6.63537 7.80349C6.02224 7.45474 5.22124 7.66961 4.86237 8.29399L4.10074 9.54611C3.75199 10.1514 3.96574 10.9512 4.58674 11.3124C5.50812 11.8456 6.08299 12.8401 6.08299 13.9066C6.08299 14.9731 5.50812 15.9665 4.58449 16.5009C3.96687 16.8586 3.75312 17.654 4.11087 18.2727L4.82074 19.4967C4.99624 19.8129 5.28312 20.0412 5.61499 20.1346C5.94574 20.2269 6.31024 20.1875 6.61399 20.0187C7.06062 19.7566 7.58037 19.6205 8.10237 19.6205ZM13.8005 25.5616H12.3909C10.7382 25.5616 9.39387 24.2184 9.39387 22.5657C9.39162 22.3621 9.33312 22.1506 9.22399 21.9672C9.04737 21.659 8.76162 21.4385 8.43199 21.3507C8.10462 21.263 7.74574 21.3114 7.45099 21.4824C6.74449 21.8761 5.91312 21.9717 5.15262 21.758C4.39324 21.5431 3.73737 21.0211 3.35262 20.3292L2.64949 19.1176C1.82712 17.6911 2.31649 15.863 3.74074 15.0395C4.14462 14.8066 4.39549 14.3724 4.39549 13.9066C4.39549 13.4409 4.14462 13.0055 3.74074 12.7726C2.31537 11.9446 1.82712 10.112 2.64837 8.68549L3.41112 7.43336C4.22224 6.02261 6.05599 5.52536 7.48587 6.34661C7.68049 6.46249 7.89199 6.52099 8.10687 6.52324C8.80774 6.52324 9.39387 5.94499 9.40512 5.23399C9.40062 4.44986 9.70999 3.69724 10.2736 3.12911C10.8395 2.56211 11.591 2.25049 12.3909 2.25049H13.8005C14.606 2.25049 15.389 2.58124 15.9504 3.15611C16.5106 3.73436 16.82 4.52749 16.7964 5.33186C16.7986 5.51299 16.8582 5.72224 16.9662 5.90561C17.1451 6.20936 17.4275 6.42311 17.7627 6.51086C18.098 6.59411 18.449 6.54911 18.7471 6.37249C20.1871 5.55011 22.0197 6.04286 22.8421 7.47161L23.543 8.68549C23.561 8.71811 23.5767 8.74961 23.5902 8.78224C24.335 10.1896 23.8377 11.9615 22.454 12.7704C22.2526 12.8862 22.0895 13.0482 21.977 13.244C21.8026 13.5466 21.7542 13.9066 21.842 14.2374C21.932 14.5749 22.1469 14.855 22.4495 15.0282C23.1324 15.4209 23.642 16.0824 23.8456 16.8462C24.0492 17.609 23.9379 18.437 23.5407 19.1199L22.7937 20.3641C21.9714 21.7771 20.1387 22.2665 18.7134 21.443C18.5232 21.3339 18.3039 21.2742 18.0856 21.2686H18.0789C17.7537 21.2686 17.4196 21.407 17.1766 21.6489C16.9302 21.8952 16.7952 22.2237 16.7975 22.5725C16.7896 24.2251 15.4452 25.5616 13.8005 25.5616Z" fill="black"/>
</g>
<path fill-rule="evenodd" clip-rule="evenodd" d="M13.1008 11.7839C11.9308 11.7839 10.979 12.7368 10.979 13.9068C10.979 15.0768 11.9308 16.0274 13.1008 16.0274C14.2708 16.0274 15.2225 15.0768 15.2225 13.9068C15.2225 12.7368 14.2708 11.7839 13.1008 11.7839ZM13.1008 17.7149C11.0004 17.7149 9.2915 16.0072 9.2915 13.9068C9.2915 11.8064 11.0004 10.0964 13.1008 10.0964C15.2011 10.0964 16.91 11.8064 16.91 13.9068C16.91 16.0072 15.2011 17.7149 13.1008 17.7149Z" fill="black"/>
</svg>
